{"glyphs":{"0":{"ha":677,"x_min":41,"x_max":636,"o":"m 301 0 q 57 270 107 0 q 41 475 41 359 q 262 947 41 909 q 301 949 281 949 l 301 768 q 225 571 232 751 q 224 490 224 540 l 224 460 q 256 218 224 273 q 301 182 274 189 l 301 0 m 376 0 l 376 182 q 452 378 445 198 q 453 460 453 410 l 453 490 q 420 731 453 677 q 376 768 403 761 l 376 949 q 620 680 570 949 q 636 475 636 590 q 415 3 636 41 q 376 0 396 0 z "},"1":{"ha":376,"x_min":41,"x_max":335,"o":"m 41 697 l 41 868 l 144 949 l 335 949 l 335 0 l 144 0 l 144 697 l 41 697 z "},"2":{"ha":671,"x_min":41,"x_max":631,"o":"m 41 707 q 125 884 41 808 q 289 949 198 949 l 289 773 q 224 739 251 773 q 205 675 205 712 l 41 707 m 69 0 l 69 187 l 617 187 l 617 0 l 69 0 m 69 258 q 190 441 69 349 q 244 480 208 454 q 292 514 278 503 q 334 545 305 525 q 444 644 423 609 q 454 682 454 665 q 389 769 454 753 q 363 773 376 773 l 363 949 q 602 815 536 949 q 631 684 631 755 q 559 503 631 578 q 465 425 524 467 q 400 381 444 408 q 294 294 313 323 q 283 258 283 275 l 69 258 z "},"3":{"ha":681,"x_min":41,"x_max":640,"o":"m 363 0 l 363 176 q 461 245 446 184 q 464 271 464 258 q 388 374 464 353 q 289 387 349 387 l 289 563 q 461 647 444 563 q 464 678 464 662 q 382 770 464 753 q 363 773 372 772 l 363 949 q 557 878 477 949 q 640 680 640 803 q 559 481 640 547 q 549 475 553 477 q 637 313 624 425 q 640 270 640 292 q 500 33 640 103 q 363 0 434 0 m 41 243 l 205 274 q 266 180 205 202 q 289 176 279 176 l 289 0 q 103 88 180 0 q 41 243 41 160 m 41 707 q 125 884 41 808 q 289 949 198 949 l 289 773 q 212 716 232 766 q 205 675 205 697 l 41 707 z "},"4":{"ha":666,"x_min":27,"x_max":625,"o":"m 27 193 l 27 369 l 285 811 l 285 469 l 222 369 l 285 369 l 285 193 l 27 193 m 362 0 l 362 951 l 552 951 l 552 369 l 625 369 l 625 193 l 552 193 l 552 0 l 362 0 z "},"5":{"ha":705,"x_min":41,"x_max":665,"o":"m 61 480 l 100 949 l 587 949 l 587 773 l 264 773 l 248 600 q 309 606 278 606 l 309 439 q 221 395 248 434 q 217 388 218 391 l 61 480 m 382 0 l 382 171 q 484 258 460 184 q 491 304 491 279 q 429 422 491 381 q 382 439 406 437 l 382 606 q 625 465 551 602 q 665 302 665 392 q 547 54 665 141 q 382 0 472 3 m 41 239 l 205 270 q 273 184 208 214 q 305 175 293 175 l 305 -1 q 114 81 198 -1 q 41 239 42 155 z "},"6":{"ha":685,"x_min":41,"x_max":644,"o":"m 315 -1 l 315 175 q 240 260 254 191 q 237 288 237 274 q 289 389 237 358 q 315 400 302 396 l 315 576 q 224 559 262 576 q 282 760 224 722 q 315 773 297 769 l 315 949 q 47 623 87 949 q 41 486 41 559 q 170 43 41 141 q 315 -1 229 -1 m 388 -1 q 581 94 505 -1 q 644 286 644 175 q 544 526 644 446 q 388 576 479 576 l 388 400 q 463 316 448 384 q 465 288 465 302 q 410 184 465 214 q 388 175 399 178 l 388 -1 m 468 708 l 612 806 q 469 935 566 899 q 388 949 429 949 l 388 773 q 452 739 426 773 q 468 708 463 724 z "},"7":{"ha":609,"x_min":41,"x_max":582,"o":"m 582 773 l 41 773 l 41 949 l 582 949 l 582 773 m 194 0 q 342 635 194 320 q 374 699 358 669 l 568 699 q 384 0 384 340 l 194 0 z "},"8":{"ha":667,"x_min":41,"x_max":627,"o":"m 294 -3 q 123 75 202 -3 q 41 271 41 157 q 117 465 41 401 q 127 473 122 469 q 45 620 61 517 q 41 675 41 647 q 144 890 41 806 q 294 949 217 949 l 294 774 q 220 699 235 765 q 216 667 216 684 q 266 570 216 598 q 293 560 279 563 l 293 387 q 220 311 235 376 q 216 279 216 294 q 267 180 216 208 q 294 172 281 175 l 294 -3 m 373 -3 l 373 172 q 448 248 433 182 q 452 279 452 263 q 401 377 452 349 q 374 387 388 384 l 374 560 q 448 636 433 571 q 452 667 452 652 q 400 766 452 739 q 373 774 387 772 l 373 949 q 544 872 465 949 q 627 675 627 789 q 551 481 627 545 q 540 473 545 477 q 623 327 606 430 q 627 271 627 300 q 524 57 627 141 q 373 -3 450 -3 z "},"9":{"ha":685,"x_min":41,"x_max":644,"o":"m 370 -1 q 644 416 635 -1 q 644 463 644 438 q 515 905 644 807 q 370 949 456 949 l 370 773 q 445 688 431 757 q 448 661 448 674 q 396 559 448 590 q 370 548 382 552 l 370 372 q 461 389 423 372 q 445 235 461 275 q 370 175 422 179 l 370 -1 m 297 372 l 297 548 q 222 632 237 564 q 220 661 220 647 q 275 764 220 734 q 297 773 286 770 l 297 949 q 104 854 180 949 q 41 662 41 773 q 141 422 41 502 q 297 372 206 372 m 73 142 q 297 -1 152 4 l 297 175 q 228 220 255 176 q 217 240 221 231 l 73 142 z "},"A":{"ha":716,"x_min":43,"x_max":690,"o":"m 43 0 l 218 789 l 239 789 l 320 410 l 231 0 l 43 0 m 332 115 l 373 302 l 422 302 l 278 949 l 467 949 l 690 0 l 500 0 l 473 115 l 332 115 z "},"Æ":{"ha":986,"x_min":35,"x_max":951,"o":"m 35 0 l 279 949 l 951 949 l 951 760 l 648 760 l 648 567 l 823 567 l 823 376 l 648 376 l 648 191 l 951 191 l 951 0 l 457 0 l 457 201 l 369 201 l 408 363 l 457 363 l 457 760 l 434 760 l 247 0 l 35 0 z "},"Á":{"ha":716,"x_min":43,"x_max":690,"o":"m 312 1039 l 362 1245 l 534 1245 l 435 1039 l 312 1039 m 43 0 l 218 789 l 239 789 l 320 410 l 231 0 l 43 0 m 332 115 l 373 302 l 422 302 l 278 949 l 467 949 l 690 0 l 500 0 l 473 115 l 332 115 z "},"Ă":{"ha":716,"x_min":43,"x_max":690,"o":"m 244 1169 l 331 1169 q 361 1127 331 1137 q 374 1126 369 1126 q 416 1156 407 1126 q 418 1169 418 1164 l 505 1169 q 444 1059 505 1097 q 374 1039 412 1039 q 264 1100 302 1039 q 244 1169 244 1133 m 43 0 l 218 789 l 239 789 l 320 410 l 231 0 l 43 0 m 332 115 l 373 302 l 422 302 l 278 949 l 467 949 l 690 0 l 500 0 l 473 115 l 332 115 z "},"Â":{"ha":716,"x_min":43,"x_max":690,"o":"m 227 1039 l 328 1245 l 418 1245 l 522 1039 l 411 1039 l 373 1116 l 336 1039 l 227 1039 m 43 0 l 218 789 l 239 789 l 320 410 l 231 0 l 43 0 m 332 115 l 373 302 l 422 302 l 278 949 l 467 949 l 690 0 l 500 0 l 473 115 l 332 115 z "},"Ä":{"ha":716,"x_min":43,"x_max":690,"o":"m 157 1141 q 210 1232 157 1202 q 259 1244 233 1244 q 349 1191 320 1244 q 361 1141 361 1168 q 307 1051 361 1078 q 259 1039 283 1039 q 170 1093 197 1039 q 157 1141 157 1116 m 388 1141 q 441 1232 388 1202 q 490 1244 464 1244 q 579 1191 551 1244 q 591 1141 591 1168 q 537 1051 591 1078 q 490 1039 514 1039 q 400 1093 427 1039 q 388 1141 388 1116 m 43 0 l 218 789 l 239 789 l 320 410 l 231 0 l 43 0 m 332 115 l 373 302 l 422 302 l 278 949 l 467 949 l 690 0 l 500 0 l 473 115 l 332 115 z "},"À":{"ha":716,"x_min":43,"x_max":690,"o":"m 203 1245 l 376 1245 l 426 1039 l 302 1039 l 203 1245 m 43 0 l 218 789 l 239 789 l 320 410 l 231 0 l 43 0 m 332 115 l 373 302 l 422 302 l 278 949 l 467 949 l 690 0 l 500 0 l 473 115 l 332 115 z "},"Ā":{"ha":716,"x_min":43,"x_max":690,"o":"m 160 1039 l 160 1150 l 589 1150 l 589 1039 l 160 1039 m 43 0 l 218 789 l 239 789 l 320 410 l 231 0 l 43 0 m 332 115 l 373 302 l 422 302 l 278 949 l 467 949 l 690 0 l 500 0 l 473 115 l 332 115 z "},"Ą":{"ha":716,"x_min":43,"x_max":762,"o":"m 762 -270 q 548 -138 594 -270 q 534 -54 534 -99 l 659 -54 q 762 -146 661 -145 l 762 -270 m 43 0 l 218 789 l 239 789 l 320 410 l 231 0 l 43 0 m 332 115 l 373 302 l 422 302 l 278 949 l 467 949 l 690 0 l 500 0 l 473 115 l 332 115 z "},"Å":{"ha":700,"x_min":35,"x_max":665,"o":"m 35 0 l 210 789 l 231 789 l 312 410 l 222 0 l 35 0 m 324 115 l 365 302 l 414 302 l 271 947 q 235 1038 235 985 q 296 1147 235 1109 q 365 1168 328 1168 q 475 1107 437 1168 q 495 1038 495 1074 q 460 948 494 983 l 665 0 l 479 0 l 452 115 l 324 115 m 321 1038 q 351 996 321 1005 q 365 994 359 994 q 407 1024 397 994 q 408 1038 408 1032 q 378 1080 408 1070 q 365 1081 370 1081 q 323 1051 332 1081 q 321 1038 321 1043 z "},"Ã":{"ha":716,"x_min":43,"x_max":690,"o":"m 182 1039 l 182 1177 q 277 1207 235 1207 q 373 1176 311 1207 q 454 1152 420 1152 q 563 1190 502 1153 l 563 1053 q 449 1015 500 1015 q 349 1046 412 1015 q 271 1069 302 1069 q 182 1039 229 1067 m 43 0 l 218 789 l 239 789 l 320 410 l 231 0 l 43 0 m 332 115 l 373 302 l 422 302 l 278 949 l 467 949 l 690 0 l 500 0 l 473 115 l 332 115 z "},"B":{"ha":662,"x_min":41,"x_max":620,"o":"m 41 0 l 41 949 l 231 949 l 231 0 l 41 0 m 305 0 l 305 167 l 312 167 q 420 235 393 167 q 430 279 430 256 q 376 377 430 347 q 316 392 349 392 l 305 392 l 305 557 l 316 557 q 420 623 392 557 q 430 670 430 646 q 374 768 430 736 q 312 783 346 783 l 305 783 l 305 949 l 338 949 q 586 821 514 949 q 620 684 620 758 q 548 492 620 566 q 528 475 537 483 q 618 297 606 416 q 620 266 620 281 q 528 60 620 134 q 338 0 452 0 l 305 0 z "},"C":{"ha":670,"x_min":52,"x_max":643,"o":"m 52 245 l 52 703 q 110 856 52 781 q 319 956 187 955 l 319 765 q 245 712 262 764 q 243 703 243 707 l 243 245 q 266 203 243 224 q 319 184 288 184 l 319 -7 q 90 121 167 -7 q 52 245 52 186 m 392 -7 l 392 184 q 423 197 392 184 q 449 225 442 210 q 456 275 456 243 l 456 292 l 643 247 q 548 52 643 129 q 392 -7 476 -7 m 392 765 l 392 956 q 571 869 491 956 q 643 700 643 791 l 456 651 l 456 671 q 449 722 456 705 q 429 746 444 735 q 404 761 415 757 l 392 765 z "},"Ć":{"ha":670,"x_min":52,"x_max":643,"o":"m 294 1039 l 345 1245 l 517 1245 l 418 1039 l 294 1039 m 52 245 l 52 703 q 110 856 52 781 q 319 956 187 955 l 319 765 q 245 712 262 764 q 243 703 243 707 l 243 245 q 266 203 243 224 q 319 184 288 184 l 319 -7 q 90 121 167 -7 q 52 245 52 186 m 392 -7 l 392 184 q 423 197 392 184 q 449 225 442 210 q 456 275 456 243 l 456 292 l 643 247 q 548 52 643 129 q 392 -7 476 -7 m 392 765 l 392 956 q 571 869 491 956 q 643 700 643 791 l 456 651 l 456 671 q 449 722 456 705 q 429 746 444 735 q 404 761 415 757 l 392 765 z "},"Č":{"ha":670,"x_min":52,"x_max":643,"o":"m 208 1245 l 317 1245 l 354 1168 l 392 1245 l 503 1245 l 399 1039 l 309 1039 l 208 1245 m 52 245 l 52 703 q 110 856 52 781 q 319 956 187 955 l 319 765 q 245 712 262 764 q 243 703 243 707 l 243 245 q 266 203 243 224 q 319 184 288 184 l 319 -7 q 90 121 167 -7 q 52 245 52 186 m 392 -7 l 392 184 q 423 197 392 184 q 449 225 442 210 q 456 275 456 243 l 456 292 l 643 247 q 548 52 643 129 q 392 -7 476 -7 m 392 765 l 392 956 q 571 869 491 956 q 643 700 643 791 l 456 651 l 456 671 q 449 722 456 705 q 429 746 444 735 q 404 761 415 757 l 392 765 z "},"Ç":{"ha":670,"x_min":52,"x_max":643,"o":"m 190 -270 l 190 -146 q 293 -54 292 -144 l 418 -54 q 321 -239 418 -183 q 190 -270 267 -270 m 52 245 l 52 703 q 110 856 52 781 q 319 956 187 955 l 319 765 q 245 712 262 764 q 243 703 243 707 l 243 245 q 266 203 243 224 q 319 184 288 184 l 319 -7 q 90 121 167 -7 q 52 245 52 186 m 392 -7 l 392 184 q 423 197 392 184 q 449 225 442 210 q 456 275 456 243 l 456 292 l 643 247 q 548 52 643 129 q 392 -7 476 -7 m 392 765 l 392 956 q 571 869 491 956 q 643 700 643 791 l 456 651 l 456 671 q 449 722 456 705 q 429 746 444 735 q 404 761 415 757 l 392 765 z "},"D":{"ha":640,"x_min":57,"x_max":589,"o":"m 57 0 l 57 949 l 248 949 l 248 0 l 57 0 m 321 0 l 321 191 q 377 216 351 191 q 397 267 396 237 l 397 682 q 374 735 397 709 q 321 758 353 757 l 321 949 q 549 815 472 949 q 589 682 589 746 l 589 267 q 452 37 589 113 q 321 0 384 0 z "},"Ď":{"ha":640,"x_min":57,"x_max":589,"o":"m 175 1245 l 285 1245 l 321 1168 l 359 1245 l 471 1245 l 366 1039 l 277 1039 l 175 1245 m 57 0 l 57 949 l 248 949 l 248 0 l 57 0 m 321 0 l 321 191 q 377 216 351 191 q 397 267 396 237 l 397 682 q 374 735 397 709 q 321 758 353 757 l 321 949 q 549 815 472 949 q 589 682 589 746 l 589 267 q 452 37 589 113 q 321 0 384 0 z "},"Đ":{"ha":680,"x_min":35,"x_max":644,"o":"m 35 396 l 35 570 l 113 570 l 113 949 l 304 949 l 304 570 l 380 570 l 380 396 l 304 396 l 304 0 l 113 0 l 113 396 l 35 396 m 377 0 l 377 191 q 433 216 407 191 q 453 267 452 237 l 453 682 q 430 735 453 709 q 377 758 408 757 l 377 949 q 605 815 528 949 q 644 682 644 746 l 644 267 q 507 37 644 113 q 377 0 439 0 z "},"E":{"ha":602,"x_min":57,"x_max":551,"o":"m 57 0 l 57 949 l 551 949 l 551 760 l 248 760 l 248 567 l 423 567 l 423 376 l 248 376 l 248 191 l 551 191 l 551 0 l 57 0 z "},"É":{"ha":602,"x_min":57,"x_max":552,"o":"m 330 1039 l 380 1245 l 552 1245 l 453 1039 l 330 1039 m 57 0 l 57 949 l 551 949 l 551 760 l 248 760 l 248 567 l 423 567 l 423 376 l 248 376 l 248 191 l 551 191 l 551 0 l 57 0 z "},"Ě":{"ha":602,"x_min":57,"x_max":551,"o":"m 156 1245 l 266 1245 l 302 1168 l 340 1245 l 452 1245 l 347 1039 l 258 1039 l 156 1245 m 57 0 l 57 949 l 551 949 l 551 760 l 248 760 l 248 567 l 423 567 l 423 376 l 248 376 l 248 191 l 551 191 l 551 0 l 57 0 z "},"Ê":{"ha":602,"x_min":57,"x_max":551,"o":"m 156 1039 l 258 1245 l 347 1245 l 452 1039 l 340 1039 l 302 1116 l 266 1039 l 156 1039 m 57 0 l 57 949 l 551 949 l 551 760 l 248 760 l 248 567 l 423 567 l 423 376 l 248 376 l 248 191 l 551 191 l 551 0 l 57 0 z "},"Ë":{"ha":602,"x_min":57,"x_max":551,"o":"m 87 1141 q 140 1232 87 1202 q 189 1244 163 1244 q 278 1191 250 1244 q 290 1141 290 1168 q 236 1051 290 1078 q 189 1039 213 1039 q 99 1093 126 1039 q 87 1141 87 1116 m 317 1141 q 370 1232 317 1202 q 419 1244 393 1244 q 509 1191 480 1244 q 521 1141 521 1168 q 467 1051 521 1078 q 419 1039 444 1039 q 330 1093 357 1039 q 317 1141 317 1116 m 57 0 l 57 949 l 551 949 l 551 760 l 248 760 l 248 567 l 423 567 l 423 376 l 248 376 l 248 191 l 551 191 l 551 0 l 57 0 z "},"Ė":{"ha":602,"x_min":57,"x_max":551,"o":"m 202 1141 q 255 1232 202 1202 q 304 1244 278 1244 q 393 1191 365 1244 q 406 1141 406 1168 q 351 1051 406 1078 q 304 1039 328 1039 q 214 1093 241 1039 q 202 1141 202 1116 m 57 0 l 57 949 l 551 949 l 551 760 l 248 760 l 248 567 l 423 567 l 423 376 l 248 376 l 248 191 l 551 191 l 551 0 l 57 0 z "},"È":{"ha":602,"x_min":57,"x_max":551,"o":"m 133 1245 l 305 1245 l 355 1039 l 232 1039 l 133 1245 m 57 0 l 57 949 l 551 949 l 551 760 l 248 760 l 248 567 l 423 567 l 423 376 l 248 376 l 248 191 l 551 191 l 551 0 l 57 0 z "},"Ē":{"ha":602,"x_min":57,"x_max":551,"o":"m 90 1039 l 90 1150 l 518 1150 l 518 1039 l 90 1039 m 57 0 l 57 949 l 551 949 l 551 760 l 248 760 l 248 567 l 423 567 l 423 376 l 248 376 l 248 191 l 551 191 l 551 0 l 57 0 z "},"Ę":{"ha":602,"x_min":57,"x_max":578,"o":"m 578 -270 l 578 -146 q 475 -54 476 -144 l 350 -54 q 446 -239 350 -183 q 578 -270 500 -270 m 57 0 l 57 949 l 551 949 l 551 760 l 248 760 l 248 567 l 423 567 l 423 376 l 248 376 l 248 191 l 551 191 l 551 0 l 57 0 z "},"Ð":{"ha":680,"x_min":35,"x_max":644,"o":"m 35 396 l 35 570 l 113 570 l 113 949 l 304 949 l 304 570 l 380 570 l 380 396 l 304 396 l 304 0 l 113 0 l 113 396 l 35 396 m 377 0 l 377 191 q 433 216 407 191 q 453 267 452 237 l 453 682 q 430 735 453 709 q 377 758 408 757 l 377 949 q 605 815 528 949 q 644 682 644 746 l 644 267 q 507 37 644 113 q 377 0 439 0 z "},"€":{"ha":769,"x_min":68,"x_max":701,"o":"m 68 350 l 68 430 l 134 430 l 134 511 l 68 511 l 68 591 l 134 591 l 134 673 q 225 882 134 799 q 377 947 293 944 l 377 757 q 320 689 321 754 l 320 591 l 553 591 l 553 510 l 320 510 l 320 430 l 553 430 l 553 350 l 320 350 l 320 274 q 377 191 321 193 l 377 3 q 182 113 252 11 q 134 247 140 175 l 134 350 l 68 350 m 458 3 l 458 193 q 517 270 515 197 l 517 321 l 701 252 q 621 81 701 163 q 458 3 544 5 m 458 757 l 458 947 q 662 840 594 944 q 701 697 701 777 l 515 628 l 517 694 q 471 755 517 749 q 458 757 465 757 z "},"F":{"ha":586,"x_min":57,"x_max":551,"o":"m 57 1 l 57 949 l 551 949 l 551 760 l 248 760 l 248 567 l 423 567 l 423 376 l 248 376 l 248 1 l 57 1 z "},"G":{"ha":688,"x_min":52,"x_max":642,"o":"m 52 260 l 52 711 q 134 880 64 807 q 317 956 209 956 l 317 765 q 245 709 259 764 q 243 689 243 697 l 243 260 q 305 187 244 205 q 317 184 313 184 l 317 -7 q 160 49 239 -7 q 52 260 53 127 m 391 -7 l 391 184 q 429 209 406 184 q 449 258 449 232 l 449 302 l 391 302 l 391 479 l 642 479 l 642 239 q 555 73 642 155 q 391 -7 472 -5 m 391 765 l 391 956 q 570 869 491 956 q 642 700 642 792 l 454 631 l 454 684 q 406 762 454 747 q 391 765 397 765 z "},"Ğ":{"ha":688,"x_min":52,"x_max":642,"o":"m 224 1169 l 311 1169 q 340 1127 311 1137 q 354 1126 349 1126 q 396 1156 387 1126 q 397 1169 397 1164 l 484 1169 q 423 1059 484 1097 q 354 1039 391 1039 q 244 1100 282 1039 q 224 1169 224 1133 m 52 260 l 52 711 q 134 880 64 807 q 317 956 209 956 l 317 765 q 245 709 259 764 q 243 689 243 697 l 243 260 q 305 187 244 205 q 317 184 313 184 l 317 -7 q 160 49 239 -7 q 52 260 53 127 m 391 -7 l 391 184 q 429 209 406 184 q 449 258 449 232 l 449 302 l 391 302 l 391 479 l 642 479 l 642 239 q 555 73 642 155 q 391 -7 472 -5 m 391 765 l 391 956 q 570 869 491 956 q 642 700 642 792 l 454 631 l 454 684 q 406 762 454 747 q 391 765 397 765 z "},"H":{"ha":671,"x_min":54,"x_max":617,"o":"m 54 0 l 54 949 l 245 949 l 245 571 l 298 571 l 298 384 l 245 384 l 245 0 l 54 0 m 373 384 l 373 571 l 426 571 l 426 949 l 617 949 l 617 0 l 426 0 l 426 384 l 373 384 z "},"I":{"ha":305,"x_min":57,"x_max":248,"o":"m 57 0 l 57 949 l 248 949 l 248 0 l 57 0 z "},"Í":{"ha":305,"x_min":57,"x_max":313,"o":"m 91 1039 l 141 1245 l 313 1245 l 214 1039 l 91 1039 m 57 0 l 57 949 l 248 949 l 248 0 l 57 0 z "},"Î":{"ha":305,"x_min":4,"x_max":300,"o":"m 4 1039 l 106 1245 l 195 1245 l 300 1039 l 189 1039 l 151 1116 l 114 1039 l 4 1039 m 57 0 l 57 949 l 248 949 l 248 0 l 57 0 z "},"Ï":{"ha":305,"x_min":-65,"x_max":369,"o":"m -65 1141 q -12 1232 -65 1202 q 37 1244 11 1244 q 126 1191 98 1244 q 138 1141 138 1166 q 84 1051 138 1078 q 37 1039 61 1039 q -53 1093 -26 1039 q -65 1141 -65 1116 m 165 1141 q 218 1232 165 1202 q 267 1244 241 1244 q 357 1191 328 1244 q 369 1141 369 1168 q 315 1051 369 1078 q 267 1039 292 1039 q 178 1093 205 1039 q 165 1141 165 1116 m 57 0 l 57 949 l 248 949 l 248 0 l 57 0 z "},"İ":{"ha":305,"x_min":52,"x_max":255,"o":"m 52 1141 q 104 1232 52 1202 q 153 1244 127 1244 q 243 1191 214 1244 q 255 1141 255 1168 q 201 1051 255 1078 q 153 1039 178 1039 q 64 1093 91 1039 q 52 1141 52 1116 m 57 0 l 57 949 l 248 949 l 248 0 l 57 0 z "},"Ì":{"ha":305,"x_min":-8,"x_max":248,"o":"m -8 1245 l 164 1245 l 214 1039 l 91 1039 l -8 1245 m 57 0 l 57 949 l 248 949 l 248 0 l 57 0 z "},"Ī":{"ha":305,"x_min":-62,"x_max":366,"o":"m -62 1039 l -62 1150 l 366 1150 l 366 1039 l -62 1039 m 57 0 l 57 949 l 248 949 l 248 0 l 57 0 z "},"Į":{"ha":305,"x_min":57,"x_max":319,"o":"m 319 -267 q 104 -136 151 -267 q 91 -52 91 -96 l 216 -52 q 319 -144 217 -142 l 319 -267 m 57 0 l 57 949 l 248 949 l 248 0 l 57 0 z "},"J":{"ha":656,"x_min":20,"x_max":613,"o":"m 20 262 l 20 328 l 212 328 l 212 262 q 264 189 213 205 q 274 186 270 186 l 274 -7 q 123 52 199 -7 q 20 262 22 132 m 347 -7 l 347 186 q 399 209 372 186 q 423 262 422 231 l 423 949 l 613 949 l 613 262 q 479 34 613 111 q 347 -7 410 -7 z "},"K":{"ha":662,"x_min":57,"x_max":642,"o":"m 57 0 l 57 949 l 248 949 l 248 0 l 57 0 m 302 463 l 448 949 l 636 949 l 492 463 l 642 0 l 454 0 l 302 463 z "},"L":{"ha":587,"x_min":57,"x_max":567,"o":"m 57 0 l 57 949 l 248 949 l 248 190 l 567 190 l 567 0 l 57 0 z "},"Ĺ":{"ha":587,"x_min":57,"x_max":567,"o":"m 90 1039 l 140 1245 l 312 1245 l 213 1039 l 90 1039 m 57 0 l 57 949 l 248 949 l 248 190 l 567 190 l 567 0 l 57 0 z "},"Ľ":{"ha":587,"x_min":57,"x_max":594,"o":"m 372 750 l 422 956 l 594 956 l 544 750 l 372 750 m 57 0 l 57 949 l 248 949 l 248 190 l 567 190 l 567 0 l 57 0 z "},"Ł":{"ha":719,"x_min":35,"x_max":685,"o":"m 35 410 l 175 518 l 175 949 l 366 949 l 366 667 l 472 750 l 570 624 l 366 465 l 366 189 l 685 189 l 685 0 l 175 0 l 175 316 l 133 283 l 35 410 z "},"M":{"ha":944,"x_min":57,"x_max":887,"o":"m 57 0 l 57 602 l 69 602 l 248 172 l 248 0 l 57 0 m 57 825 l 57 949 l 206 949 l 465 321 l 609 646 l 623 646 l 623 205 l 532 0 l 400 0 l 57 825 m 696 0 l 696 949 l 887 949 l 887 0 l 696 0 z "},"N":{"ha":718,"x_min":57,"x_max":661,"o":"m 57 0 l 57 667 l 68 667 l 248 377 l 248 0 l 57 0 m 57 825 l 57 949 l 213 949 l 661 228 l 661 0 l 570 0 l 57 825 m 469 675 l 469 949 l 661 949 l 661 385 l 650 385 l 469 675 z "},"Ń":{"ha":718,"x_min":57,"x_max":661,"o":"m 297 1039 l 347 1245 l 519 1245 l 420 1039 l 297 1039 m 57 0 l 57 667 l 68 667 l 248 377 l 248 0 l 57 0 m 57 825 l 57 949 l 213 949 l 661 228 l 661 0 l 570 0 l 57 825 m 469 675 l 469 949 l 661 949 l 661 385 l 650 385 l 469 675 z "},"Ň":{"ha":718,"x_min":57,"x_max":661,"o":"m 212 1245 l 321 1245 l 358 1168 l 396 1245 l 507 1245 l 403 1039 l 313 1039 l 212 1245 m 57 0 l 57 667 l 68 667 l 248 377 l 248 0 l 57 0 m 57 825 l 57 949 l 213 949 l 661 228 l 661 0 l 570 0 l 57 825 m 469 675 l 469 949 l 661 949 l 661 385 l 650 385 l 469 675 z "},"Ñ":{"ha":718,"x_min":57,"x_max":661,"o":"m 168 1063 l 168 1202 q 263 1232 221 1232 q 359 1200 297 1232 q 441 1176 407 1176 q 549 1214 488 1177 l 549 1077 q 435 1039 487 1039 q 335 1070 399 1039 q 258 1093 289 1093 q 168 1063 216 1092 m 57 0 l 57 667 l 68 667 l 248 377 l 248 0 l 57 0 m 57 825 l 57 949 l 213 949 l 661 228 l 661 0 l 570 0 l 57 825 m 469 675 l 469 949 l 661 949 l 661 385 l 650 385 l 469 675 z "},"O":{"ha":711,"x_min":52,"x_max":659,"o":"m 52 264 l 52 711 q 113 857 52 783 q 319 956 194 955 l 319 765 q 245 703 263 764 q 243 689 243 693 l 243 264 q 304 189 243 209 q 317 186 313 186 l 317 -7 q 163 49 240 -7 q 52 264 53 130 m 392 -7 l 392 186 q 441 209 414 186 q 468 264 467 232 l 468 689 q 445 741 468 713 q 392 765 423 764 l 392 956 q 612 838 529 956 q 659 711 659 770 l 659 264 q 525 34 659 114 q 392 -7 454 -7 z "},"Œ":{"ha":982,"x_min":35,"x_max":947,"o":"m 35 271 l 35 704 q 96 850 35 776 q 302 949 178 948 l 302 758 q 229 696 247 757 q 227 682 227 686 l 227 271 q 288 195 227 216 q 301 193 297 193 l 301 0 q 146 56 224 0 q 35 271 37 137 m 376 0 l 376 193 l 453 193 l 453 758 l 376 758 l 376 949 l 947 949 l 947 760 l 644 760 l 644 567 l 819 567 l 819 376 l 644 376 l 644 191 l 947 191 l 947 0 l 376 0 z "},"Ó":{"ha":711,"x_min":52,"x_max":659,"o":"m 294 1039 l 345 1245 l 517 1245 l 418 1039 l 294 1039 m 52 264 l 52 711 q 113 857 52 783 q 319 956 194 955 l 319 765 q 245 703 263 764 q 243 689 243 693 l 243 264 q 304 189 243 209 q 317 186 313 186 l 317 -7 q 163 49 240 -7 q 52 264 53 130 m 392 -7 l 392 186 q 441 209 414 186 q 468 264 467 232 l 468 689 q 445 741 468 713 q 392 765 423 764 l 392 956 q 612 838 529 956 q 659 711 659 770 l 659 264 q 525 34 659 114 q 392 -7 454 -7 z "},"Ô":{"ha":711,"x_min":52,"x_max":659,"o":"m 208 1039 l 309 1245 l 399 1245 l 503 1039 l 392 1039 l 354 1116 l 317 1039 l 208 1039 m 52 264 l 52 711 q 113 857 52 783 q 319 956 194 955 l 319 765 q 245 703 263 764 q 243 689 243 693 l 243 264 q 304 189 243 209 q 317 186 313 186 l 317 -7 q 163 49 240 -7 q 52 264 53 130 m 392 -7 l 392 186 q 441 209 414 186 q 468 264 467 232 l 468 689 q 445 741 468 713 q 392 765 423 764 l 392 956 q 612 838 529 956 q 659 711 659 770 l 659 264 q 525 34 659 114 q 392 -7 454 -7 z "},"Ö":{"ha":711,"x_min":52,"x_max":659,"o":"m 138 1141 q 191 1232 138 1202 q 240 1244 214 1244 q 330 1191 301 1244 q 342 1141 342 1168 q 288 1051 342 1078 q 240 1039 264 1039 q 151 1093 178 1039 q 138 1141 138 1116 m 369 1141 q 422 1232 369 1202 q 471 1244 445 1244 q 560 1191 532 1244 q 572 1141 572 1168 q 518 1051 572 1078 q 471 1039 495 1039 q 381 1093 408 1039 q 369 1141 369 1116 m 52 264 l 52 711 q 113 857 52 783 q 319 956 194 955 l 319 765 q 245 703 263 764 q 243 689 243 693 l 243 264 q 304 189 243 209 q 317 186 313 186 l 317 -7 q 163 49 240 -7 q 52 264 53 130 m 392 -7 l 392 186 q 441 209 414 186 q 468 264 467 232 l 468 689 q 445 741 468 713 q 392 765 423 764 l 392 956 q 612 838 529 956 q 659 711 659 770 l 659 264 q 525 34 659 114 q 392 -7 454 -7 z "},"Ò":{"ha":711,"x_min":52,"x_max":659,"o":"m 184 1245 l 357 1245 l 407 1039 l 283 1039 l 184 1245 m 52 264 l 52 711 q 113 857 52 783 q 319 956 194 955 l 319 765 q 245 703 263 764 q 243 689 243 693 l 243 264 q 304 189 243 209 q 317 186 313 186 l 317 -7 q 163 49 240 -7 q 52 264 53 130 m 392 -7 l 392 186 q 441 209 414 186 q 468 264 467 232 l 468 689 q 445 741 468 713 q 392 765 423 764 l 392 956 q 612 838 529 956 q 659 711 659 770 l 659 264 q 525 34 659 114 q 392 -7 454 -7 z "},"Ő":{"ha":711,"x_min":52,"x_max":659,"o":"m 418 1039 l 468 1245 l 640 1245 l 541 1039 l 418 1039 m 201 1039 l 251 1245 l 423 1245 l 324 1039 l 201 1039 m 52 264 l 52 711 q 113 857 52 783 q 319 956 194 955 l 319 765 q 245 703 263 764 q 243 689 243 693 l 243 264 q 304 189 243 209 q 317 186 313 186 l 317 -7 q 163 49 240 -7 q 52 264 53 130 m 392 -7 l 392 186 q 441 209 414 186 q 468 264 467 232 l 468 689 q 445 741 468 713 q 392 765 423 764 l 392 956 q 612 838 529 956 q 659 711 659 770 l 659 264 q 525 34 659 114 q 392 -7 454 -7 z "},"Ō":{"ha":711,"x_min":52,"x_max":659,"o":"m 141 1039 l 141 1150 l 570 1150 l 570 1039 l 141 1039 m 52 264 l 52 711 q 113 857 52 783 q 319 956 194 955 l 319 765 q 245 703 263 764 q 243 689 243 693 l 243 264 q 304 189 243 209 q 317 186 313 186 l 317 -7 q 163 49 240 -7 q 52 264 53 130 m 392 -7 l 392 186 q 441 209 414 186 q 468 264 467 232 l 468 689 q 445 741 468 713 q 392 765 423 764 l 392 956 q 612 838 529 956 q 659 711 659 770 l 659 264 q 525 34 659 114 q 392 -7 454 -7 z "},"Ø":{"ha":898,"x_min":0,"x_max":898,"o":"m 0 178 l 146 309 l 146 711 q 208 857 146 783 q 414 956 289 955 l 414 765 q 340 701 354 764 q 338 681 338 690 l 338 483 l 563 685 q 515 760 563 743 q 487 765 503 765 l 487 956 q 708 836 627 956 q 716 823 713 829 l 792 892 l 898 773 l 754 643 l 754 264 q 620 34 754 114 q 487 -7 549 -7 l 487 186 q 536 209 509 186 q 563 264 562 232 l 563 471 l 338 267 q 397 190 338 212 q 412 186 407 186 l 412 -7 q 258 49 336 -7 q 183 127 212 83 l 106 58 l 0 178 z "},"Õ":{"ha":711,"x_min":52,"x_max":659,"o":"m 164 1039 l 164 1177 q 259 1207 217 1207 q 355 1176 293 1207 q 437 1152 403 1152 q 545 1190 484 1153 l 545 1053 q 431 1015 483 1015 q 331 1046 395 1015 q 254 1069 285 1069 q 164 1039 212 1067 m 52 264 l 52 711 q 113 857 52 783 q 319 956 194 955 l 319 765 q 245 703 263 764 q 243 689 243 693 l 243 264 q 304 189 243 209 q 317 186 313 186 l 317 -7 q 163 49 240 -7 q 52 264 53 130 m 392 -7 l 392 186 q 441 209 414 186 q 468 264 467 232 l 468 689 q 445 741 468 713 q 392 765 423 764 l 392 956 q 612 838 529 956 q 659 711 659 770 l 659 264 q 525 34 659 114 q 392 -7 454 -7 z "},"P":{"ha":650,"x_min":57,"x_max":629,"o":"m 57 0 l 57 949 l 248 949 l 248 0 l 57 0 m 321 433 l 321 620 l 366 620 q 434 671 425 620 q 435 689 435 680 q 366 761 427 755 l 321 761 l 321 949 l 372 949 q 629 694 625 940 q 525 460 629 513 q 372 433 467 431 q 321 433 368 433 z "},"Q":{"ha":713,"x_min":52,"x_max":659,"o":"m 52 264 l 52 711 q 113 857 52 783 q 319 956 194 955 l 319 765 q 245 703 263 764 q 243 689 243 693 l 243 264 q 304 189 243 209 q 317 186 313 186 l 317 -7 q 163 49 240 -7 q 52 264 53 130 m 392 -7 l 392 186 q 441 209 414 186 q 468 264 467 232 l 468 689 q 445 741 468 713 q 392 765 423 764 l 392 956 q 612 838 529 956 q 659 711 659 770 l 659 264 q 566 64 658 141 l 640 -43 l 488 -145 l 392 -7 z "},"R":{"ha":685,"x_min":57,"x_max":655,"o":"m 57 0 l 57 949 l 248 949 l 248 0 l 57 0 m 321 388 l 321 557 l 339 557 q 450 628 426 557 q 456 665 456 646 q 388 761 456 736 q 339 769 366 769 l 321 769 l 321 949 l 351 949 q 601 823 529 947 q 635 692 635 765 q 543 477 633 552 q 629 320 610 434 q 632 294 631 307 l 655 0 l 479 0 l 458 241 q 396 376 448 350 q 336 388 372 387 l 321 388 z "},"Ŕ":{"ha":685,"x_min":57,"x_max":655,"o":"m 251 1039 l 301 1245 l 473 1245 l 374 1039 l 251 1039 m 57 0 l 57 949 l 248 949 l 248 0 l 57 0 m 321 388 l 321 557 l 339 557 q 450 628 426 557 q 456 665 456 646 q 388 761 456 736 q 339 769 366 769 l 321 769 l 321 949 l 351 949 q 601 823 529 947 q 635 692 635 765 q 543 477 633 552 q 629 320 610 434 q 632 294 631 307 l 655 0 l 479 0 l 458 241 q 396 376 448 350 q 336 388 372 387 l 321 388 z "},"Ř":{"ha":685,"x_min":57,"x_max":655,"o":"m 142 1245 l 252 1245 l 289 1168 l 327 1245 l 438 1245 l 334 1039 l 244 1039 l 142 1245 m 57 0 l 57 949 l 248 949 l 248 0 l 57 0 m 321 388 l 321 557 l 339 557 q 450 628 426 557 q 456 665 456 646 q 388 761 456 736 q 339 769 366 769 l 321 769 l 321 949 l 351 949 q 601 823 529 947 q 635 692 635 765 q 543 477 633 552 q 629 320 610 434 q 632 294 631 307 l 655 0 l 479 0 l 458 241 q 396 376 448 350 q 336 388 372 387 l 321 388 z "},"S":{"ha":652,"x_min":27,"x_max":625,"o":"m 27 214 l 199 275 q 218 216 199 241 q 256 182 237 190 l 275 172 l 275 -4 q 79 96 160 -4 q 27 214 28 160 m 38 689 q 165 913 38 838 q 275 949 224 948 l 275 770 q 225 722 241 761 q 220 696 220 709 q 302 601 220 640 q 359 576 320 593 q 452 534 425 551 q 598 401 562 469 q 625 283 625 349 q 532 72 625 160 q 350 -4 452 -4 l 350 172 q 425 228 403 179 q 434 275 434 250 q 331 389 434 345 q 271 412 312 397 q 205 438 224 429 q 56 582 88 494 q 38 689 38 629 m 350 770 l 350 949 q 541 853 464 949 q 587 750 586 796 l 411 692 q 355 769 411 749 q 350 770 350 770 z "},"Ś":{"ha":652,"x_min":27,"x_max":625,"o":"m 251 1039 l 301 1245 l 473 1245 l 374 1039 l 251 1039 m 27 214 l 199 275 q 218 216 199 241 q 256 182 237 190 l 275 172 l 275 -4 q 79 96 160 -4 q 27 214 28 160 m 38 689 q 165 913 38 838 q 275 949 224 948 l 275 770 q 225 722 241 761 q 220 696 220 709 q 302 601 220 640 q 359 576 320 593 q 452 534 425 551 q 598 401 562 469 q 625 283 625 349 q 532 72 625 160 q 350 -4 452 -4 l 350 172 q 425 228 403 179 q 434 275 434 250 q 331 389 434 345 q 271 412 312 397 q 205 438 224 429 q 56 582 88 494 q 38 689 38 629 m 350 770 l 350 949 q 541 853 464 949 q 587 750 586 796 l 411 692 q 355 769 411 749 q 350 770 350 770 z "},"Š":{"ha":652,"x_min":18,"x_max":616,"o":"m 153 1245 l 263 1245 l 300 1168 l 338 1245 l 449 1245 l 345 1039 l 255 1039 l 153 1245 m 18 214 l 190 275 q 209 216 190 241 q 247 182 228 190 l 266 172 l 266 -4 q 69 96 151 -4 q 18 214 19 160 m 28 689 q 156 913 28 838 q 266 949 214 948 l 266 770 q 216 722 232 761 q 210 696 210 709 q 293 601 210 640 q 350 576 311 593 q 442 534 415 551 q 589 401 552 469 q 616 283 616 349 q 522 72 616 160 q 340 -4 442 -4 l 340 172 q 415 228 393 179 q 425 275 425 250 q 321 389 425 345 q 262 412 302 397 q 195 438 214 429 q 46 582 79 494 q 28 689 28 629 m 340 770 l 340 949 q 532 853 454 949 q 578 750 576 796 l 401 692 q 346 769 401 749 q 340 770 340 770 z "},"T":{"ha":628,"x_min":20,"x_max":608,"o":"m 20 762 l 20 949 l 608 949 l 608 762 l 410 762 l 410 0 l 218 0 l 218 762 l 20 762 z "},"Ť":{"ha":628,"x_min":20,"x_max":608,"o":"m 167 1245 l 277 1245 l 313 1168 l 351 1245 l 463 1245 l 358 1039 l 269 1039 l 167 1245 m 20 762 l 20 949 l 608 949 l 608 762 l 410 762 l 410 0 l 218 0 l 218 762 l 20 762 z "},"Þ":{"ha":643,"x_min":35,"x_max":608,"o":"m 35 0 l 35 949 l 227 949 l 227 0 l 35 0 m 300 282 l 300 471 l 345 471 q 412 522 403 471 q 414 540 414 530 q 345 612 406 606 l 300 612 l 300 800 q 587 669 533 800 q 608 545 608 618 q 488 313 608 368 q 300 282 419 282 z "},"U":{"ha":694,"x_min":43,"x_max":650,"o":"m 43 262 l 43 949 l 235 949 l 235 262 q 297 189 236 206 q 311 186 307 186 l 311 -7 q 153 49 232 -7 q 43 262 45 129 m 384 -7 l 384 186 q 435 209 408 186 q 460 262 458 231 l 460 949 l 650 949 l 650 262 q 514 33 650 109 q 384 -7 446 -7 z "},"Ú":{"ha":694,"x_min":43,"x_max":650,"o":"m 285 1039 l 335 1245 l 507 1245 l 408 1039 l 285 1039 m 43 262 l 43 949 l 235 949 l 235 262 q 297 189 236 206 q 311 186 307 186 l 311 -7 q 153 49 232 -7 q 43 262 45 129 m 384 -7 l 384 186 q 435 209 408 186 q 460 262 458 231 l 460 949 l 650 949 l 650 262 q 514 33 650 109 q 384 -7 446 -7 z "},"Û":{"ha":694,"x_min":43,"x_max":650,"o":"m 199 1039 l 301 1245 l 391 1245 l 495 1039 l 384 1039 l 346 1116 l 309 1039 l 199 1039 m 43 262 l 43 949 l 235 949 l 235 262 q 297 189 236 206 q 311 186 307 186 l 311 -7 q 153 49 232 -7 q 43 262 45 129 m 384 -7 l 384 186 q 435 209 408 186 q 460 262 458 231 l 460 949 l 650 949 l 650 262 q 514 33 650 109 q 384 -7 446 -7 z "},"Ü":{"ha":694,"x_min":43,"x_max":650,"o":"m 130 1141 q 183 1232 130 1202 q 232 1244 206 1244 q 321 1191 293 1244 q 334 1141 334 1168 q 279 1051 334 1078 q 232 1039 256 1039 q 142 1093 170 1039 q 130 1141 130 1116 m 361 1141 q 414 1232 361 1202 q 463 1244 437 1244 q 552 1191 524 1244 q 564 1141 564 1168 q 510 1051 564 1078 q 463 1039 487 1039 q 373 1093 400 1039 q 361 1141 361 1116 m 43 262 l 43 949 l 235 949 l 235 262 q 297 189 236 206 q 311 186 307 186 l 311 -7 q 153 49 232 -7 q 43 262 45 129 m 384 -7 l 384 186 q 435 209 408 186 q 460 262 458 231 l 460 949 l 650 949 l 650 262 q 514 33 650 109 q 384 -7 446 -7 z "},"Ù":{"ha":694,"x_min":43,"x_max":650,"o":"m 176 1245 l 349 1245 l 399 1039 l 275 1039 l 176 1245 m 43 262 l 43 949 l 235 949 l 235 262 q 297 189 236 206 q 311 186 307 186 l 311 -7 q 153 49 232 -7 q 43 262 45 129 m 384 -7 l 384 186 q 435 209 408 186 q 460 262 458 231 l 460 949 l 650 949 l 650 262 q 514 33 650 109 q 384 -7 446 -7 z "},"Ű":{"ha":694,"x_min":43,"x_max":650,"o":"m 410 1039 l 460 1245 l 632 1245 l 533 1039 l 410 1039 m 193 1039 l 243 1245 l 415 1245 l 316 1039 l 193 1039 m 43 262 l 43 949 l 235 949 l 235 262 q 297 189 236 206 q 311 186 307 186 l 311 -7 q 153 49 232 -7 q 43 262 45 129 m 384 -7 l 384 186 q 435 209 408 186 q 460 262 458 231 l 460 949 l 650 949 l 650 262 q 514 33 650 109 q 384 -7 446 -7 z "},"Ū":{"ha":694,"x_min":43,"x_max":650,"o":"m 133 1039 l 133 1150 l 562 1150 l 562 1039 l 133 1039 m 43 262 l 43 949 l 235 949 l 235 262 q 297 189 236 206 q 311 186 307 186 l 311 -7 q 153 49 232 -7 q 43 262 45 129 m 384 -7 l 384 186 q 435 209 408 186 q 460 262 458 231 l 460 949 l 650 949 l 650 262 q 514 33 650 109 q 384 -7 446 -7 z "},"Ų":{"ha":694,"x_min":43,"x_max":650,"o":"m 513 -270 q 298 -138 345 -270 q 285 -54 285 -99 l 410 -54 q 513 -146 411 -145 l 513 -270 m 43 262 l 43 949 l 235 949 l 235 262 q 297 189 236 206 q 311 186 307 186 l 311 -7 q 153 49 232 -7 q 43 262 45 129 m 384 -7 l 384 186 q 435 209 408 186 q 460 262 458 231 l 460 949 l 650 949 l 650 262 q 514 33 650 109 q 384 -7 446 -7 z "},"Ů":{"ha":694,"x_min":43,"x_max":650,"o":"m 217 1169 q 278 1279 217 1241 q 347 1299 309 1299 q 457 1238 419 1299 q 477 1169 477 1206 q 416 1059 477 1097 q 347 1039 385 1039 q 237 1100 275 1039 q 217 1169 217 1133 m 304 1169 q 334 1127 304 1137 q 347 1126 342 1126 q 389 1156 380 1126 q 391 1169 391 1164 q 361 1211 391 1202 q 347 1213 353 1213 q 305 1183 315 1213 q 304 1169 304 1175 m 43 262 l 43 949 l 235 949 l 235 262 q 297 189 236 206 q 311 186 307 186 l 311 -7 q 153 49 232 -7 q 43 262 45 129 m 384 -7 l 384 186 q 435 209 408 186 q 460 262 458 231 l 460 949 l 650 949 l 650 262 q 514 33 650 109 q 384 -7 446 -7 z "},"V":{"ha":640,"x_min":11,"x_max":629,"o":"m 11 949 l 206 949 l 422 214 l 350 0 l 286 0 l 11 949 m 359 697 l 434 949 l 629 949 q 463 393 628 945 l 449 393 l 359 697 z "},"W":{"ha":1074,"x_min":14,"x_max":1061,"o":"m 14 949 l 289 0 l 353 0 l 425 214 l 209 949 l 14 949 m 362 697 l 452 393 l 465 393 q 494 487 475 425 q 533 618 519 575 l 712 0 l 776 0 l 846 214 l 632 949 l 437 949 l 362 697 m 791 697 l 880 393 l 894 393 l 1061 949 l 865 949 l 791 697 z "},"X":{"ha":600,"x_min":20,"x_max":579,"o":"m 20 0 l 205 490 l 37 949 l 222 949 l 300 743 l 377 949 l 563 949 l 395 490 l 579 0 l 382 0 l 300 227 l 217 0 l 20 0 z "},"Y":{"ha":612,"x_min":16,"x_max":595,"o":"m 16 949 l 216 949 l 392 343 l 392 0 l 194 0 l 194 342 l 16 949 m 346 766 l 399 949 l 595 949 l 448 449 l 435 449 l 346 766 z "},"Ý":{"ha":612,"x_min":16,"x_max":595,"o":"m 244 1039 l 294 1245 l 467 1245 l 368 1039 l 244 1039 m 16 949 l 216 949 l 392 343 l 392 0 l 194 0 l 194 342 l 16 949 m 346 766 l 399 949 l 595 949 l 448 449 l 435 449 l 346 766 z "},"Ÿ":{"ha":612,"x_min":16,"x_max":595,"o":"m 90 1141 q 142 1232 90 1202 q 191 1244 164 1244 q 281 1191 252 1244 q 293 1141 293 1168 q 239 1051 293 1078 q 191 1039 216 1039 q 102 1093 129 1039 q 90 1141 90 1116 m 320 1141 q 373 1232 320 1202 q 422 1244 396 1244 q 511 1191 483 1244 q 524 1141 524 1168 q 469 1051 524 1078 q 422 1039 446 1039 q 332 1093 359 1039 q 320 1141 320 1116 m 16 949 l 216 949 l 392 343 l 392 0 l 194 0 l 194 342 l 16 949 m 346 766 l 399 949 l 595 949 l 448 449 l 435 449 l 346 766 z "},"Z":{"ha":578,"x_min":41,"x_max":537,"o":"m 41 0 l 41 191 l 326 760 l 41 760 l 41 949 l 537 949 l 537 764 l 252 195 l 537 195 l 537 0 l 41 0 z "},"Ź":{"ha":578,"x_min":41,"x_max":537,"o":"m 228 1039 l 278 1245 l 450 1245 l 351 1039 l 228 1039 m 41 0 l 41 191 l 326 760 l 41 760 l 41 949 l 537 949 l 537 764 l 252 195 l 537 195 l 537 0 l 41 0 z "},"Ž":{"ha":578,"x_min":41,"x_max":537,"o":"m 141 1245 l 251 1245 l 288 1168 l 326 1245 l 437 1245 l 332 1039 l 243 1039 l 141 1245 m 41 0 l 41 191 l 326 760 l 41 760 l 41 949 l 537 949 l 537 764 l 252 195 l 537 195 l 537 0 l 41 0 z "},"Ż":{"ha":578,"x_min":41,"x_max":537,"o":"m 187 1141 q 240 1232 187 1202 q 289 1244 263 1244 q 378 1191 350 1244 q 391 1141 391 1168 q 336 1051 391 1078 q 289 1039 313 1039 q 199 1093 227 1039 q 187 1141 187 1116 m 41 0 l 41 191 l 326 760 l 41 760 l 41 949 l 537 949 l 537 764 l 252 195 l 537 195 l 537 0 l 41 0 z "},"a":{"ha":640,"x_min":34,"x_max":606,"o":"m 34 179 q 109 46 34 100 q 263 0 172 0 l 263 167 q 186 199 194 167 q 184 216 184 208 l 184 235 q 202 266 186 258 q 252 281 209 270 q 395 332 358 311 l 395 221 q 357 170 395 180 q 336 167 347 167 l 336 0 q 473 43 420 1 q 606 0 524 0 l 606 168 q 568 212 570 171 l 568 566 q 506 704 568 640 q 335 773 437 773 l 335 606 q 395 553 393 602 l 395 522 q 250 435 395 484 q 107 382 125 392 q 34 248 35 335 l 34 179 m 43 579 l 201 519 q 264 606 202 605 l 264 773 q 100 705 171 773 q 43 579 45 648 z "},"á":{"ha":640,"x_min":34,"x_max":606,"o":"m 237 857 l 288 1063 l 460 1063 l 361 857 l 237 857 m 34 179 q 109 46 34 100 q 263 0 172 0 l 263 167 q 186 199 194 167 q 184 216 184 208 l 184 235 q 202 266 186 258 q 252 281 209 270 q 395 332 358 311 l 395 221 q 357 170 395 180 q 336 167 347 167 l 336 0 q 473 43 420 1 q 606 0 524 0 l 606 168 q 568 212 570 171 l 568 566 q 506 704 568 640 q 335 773 437 773 l 335 606 q 395 553 393 602 l 395 522 q 250 435 395 484 q 107 382 125 392 q 34 248 35 335 l 34 179 m 43 579 l 201 519 q 264 606 202 605 l 264 773 q 100 705 171 773 q 43 579 45 648 z "},"ă":{"ha":640,"x_min":34,"x_max":606,"o":"m 170 987 l 256 987 q 286 945 256 955 q 300 944 294 944 q 342 974 332 944 q 343 987 343 982 l 430 987 q 369 878 430 916 q 300 857 338 857 q 190 918 228 857 q 170 987 170 951 m 34 179 q 109 46 34 100 q 263 0 172 0 l 263 167 q 186 199 194 167 q 184 216 184 208 l 184 235 q 202 266 186 258 q 252 281 209 270 q 395 332 358 311 l 395 221 q 357 170 395 180 q 336 167 347 167 l 336 0 q 473 43 420 1 q 606 0 524 0 l 606 168 q 568 212 570 171 l 568 566 q 506 704 568 640 q 335 773 437 773 l 335 606 q 395 553 393 602 l 395 522 q 250 435 395 484 q 107 382 125 392 q 34 248 35 335 l 34 179 m 43 579 l 201 519 q 264 606 202 605 l 264 773 q 100 705 171 773 q 43 579 45 648 z "},"â":{"ha":640,"x_min":34,"x_max":606,"o":"m 152 857 l 254 1063 l 343 1063 l 448 857 l 336 857 l 298 935 l 262 857 l 152 857 m 34 179 q 109 46 34 100 q 263 0 172 0 l 263 167 q 186 199 194 167 q 184 216 184 208 l 184 235 q 202 266 186 258 q 252 281 209 270 q 395 332 358 311 l 395 221 q 357 170 395 180 q 336 167 347 167 l 336 0 q 473 43 420 1 q 606 0 524 0 l 606 168 q 568 212 570 171 l 568 566 q 506 704 568 640 q 335 773 437 773 l 335 606 q 395 553 393 602 l 395 522 q 250 435 395 484 q 107 382 125 392 q 34 248 35 335 l 34 179 m 43 579 l 201 519 q 264 606 202 605 l 264 773 q 100 705 171 773 q 43 579 45 648 z "},"´":{"ha":536,"x_min":156,"x_max":378,"o":"m 156 821 l 206 1027 l 378 1027 l 279 821 l 156 821 z "},"ä":{"ha":640,"x_min":34,"x_max":606,"o":"m 83 959 q 136 1050 83 1020 q 184 1062 159 1062 q 274 1009 245 1062 q 286 959 286 986 q 232 869 286 897 q 184 857 209 857 q 95 911 122 857 q 83 959 83 935 m 313 959 q 366 1050 313 1020 q 415 1062 389 1062 q 505 1009 476 1062 q 517 959 517 986 q 463 869 517 897 q 415 857 439 857 q 326 911 353 857 q 313 959 313 935 m 34 179 q 109 46 34 100 q 263 0 172 0 l 263 167 q 186 199 194 167 q 184 216 184 208 l 184 235 q 202 266 186 258 q 252 281 209 270 q 395 332 358 311 l 395 221 q 357 170 395 180 q 336 167 347 167 l 336 0 q 473 43 420 1 q 606 0 524 0 l 606 168 q 568 212 570 171 l 568 566 q 506 704 568 640 q 335 773 437 773 l 335 606 q 395 553 393 602 l 395 522 q 250 435 395 484 q 107 382 125 392 q 34 248 35 335 l 34 179 m 43 579 l 201 519 q 264 606 202 605 l 264 773 q 100 705 171 773 q 43 579 45 648 z "},"æ":{"ha":903,"x_min":35,"x_max":868,"o":"m 35 149 l 35 244 q 152 363 35 316 q 228 391 176 373 q 354 450 334 426 q 363 476 363 463 l 363 506 q 319 552 363 538 q 286 557 302 557 q 195 511 220 557 q 187 473 187 494 l 58 509 q 144 662 58 602 q 281 704 206 704 q 446 655 381 703 q 582 700 506 700 l 582 544 q 524 509 538 544 q 521 492 521 500 l 521 439 l 712 439 l 712 487 q 667 541 712 529 q 648 544 658 544 l 648 700 q 808 633 736 700 q 867 513 865 578 l 867 282 l 521 282 l 521 216 q 579 151 521 164 q 610 146 594 146 q 723 186 700 146 q 734 213 730 198 l 868 163 q 707 11 838 45 q 616 0 663 0 q 435 54 495 1 q 311 1 395 1 l 311 153 q 362 195 351 153 q 363 202 363 199 l 363 308 q 248 270 343 296 q 172 220 174 247 l 172 202 q 217 155 172 160 q 244 153 229 153 l 244 1 q 58 79 114 1 q 35 149 35 111 z "},"à":{"ha":640,"x_min":34,"x_max":606,"o":"m 138 1063 l 311 1063 l 361 857 l 237 857 l 138 1063 m 34 179 q 109 46 34 100 q 263 0 172 0 l 263 167 q 186 199 194 167 q 184 216 184 208 l 184 235 q 202 266 186 258 q 252 281 209 270 q 395 332 358 311 l 395 221 q 357 170 395 180 q 336 167 347 167 l 336 0 q 473 43 420 1 q 606 0 524 0 l 606 168 q 568 212 570 171 l 568 566 q 506 704 568 640 q 335 773 437 773 l 335 606 q 395 553 393 602 l 395 522 q 250 435 395 484 q 107 382 125 392 q 34 248 35 335 l 34 179 m 43 579 l 201 519 q 264 606 202 605 l 264 773 q 100 705 171 773 q 43 579 45 648 z "},"ā":{"ha":640,"x_min":34,"x_max":606,"o":"m 85 857 l 85 968 l 514 968 l 514 857 l 85 857 m 34 179 q 109 46 34 100 q 263 0 172 0 l 263 167 q 186 199 194 167 q 184 216 184 208 l 184 235 q 202 266 186 258 q 252 281 209 270 q 395 332 358 311 l 395 221 q 357 170 395 180 q 336 167 347 167 l 336 0 q 473 43 420 1 q 606 0 524 0 l 606 168 q 568 212 570 171 l 568 566 q 506 704 568 640 q 335 773 437 773 l 335 606 q 395 553 393 602 l 395 522 q 250 435 395 484 q 107 382 125 392 q 34 248 35 335 l 34 179 m 43 579 l 201 519 q 264 606 202 605 l 264 773 q 100 705 171 773 q 43 579 45 648 z "},"&":{"ha":892,"x_min":41,"x_max":852,"o":"m 389 209 q 328 187 361 187 q 244 237 273 187 q 232 283 232 259 q 267 355 233 326 l 141 503 q 41 289 42 415 q 141 71 41 157 q 331 0 224 0 q 513 64 431 1 l 389 209 m 465 713 q 426 780 464 764 l 426 958 q 600 846 538 943 q 635 758 625 804 l 465 713 m 351 780 q 316 741 326 774 q 313 723 313 731 q 346 648 315 690 l 562 389 q 594 468 589 426 l 788 468 q 696 236 772 340 l 852 50 l 661 0 l 212 533 q 138 700 144 620 q 138 722 138 711 q 231 907 138 837 q 351 958 283 948 l 351 780 z "},"ං":{"ha":636,"x_min":41,"x_max":595,"o":"m 351 61 l 351 237 q 411 309 406 237 q 412 336 412 321 l 412 422 q 373 518 412 505 q 351 521 362 521 l 351 697 l 380 697 q 586 514 549 697 q 595 422 595 471 l 595 336 q 488 88 595 151 q 380 61 442 61 l 351 61 m 255 61 q 49 244 87 61 q 41 336 41 288 l 41 422 q 146 670 41 608 q 255 697 193 697 l 283 697 l 283 521 q 225 448 229 521 q 224 422 224 435 l 224 336 q 263 240 224 254 q 283 237 273 237 l 283 61 l 255 61 z "},"ą":{"ha":640,"x_min":34,"x_max":647,"o":"m 647 -271 q 433 -140 479 -271 q 419 -56 419 -100 l 544 -56 q 647 -148 545 -146 l 647 -271 m 34 179 q 109 46 34 100 q 263 0 172 0 l 263 167 q 186 199 194 167 q 184 216 184 208 l 184 235 q 202 266 186 258 q 252 281 209 270 q 395 332 358 311 l 395 221 q 357 170 395 180 q 336 167 347 167 l 336 0 q 473 43 420 1 q 606 0 524 0 l 606 168 q 568 212 570 171 l 568 566 q 506 704 568 640 q 335 773 437 773 l 335 606 q 395 553 393 602 l 395 522 q 250 435 395 484 q 107 382 125 392 q 34 248 35 335 l 34 179 m 43 579 l 201 519 q 264 606 202 605 l 264 773 q 100 705 171 773 q 43 579 45 648 z "},"≈":{"ha":770,"x_min":68,"x_max":703,"o":"m 68 222 l 68 403 q 221 450 151 450 q 369 403 279 450 q 509 351 457 355 q 525 351 518 351 q 703 412 604 353 l 703 235 q 517 172 600 172 q 359 222 453 172 q 213 271 262 269 q 68 222 142 270 m 68 545 l 68 726 q 221 773 151 773 q 369 726 279 773 q 509 674 457 678 q 525 674 518 674 q 703 735 604 675 l 703 557 q 517 495 600 495 q 359 545 453 495 q 213 594 262 591 q 68 545 142 593 z "},"å":{"ha":640,"x_min":34,"x_max":606,"o":"m 170 987 q 231 1097 170 1059 q 300 1118 262 1118 q 410 1057 372 1118 q 430 987 430 1024 q 369 878 430 916 q 300 857 338 857 q 190 918 228 857 q 170 987 170 951 m 256 987 q 286 945 256 955 q 300 944 294 944 q 342 974 332 944 q 343 987 343 982 q 313 1029 343 1020 q 300 1031 305 1031 q 258 1001 267 1031 q 256 987 256 993 m 34 179 q 109 46 34 100 q 263 0 172 0 l 263 167 q 186 199 194 167 q 184 216 184 208 l 184 235 q 202 266 186 258 q 252 281 209 270 q 395 332 358 311 l 395 221 q 357 170 395 180 q 336 167 347 167 l 336 0 q 473 43 420 1 q 606 0 524 0 l 606 168 q 568 212 570 171 l 568 566 q 506 704 568 640 q 335 773 437 773 l 335 606 q 395 553 393 602 l 395 522 q 250 435 395 484 q 107 382 125 392 q 34 248 35 335 l 34 179 m 43 579 l 201 519 q 264 606 202 605 l 264 773 q 100 705 171 773 q 43 579 45 648 z "},"^":{"ha":686,"x_min":81,"x_max":605,"o":"m 81 624 l 283 1025 l 403 1025 l 605 624 l 438 624 l 342 818 l 247 624 l 81 624 z "},"~":{"ha":852,"x_min":109,"x_max":743,"o":"m 109 369 l 109 549 q 262 597 191 597 q 410 549 320 597 q 549 498 498 502 q 566 498 559 498 q 743 559 644 499 l 743 381 q 557 319 640 319 q 400 369 494 319 q 254 418 302 415 q 109 369 183 416 z "},"*":{"ha":439,"x_min":20,"x_max":419,"o":"m 20 937 l 77 1015 l 170 955 l 170 1065 l 266 1065 l 266 952 l 362 1015 l 419 937 l 300 857 l 418 776 l 362 699 l 266 766 l 266 648 l 170 648 l 170 765 l 77 701 l 22 779 l 140 859 l 20 937 z "},"@":{"ha":1089,"x_min":22,"x_max":1066,"o":"m 22 419 q 171 796 22 640 q 579 970 330 959 q 608 970 594 970 q 920 867 788 970 q 1066 559 1065 749 q 909 213 1066 317 q 722 157 825 157 q 623 203 655 157 q 614 218 617 212 q 467 157 574 159 q 320 244 377 157 q 278 392 278 309 q 401 650 278 557 q 555 704 476 704 q 686 652 639 704 q 692 647 689 650 l 703 684 l 817 684 l 749 418 q 739 361 739 382 q 764 326 742 327 q 859 384 817 326 q 903 559 903 450 q 787 762 903 685 q 612 817 705 817 q 311 704 435 817 q 184 423 186 589 q 335 96 184 202 q 562 30 431 30 q 905 140 749 31 l 972 16 q 708 -104 883 -71 q 574 -118 640 -118 q 160 38 311 -118 q 22 419 22 183 z "},"ã":{"ha":640,"x_min":34,"x_max":606,"o":"m 109 882 l 109 1020 q 203 1050 161 1050 q 300 1019 237 1050 q 381 994 347 994 q 490 1032 429 996 l 490 895 q 376 857 427 857 q 275 888 339 857 q 198 911 229 911 q 109 882 156 910 m 34 179 q 109 46 34 100 q 263 0 172 0 l 263 167 q 186 199 194 167 q 184 216 184 208 l 184 235 q 202 266 186 258 q 252 281 209 270 q 395 332 358 311 l 395 221 q 357 170 395 180 q 336 167 347 167 l 336 0 q 473 43 420 1 q 606 0 524 0 l 606 168 q 568 212 570 171 l 568 566 q 506 704 568 640 q 335 773 437 773 l 335 606 q 395 553 393 602 l 395 522 q 250 435 395 484 q 107 382 125 392 q 34 248 35 335 l 34 179 m 43 579 l 201 519 q 264 606 202 605 l 264 773 q 100 705 171 773 q 43 579 45 648 z "},"b":{"ha":632,"x_min":57,"x_max":591,"o":"m 57 0 l 57 971 l 244 971 l 244 0 l 57 0 m 316 0 l 316 176 l 365 176 q 380 178 373 176 q 393 183 388 180 q 403 190 399 186 q 409 198 407 194 q 412 205 411 202 q 415 212 414 209 l 415 213 l 415 560 q 395 589 415 576 q 366 597 382 595 l 316 597 l 316 773 l 365 773 q 556 666 487 773 q 591 566 590 613 l 591 210 q 538 84 591 149 q 365 0 469 1 l 316 0 z "},"\\":{"ha":522,"x_min":57,"x_max":465,"o":"m 57 971 l 228 971 l 465 -31 l 293 -31 l 57 971 z "},"|":{"ha":278,"x_min":68,"x_max":210,"o":"m 68 -182 l 68 1023 l 210 1023 l 210 -182 l 68 -182 z "},"{":{"ha":396,"x_min":20,"x_max":369,"o":"m 20 472 q 91 511 79 496 q 104 553 103 528 l 104 684 q 216 971 104 914 q 369 997 267 997 l 369 861 q 289 814 307 861 q 277 636 278 777 l 277 519 q 217 472 274 487 q 277 412 275 452 l 277 281 q 308 102 277 133 q 369 83 328 83 l 369 -52 q 214 -33 256 -50 q 106 206 117 11 q 104 260 104 232 l 104 393 q 62 450 104 427 q 42 461 57 454 q 20 472 27 468 z "},"}":{"ha":396,"x_min":27,"x_max":376,"o":"m 27 -52 l 27 83 q 103 125 85 83 q 119 282 119 167 l 119 412 q 179 472 122 453 q 119 521 121 487 l 119 636 q 106 817 118 783 q 27 861 85 861 l 27 997 q 214 948 159 997 q 292 684 292 878 l 292 553 q 335 490 293 510 q 376 472 343 486 q 309 435 316 441 q 292 393 292 418 l 292 260 q 184 -27 292 27 q 27 -52 136 -52 z "},"[":{"ha":350,"x_min":68,"x_max":331,"o":"m 68 -49 l 68 1002 l 331 1002 l 331 853 l 248 853 l 244 100 l 331 100 l 331 -49 l 68 -49 z "},"]":{"ha":340,"x_min":19,"x_max":282,"o":"m 19 -49 l 19 100 l 106 100 l 102 853 l 19 853 l 19 1002 l 282 1002 l 282 -49 l 19 -49 z "},"˘":{"ha":331,"x_min":35,"x_max":296,"o":"m 35 713 l 122 713 q 152 671 122 681 q 165 670 160 670 q 208 700 198 670 q 209 713 209 708 l 296 713 q 235 604 296 642 q 165 583 202 583 q 56 644 94 583 q 35 713 35 677 z "},"¦":{"ha":290,"x_min":57,"x_max":222,"o":"m 57 -190 l 57 294 l 222 294 l 222 -190 l 57 -190 m 57 552 l 57 1036 l 222 1036 l 222 552 l 57 552 z "},"•":{"ha":477,"x_min":35,"x_max":442,"o":"m 35 467 q 115 632 35 570 q 239 673 171 673 q 401 590 342 673 q 442 467 442 536 q 361 304 442 363 q 239 263 308 263 q 76 345 136 263 q 35 467 35 399 z "},"c":{"ha":618,"x_min":52,"x_max":593,"o":"m 52 210 l 52 566 q 111 699 53 636 q 292 773 182 773 l 292 600 q 229 563 235 595 l 229 210 q 277 174 229 178 q 293 172 285 172 l 293 0 q 81 113 149 0 q 52 210 52 163 m 354 598 l 354 773 q 528 690 461 773 q 575 559 575 632 l 410 495 l 410 540 q 354 598 407 597 m 354 -1 l 354 174 q 422 205 412 174 q 426 233 426 217 l 426 278 l 591 214 q 507 53 593 122 q 354 -1 437 -4 z "},"ć":{"ha":618,"x_min":52,"x_max":593,"o":"m 262 853 l 312 1059 l 484 1059 l 385 853 l 262 853 m 52 210 l 52 566 q 111 699 53 636 q 292 773 182 773 l 292 600 q 229 563 235 595 l 229 210 q 277 174 229 178 q 293 172 285 172 l 293 0 q 81 113 149 0 q 52 210 52 163 m 354 598 l 354 773 q 528 690 461 773 q 575 559 575 632 l 410 495 l 410 540 q 354 598 407 597 m 354 -1 l 354 174 q 422 205 412 174 q 426 233 426 217 l 426 278 l 591 214 q 507 53 593 122 q 354 -1 437 -4 z "},"ˇ":{"ha":366,"x_min":35,"x_max":331,"o":"m 35 903 l 145 903 l 182 826 l 220 903 l 331 903 l 227 697 l 137 697 l 35 903 z "},"č":{"ha":618,"x_min":52,"x_max":593,"o":"m 175 1059 l 285 1059 l 321 982 l 359 1059 l 471 1059 l 366 853 l 277 853 l 175 1059 m 52 210 l 52 566 q 111 699 53 636 q 292 773 182 773 l 292 600 q 229 563 235 595 l 229 210 q 277 174 229 178 q 293 172 285 172 l 293 0 q 81 113 149 0 q 52 210 52 163 m 354 598 l 354 773 q 528 690 461 773 q 575 559 575 632 l 410 495 l 410 540 q 354 598 407 597 m 354 -1 l 354 174 q 422 205 412 174 q 426 233 426 217 l 426 278 l 591 214 q 507 53 593 122 q 354 -1 437 -4 z "},"ç":{"ha":618,"x_min":52,"x_max":593,"o":"m 159 -270 l 159 -146 q 262 -54 260 -144 l 387 -54 q 290 -239 387 -183 q 159 -270 236 -270 m 52 210 l 52 566 q 111 699 53 636 q 292 773 182 773 l 292 600 q 229 563 235 595 l 229 210 q 277 174 229 178 q 293 172 285 172 l 293 0 q 81 113 149 0 q 52 210 52 163 m 354 598 l 354 773 q 528 690 461 773 q 575 559 575 632 l 410 495 l 410 540 q 354 598 407 597 m 354 -1 l 354 174 q 422 205 412 174 q 426 233 426 217 l 426 278 l 591 214 q 507 53 593 122 q 354 -1 437 -4 z "},"¸":{"ha":578,"x_min":167,"x_max":395,"o":"m 167 -49 l 167 75 q 270 167 269 77 l 395 167 q 298 -18 395 38 q 167 -49 244 -49 z "},"¢":{"ha":618,"x_min":52,"x_max":591,"o":"m 354 898 l 354 595 q 408 555 400 595 q 410 541 410 548 l 410 492 l 575 555 q 488 724 575 659 q 423 760 457 747 l 423 898 l 354 898 m 224 898 l 224 762 q 72 636 121 735 q 52 563 53 595 l 52 210 q 109 75 52 138 q 224 8 156 24 l 224 -127 l 292 -127 l 292 174 q 231 213 243 175 q 229 224 229 220 l 229 543 q 292 597 232 595 l 292 898 l 224 898 m 354 -127 l 423 -127 l 423 9 q 568 125 521 39 q 591 214 591 168 l 426 278 l 426 233 q 354 174 425 175 l 354 -127 z "},"ˆ":{"ha":366,"x_min":35,"x_max":331,"o":"m 35 697 l 137 903 l 227 903 l 331 697 l 220 697 l 182 774 l 145 697 l 35 697 z "},":":{"ha":339,"x_min":68,"x_max":271,"o":"m 68 190 q 121 281 68 251 q 170 293 144 293 q 259 240 231 293 q 271 190 271 217 q 217 100 271 127 q 170 88 195 88 q 80 142 107 88 q 68 190 68 165 m 68 583 q 121 674 68 644 q 170 686 144 686 q 259 633 231 686 q 271 583 271 610 q 217 494 271 521 q 170 481 194 481 q 80 536 107 481 q 68 583 68 559 z "},",":{"ha":359,"x_min":69,"x_max":292,"o":"m 69 -31 l 119 175 l 292 175 l 241 -31 l 69 -31 z "},"©":{"ha":1118,"x_min":47,"x_max":1077,"o":"m 47 460 q 221 852 47 697 q 502 982 349 966 q 538 985 521 985 l 538 863 q 297 760 406 861 q 168 460 170 637 q 286 175 168 294 q 538 60 393 68 l 538 -66 q 227 62 366 -61 q 49 419 64 203 q 47 460 47 439 m 369 313 l 369 606 q 415 715 369 665 q 538 768 464 768 l 538 646 q 492 610 502 646 q 491 606 491 608 l 491 313 q 510 283 491 296 q 538 275 522 275 l 538 152 q 387 247 433 152 q 369 313 369 282 m 586 -66 l 586 60 q 848 183 738 66 q 956 450 956 300 q 827 760 956 636 q 586 863 719 861 l 586 985 q 872 878 736 983 q 1073 517 1046 742 q 1077 444 1077 480 q 911 75 1072 224 q 604 -65 776 -53 q 586 -66 594 -66 m 586 152 l 586 273 q 625 309 616 273 q 627 328 627 319 l 627 358 l 746 315 q 680 189 746 241 q 586 152 635 152 m 586 646 l 586 768 q 709 703 656 768 q 746 605 746 656 l 627 560 l 627 586 q 594 644 627 636 q 586 646 589 646 z "},"¤":{"ha":876,"x_min":54,"x_max":808,"o":"m 56 258 l 152 148 l 254 237 q 407 180 315 180 l 407 340 q 347 387 349 342 l 347 600 q 407 647 350 646 l 407 807 q 255 753 313 806 l 152 844 l 54 732 l 184 618 l 184 373 l 56 258 m 463 180 q 610 236 553 182 l 711 148 l 807 258 l 678 373 l 678 617 l 808 732 l 711 844 l 609 753 q 463 807 549 807 l 463 647 q 519 598 518 646 l 519 387 q 463 339 507 345 l 463 180 z "},"d":{"ha":625,"x_min":41,"x_max":570,"o":"m 41 210 l 41 563 q 96 690 42 627 q 264 769 164 768 l 309 769 l 309 594 l 264 594 q 217 556 225 590 l 217 213 q 236 184 217 198 q 267 176 250 176 l 309 176 l 309 0 l 267 0 q 75 110 144 0 q 41 210 41 164 m 381 0 l 381 971 l 570 971 l 568 0 l 381 0 z "},"†":{"ha":614,"x_min":35,"x_max":579,"o":"m 35 610 l 35 783 l 212 783 l 212 1036 l 403 1036 l 403 783 l 579 783 l 579 610 l 403 610 l 403 -76 l 212 -76 l 212 610 l 35 610 z "},"‡":{"ha":614,"x_min":35,"x_max":579,"o":"m 35 178 l 35 350 l 212 350 l 212 610 l 35 610 l 35 783 l 212 783 l 212 1036 l 403 1036 l 403 783 l 579 783 l 579 610 l 403 610 l 403 350 l 579 350 l 579 178 l 403 178 l 403 -76 l 212 -76 l 212 178 l 35 178 z "},"ď":{"ha":625,"x_min":41,"x_max":916,"o":"m 693 823 l 743 1029 l 916 1029 l 865 823 l 693 823 m 41 210 l 41 563 q 96 690 42 627 q 264 769 164 768 l 309 769 l 309 594 l 264 594 q 217 556 225 590 l 217 213 q 236 184 217 198 q 267 176 250 176 l 309 176 l 309 0 l 267 0 q 75 110 144 0 q 41 210 41 164 m 381 0 l 381 971 l 570 971 l 568 0 l 381 0 z "},"đ":{"ha":562,"x_min":41,"x_max":608,"o":"m 41 191 l 41 511 q 95 632 42 572 q 244 700 156 699 l 285 700 l 285 540 l 244 540 q 232 538 237 540 q 222 534 227 537 q 214 529 218 532 q 208 524 210 526 q 205 517 206 521 q 203 512 203 514 q 201 507 202 510 l 201 506 l 201 194 q 218 168 201 180 q 247 160 232 160 l 285 160 l 285 0 l 247 0 q 71 102 133 0 q 41 191 41 151 m 236 773 l 236 903 l 350 903 l 350 971 l 521 971 l 521 903 l 608 903 l 608 773 l 521 773 l 521 0 l 350 0 l 350 773 l 236 773 z "},"°":{"ha":408,"x_min":47,"x_max":361,"o":"m 47 791 q 117 921 47 873 q 203 947 157 947 q 334 879 286 947 q 361 791 361 838 q 292 662 361 709 q 203 635 251 635 q 76 703 122 635 q 47 791 47 743 m 152 791 q 186 742 152 754 q 203 739 195 739 q 254 774 241 739 q 256 791 256 783 q 221 841 256 829 q 203 844 213 844 q 156 810 168 844 q 152 791 152 800 z "},"¨":{"ha":583,"x_min":75,"x_max":509,"o":"m 75 920 q 127 1010 75 981 q 176 1023 151 1023 q 266 970 237 1023 q 278 920 278 945 q 224 830 278 857 q 176 818 201 818 q 87 872 114 818 q 75 920 75 895 m 305 920 q 358 1010 305 981 q 407 1023 381 1023 q 496 970 468 1023 q 509 920 509 945 q 454 830 509 857 q 407 818 431 818 q 317 872 345 818 q 305 920 305 895 z "},"÷":{"ha":882,"x_min":92,"x_max":703,"o":"m 92 309 l 92 481 l 703 481 l 703 309 l 92 309 m 307 658 q 359 749 307 719 q 408 761 382 761 q 498 708 469 761 q 510 658 510 685 q 456 568 510 595 q 408 556 433 556 q 319 610 346 556 q 307 658 307 633 m 307 179 q 359 270 307 240 q 408 282 382 282 q 498 229 469 282 q 510 179 510 206 q 456 90 510 117 q 408 77 434 77 q 319 132 346 77 q 307 179 307 155 z "},"$":{"ha":652,"x_min":27,"x_max":625,"o":"m 27 214 l 199 275 q 220 216 201 241 q 258 182 239 190 l 275 172 l 275 -64 l 179 -64 l 179 18 q 47 146 91 58 q 27 214 28 184 m 38 689 q 174 918 38 842 q 179 921 176 920 l 179 1017 l 275 1017 l 275 770 q 225 722 241 761 q 220 696 220 709 q 275 616 221 650 l 275 410 q 205 438 231 426 q 56 582 88 494 q 38 689 38 629 m 350 -64 l 350 172 q 425 228 403 179 q 434 275 434 250 q 350 380 433 339 l 350 581 q 452 534 414 556 q 598 401 562 469 q 625 283 625 349 q 529 71 625 159 q 446 16 491 35 l 446 -64 l 350 -64 m 350 770 l 350 1017 l 446 1017 l 446 925 q 574 788 529 882 q 587 750 585 765 l 411 692 q 354 769 404 750 q 350 770 350 770 z "},"˙":{"ha":274,"x_min":35,"x_max":239,"o":"m 35 920 q 88 1010 35 981 q 137 1023 111 1023 q 227 970 198 1023 q 239 920 239 945 q 184 830 239 857 q 137 818 161 818 q 47 872 75 818 q 35 920 35 895 z "},"ı":{"ha":236,"x_min":35,"x_max":201,"o":"m 35 0 l 35 700 l 201 700 l 201 0 l 35 0 z "},"◌":{"ha":863,"x_min":41,"x_max":833,"o":"m 201 656 q 243 723 201 703 q 274 730 258 730 q 340 688 320 730 q 347 656 347 673 q 305 590 347 610 q 274 583 290 583 q 208 625 228 583 q 201 656 201 640 m 84 540 q 126 606 84 586 q 157 613 141 613 q 224 571 203 613 q 231 540 231 556 q 189 473 231 494 q 157 467 174 467 q 91 509 111 467 q 84 540 84 524 m 201 98 q 243 164 201 144 q 274 171 258 171 q 340 129 320 171 q 347 98 347 114 q 305 31 347 52 q 274 24 290 24 q 208 66 228 24 q 201 98 201 81 m 84 214 q 126 281 84 260 q 157 288 141 288 q 224 245 203 288 q 231 214 231 231 q 189 148 231 168 q 157 141 174 141 q 91 183 111 141 q 84 214 84 198 m 526 98 q 568 164 526 144 q 600 171 583 171 q 666 129 646 171 q 673 98 673 114 q 631 31 673 52 q 600 24 616 24 q 533 66 553 24 q 526 98 526 81 m 643 214 q 685 281 643 260 q 716 288 700 288 q 783 245 762 288 q 789 214 789 231 q 747 148 789 168 q 716 141 732 141 q 650 183 670 141 q 643 214 643 198 m 643 540 q 685 606 643 586 q 716 613 700 613 q 783 571 762 613 q 789 540 789 556 q 747 473 789 494 q 716 467 732 467 q 650 509 670 467 q 643 540 643 524 m 526 656 q 568 723 526 703 q 600 730 583 730 q 666 688 646 730 q 673 656 673 673 q 631 590 673 610 q 600 583 616 583 q 533 625 553 583 q 526 656 526 640 m 686 377 q 728 444 686 423 q 760 450 743 450 q 826 408 806 450 q 833 377 833 393 q 791 311 833 331 q 760 304 776 304 q 693 346 713 304 q 686 377 686 361 m 363 54 q 406 121 363 100 q 437 127 420 127 q 503 85 483 127 q 510 54 510 71 q 468 -12 510 8 q 437 -19 453 -19 q 370 23 391 -19 q 363 54 363 38 m 41 377 q 83 444 41 423 q 114 450 98 450 q 180 408 160 450 q 187 377 187 393 q 145 311 187 331 q 114 304 130 304 q 47 346 68 304 q 41 377 41 361 m 363 700 q 406 766 363 746 q 437 773 420 773 q 503 731 483 773 q 510 700 510 716 q 468 633 510 654 q 437 627 453 627 q 370 669 391 627 q 363 700 363 684 z "},"e":{"ha":658,"x_min":52,"x_max":606,"o":"m 52 210 l 52 566 q 113 696 53 632 q 292 773 186 772 l 292 602 q 237 568 252 602 q 233 553 233 560 l 233 486 l 435 486 l 435 552 q 365 602 434 602 l 365 773 q 538 705 464 773 q 605 567 604 646 l 605 311 l 233 311 l 233 210 q 293 167 243 171 l 293 0 q 91 104 165 0 q 52 210 52 160 m 365 0 l 365 165 q 458 235 438 167 l 606 179 q 503 39 586 92 q 365 0 439 0 z "},"é":{"ha":658,"x_min":52,"x_max":606,"o":"m 267 853 l 317 1059 l 490 1059 l 391 853 l 267 853 m 52 210 l 52 566 q 113 696 53 632 q 292 773 186 772 l 292 602 q 237 568 252 602 q 233 553 233 560 l 233 486 l 435 486 l 435 552 q 365 602 434 602 l 365 773 q 538 705 464 773 q 605 567 604 646 l 605 311 l 233 311 l 233 210 q 293 167 243 171 l 293 0 q 91 104 165 0 q 52 210 52 160 m 365 0 l 365 165 q 458 235 438 167 l 606 179 q 503 39 586 92 q 365 0 439 0 z "},"ě":{"ha":658,"x_min":52,"x_max":606,"o":"m 180 1059 l 290 1059 l 327 982 l 365 1059 l 476 1059 l 372 853 l 282 853 l 180 1059 m 52 210 l 52 566 q 113 696 53 632 q 292 773 186 772 l 292 602 q 237 568 252 602 q 233 553 233 560 l 233 486 l 435 486 l 435 552 q 365 602 434 602 l 365 773 q 538 705 464 773 q 605 567 604 646 l 605 311 l 233 311 l 233 210 q 293 167 243 171 l 293 0 q 91 104 165 0 q 52 210 52 160 m 365 0 l 365 165 q 458 235 438 167 l 606 179 q 503 39 586 92 q 365 0 439 0 z "},"ê":{"ha":658,"x_min":52,"x_max":606,"o":"m 180 853 l 282 1059 l 372 1059 l 476 853 l 365 853 l 327 930 l 290 853 l 180 853 m 52 210 l 52 566 q 113 696 53 632 q 292 773 186 772 l 292 602 q 237 568 252 602 q 233 553 233 560 l 233 486 l 435 486 l 435 552 q 365 602 434 602 l 365 773 q 538 705 464 773 q 605 567 604 646 l 605 311 l 233 311 l 233 210 q 293 167 243 171 l 293 0 q 91 104 165 0 q 52 210 52 160 m 365 0 l 365 165 q 458 235 438 167 l 606 179 q 503 39 586 92 q 365 0 439 0 z "},"ë":{"ha":658,"x_min":52,"x_max":606,"o":"m 111 955 q 164 1046 111 1016 q 213 1058 187 1058 q 302 1005 274 1058 q 315 955 315 981 q 260 865 315 892 q 213 853 237 853 q 123 907 151 853 q 111 955 111 930 m 342 955 q 395 1046 342 1016 q 444 1058 418 1058 q 533 1005 505 1058 q 545 955 545 981 q 491 865 545 892 q 444 853 468 853 q 354 907 381 853 q 342 955 342 929 m 52 210 l 52 566 q 113 696 53 632 q 292 773 186 772 l 292 602 q 237 568 252 602 q 233 553 233 560 l 233 486 l 435 486 l 435 552 q 365 602 434 602 l 365 773 q 538 705 464 773 q 605 567 604 646 l 605 311 l 233 311 l 233 210 q 293 167 243 171 l 293 0 q 91 104 165 0 q 52 210 52 160 m 365 0 l 365 165 q 458 235 438 167 l 606 179 q 503 39 586 92 q 365 0 439 0 z "},"ė":{"ha":658,"x_min":52,"x_max":606,"o":"m 227 955 q 279 1046 227 1016 q 328 1058 302 1058 q 418 1005 389 1058 q 430 955 430 981 q 376 865 430 892 q 328 853 353 853 q 239 907 266 853 q 227 955 227 930 m 52 210 l 52 566 q 113 696 53 632 q 292 773 186 772 l 292 602 q 237 568 252 602 q 233 553 233 560 l 233 486 l 435 486 l 435 552 q 365 602 434 602 l 365 773 q 538 705 464 773 q 605 567 604 646 l 605 311 l 233 311 l 233 210 q 293 167 243 171 l 293 0 q 91 104 165 0 q 52 210 52 160 m 365 0 l 365 165 q 458 235 438 167 l 606 179 q 503 39 586 92 q 365 0 439 0 z "},"è":{"ha":658,"x_min":52,"x_max":606,"o":"m 168 1059 l 340 1059 l 391 853 l 267 853 l 168 1059 m 52 210 l 52 566 q 113 696 53 632 q 292 773 186 772 l 292 602 q 237 568 252 602 q 233 553 233 560 l 233 486 l 435 486 l 435 552 q 365 602 434 602 l 365 773 q 538 705 464 773 q 605 567 604 646 l 605 311 l 233 311 l 233 210 q 293 167 243 171 l 293 0 q 91 104 165 0 q 52 210 52 160 m 365 0 l 365 165 q 458 235 438 167 l 606 179 q 503 39 586 92 q 365 0 439 0 z "},"…":{"ha":829,"x_min":41,"x_max":788,"o":"m 41 73 q 94 164 41 134 q 142 176 117 176 q 232 123 203 176 q 244 73 244 100 q 190 -16 244 11 q 142 -28 168 -28 q 53 26 80 -28 q 41 73 41 49 m 313 73 q 366 164 313 134 q 415 176 389 176 q 505 123 476 176 q 517 73 517 100 q 463 -16 517 11 q 415 -28 441 -28 q 326 26 353 -28 q 313 73 313 49 m 585 73 q 637 164 585 134 q 686 176 661 176 q 776 123 747 176 q 788 73 788 99 q 734 -16 788 11 q 686 -28 712 -28 q 597 26 624 -28 q 585 73 585 49 z "},"ē":{"ha":658,"x_min":52,"x_max":606,"o":"m 114 853 l 114 964 l 543 964 l 543 853 l 114 853 m 52 210 l 52 566 q 113 696 53 632 q 292 773 186 772 l 292 602 q 237 568 252 602 q 233 553 233 560 l 233 486 l 435 486 l 435 552 q 365 602 434 602 l 365 773 q 538 705 464 773 q 605 567 604 646 l 605 311 l 233 311 l 233 210 q 293 167 243 171 l 293 0 q 91 104 165 0 q 52 210 52 160 m 365 0 l 365 165 q 458 235 438 167 l 606 179 q 503 39 586 92 q 365 0 439 0 z "},"—":{"ha":1229,"x_min":35,"x_max":1194,"o":"m 35 312 l 35 484 l 1194 484 l 1194 312 l 35 312 z "},"–":{"ha":722,"x_min":35,"x_max":686,"o":"m 35 312 l 35 484 l 686 484 l 686 312 l 35 312 z "},"ę":{"ha":658,"x_min":52,"x_max":606,"o":"m 499 -270 l 499 -146 q 396 -54 397 -144 l 271 -54 q 368 -239 271 -183 q 499 -270 422 -270 m 52 210 l 52 566 q 113 696 53 632 q 292 773 186 772 l 292 602 q 237 568 252 602 q 233 553 233 560 l 233 486 l 435 486 l 435 552 q 365 602 434 602 l 365 773 q 538 705 464 773 q 605 567 604 646 l 605 311 l 233 311 l 233 210 q 293 167 243 171 l 293 0 q 91 104 165 0 q 52 210 52 160 m 365 0 l 365 165 q 458 235 438 167 l 606 179 q 503 39 586 92 q 365 0 439 0 z "},"=":{"ha":567,"x_min":68,"x_max":499,"o":"m 68 178 l 68 350 l 499 350 l 499 178 l 68 178 m 68 441 l 68 613 l 499 613 l 499 441 l 68 441 z "},"℮":{"ha":720,"x_min":41,"x_max":680,"o":"m 323 -4 q 118 81 203 -4 q 41 266 41 160 l 41 686 q 145 895 41 814 q 323 956 227 956 l 323 766 q 236 688 255 760 q 231 639 231 665 l 231 551 l 490 551 l 490 639 q 415 762 490 742 q 397 766 406 765 l 397 956 q 602 871 517 956 q 680 686 680 792 l 680 361 l 231 361 l 231 313 q 301 190 231 214 q 323 186 312 187 l 323 -4 m 397 -4 l 397 186 q 483 263 464 193 q 488 288 487 275 l 678 241 q 560 47 667 121 q 397 -4 484 -4 z "},"ð":{"ha":570,"x_min":38,"x_max":540,"o":"m 38 191 l 38 510 q 95 631 38 572 q 260 700 161 700 l 260 540 q 201 492 205 536 l 201 209 q 260 159 203 160 l 260 -1 q 69 99 136 -1 q 38 191 38 148 m 260 878 l 260 968 q 448 869 381 944 l 515 891 l 540 812 l 494 798 q 532 600 532 716 l 532 191 q 476 68 532 127 q 316 -1 412 0 l 316 159 q 373 206 369 163 l 373 492 q 316 540 370 538 l 316 700 q 370 694 353 700 q 362 757 365 747 l 285 734 l 260 811 l 328 833 q 260 878 305 857 z "},"!":{"ha":331,"x_min":64,"x_max":267,"o":"m 64 72 q 117 163 64 133 q 165 175 140 175 q 255 122 227 175 q 267 72 267 99 q 213 -18 267 9 q 165 -30 191 -30 q 76 24 103 -30 q 64 72 64 47 m 80 225 l 80 949 l 255 949 l 255 225 l 80 225 z "},"¡":{"ha":332,"x_min":28,"x_max":247,"o":"m 28 671 q 83 765 28 734 q 138 780 109 780 q 232 727 199 780 q 247 671 247 700 q 194 578 247 610 q 138 563 167 563 q 45 616 77 563 q 28 671 28 643 m 49 -269 l 49 500 l 231 500 l 231 -269 l 49 -269 z "},"f":{"ha":435,"x_min":20,"x_max":435,"o":"m 20 528 l 20 704 l 115 704 l 115 757 q 171 887 115 821 q 345 972 241 970 l 435 972 l 395 798 l 346 798 q 297 757 305 793 l 297 704 l 395 704 l 395 528 l 297 528 l 297 0 l 115 0 l 115 528 l 20 528 z "},"ﬁ":{"ha":670,"x_min":35,"x_max":635,"o":"m 35 543 l 35 700 l 121 700 l 121 749 q 172 869 121 807 q 330 944 237 943 l 412 944 l 376 785 l 331 785 q 286 749 294 780 l 286 700 l 620 700 l 620 0 l 454 0 l 454 543 l 286 543 l 286 0 l 121 0 l 121 543 l 35 543 m 437 854 q 488 941 437 913 q 536 954 511 954 q 623 902 594 954 q 635 854 635 879 q 585 770 635 799 q 536 757 562 757 q 449 808 477 757 q 437 854 437 830 z "},"ﬂ":{"ha":655,"x_min":35,"x_max":620,"o":"m 35 543 l 35 700 l 121 700 l 121 749 q 172 869 121 807 q 330 944 237 943 l 620 944 l 620 0 l 449 0 l 449 785 l 331 785 q 286 749 294 780 l 286 699 l 376 700 l 376 543 l 286 543 l 286 0 l 121 0 l 121 543 l 35 543 z "},"ƒ":{"ha":518,"x_min":35,"x_max":483,"o":"m 35 -228 l 72 -85 l 146 -85 q 191 -49 183 -80 l 191 543 l 106 543 l 106 700 l 191 700 l 191 749 q 243 869 191 807 q 400 944 308 943 l 483 944 l 446 785 l 401 785 q 357 749 365 780 l 357 699 l 446 700 l 446 543 l 357 543 l 357 -41 q 285 -189 357 -134 q 148 -228 229 -228 l 35 -228 z "},"⁄":{"ha":760,"x_min":35,"x_max":724,"o":"m 35 -3 l 621 952 l 724 952 l 148 -3 l 35 -3 z "},"g":{"ha":618,"x_min":27,"x_max":568,"o":"m 27 -258 l 69 -91 l 338 -91 q 393 -52 381 -90 q 395 -47 395 -49 l 395 16 q 334 11 366 11 l 334 179 q 395 224 392 182 l 395 570 q 370 604 395 589 q 334 613 354 613 l 334 783 q 395 774 366 783 l 395 783 l 568 783 l 568 -47 q 515 -171 568 -107 q 340 -258 445 -256 l 27 -258 m 41 220 l 41 576 q 99 704 42 642 q 275 783 170 781 l 275 613 q 213 578 227 613 q 212 572 212 574 l 212 221 q 251 182 212 190 q 275 179 262 179 l 275 11 q 77 118 148 11 q 41 220 41 172 z "},"ğ":{"ha":618,"x_min":27,"x_max":568,"o":"m 170 996 l 256 996 q 286 954 256 963 q 300 952 294 952 q 342 982 332 952 q 343 996 343 990 l 430 996 q 369 886 430 924 q 300 865 338 865 q 190 926 228 865 q 170 996 170 959 m 27 -258 l 69 -91 l 338 -91 q 393 -52 381 -90 q 395 -47 395 -49 l 395 16 q 334 11 366 11 l 334 179 q 395 224 392 182 l 395 570 q 370 604 395 589 q 334 613 354 613 l 334 783 q 395 774 366 783 l 395 783 l 568 783 l 568 -47 q 515 -171 568 -107 q 340 -258 445 -256 l 27 -258 m 41 220 l 41 576 q 99 704 42 642 q 275 783 170 781 l 275 613 q 213 578 227 613 q 212 572 212 574 l 212 221 q 251 182 212 190 q 275 179 262 179 l 275 11 q 77 118 148 11 q 41 220 41 172 z "},"ß":{"ha":708,"x_min":35,"x_max":673,"o":"m 35 0 l 35 620 q 52 791 37 739 q 307 956 102 955 q 549 745 530 956 q 551 703 551 724 l 551 549 l 464 551 q 414 490 416 540 q 526 407 414 445 q 530 406 529 406 q 673 217 669 351 q 566 28 673 85 q 444 0 511 0 l 270 0 l 270 148 l 444 148 q 509 183 491 151 q 514 208 514 194 q 465 271 514 248 q 433 283 454 275 q 374 309 395 300 q 266 439 285 354 q 259 503 259 469 q 369 674 259 618 q 399 688 384 682 l 399 704 q 305 795 397 793 q 210 675 212 792 l 210 0 l 35 0 z "},"`":{"ha":469,"x_min":57,"x_max":279,"o":"m 57 1027 l 229 1027 l 279 821 l 156 821 l 57 1027 z "},">":{"ha":562,"x_min":41,"x_max":521,"o":"m 41 107 l 41 279 l 279 396 l 41 502 l 41 678 l 521 437 l 521 350 l 41 107 z "},"≥":{"ha":643,"x_min":41,"x_max":602,"o":"m 41 209 l 41 381 l 336 490 l 41 598 l 41 770 l 602 529 l 602 450 l 41 209 m 41 0 l 41 145 l 602 145 l 602 0 l 41 0 z "},"«":{"ha":620,"x_min":27,"x_max":600,"o":"m 27 351 l 27 435 l 313 647 l 313 477 l 193 396 l 313 304 l 313 138 l 27 351 m 313 351 l 313 435 l 600 647 l 600 477 l 479 396 l 600 304 l 600 138 l 313 351 z "},"»":{"ha":620,"x_min":20,"x_max":593,"o":"m 20 138 l 20 304 l 141 396 l 20 477 l 20 647 l 307 435 l 307 351 l 20 138 m 307 138 l 307 304 l 427 396 l 307 477 l 307 647 l 593 435 l 593 351 l 307 138 z "},"‹":{"ha":458,"x_min":35,"x_max":423,"o":"m 35 396 l 213 678 l 423 678 l 245 396 l 423 107 l 213 107 l 35 396 z "},"›":{"ha":458,"x_min":35,"x_max":423,"o":"m 35 107 l 213 396 l 35 678 l 245 678 l 423 396 l 245 107 l 35 107 z "},"h":{"ha":642,"x_min":57,"x_max":601,"o":"m 57 -11 l 57 971 l 227 971 l 227 741 q 300 750 254 750 l 300 583 q 231 540 252 583 q 228 532 228 534 l 228 -11 l 57 -11 m 366 583 l 366 750 q 564 656 498 750 q 601 545 601 606 l 601 -11 l 431 -11 l 431 532 q 410 568 431 551 q 366 583 392 583 z "},"˝":{"ha":483,"x_min":34,"x_max":473,"o":"m 251 821 l 301 1027 l 473 1027 l 374 821 l 251 821 m 34 821 l 84 1027 l 256 1027 l 157 821 l 34 821 z "},"-":{"ha":564,"x_min":68,"x_max":496,"o":"m 68 312 l 68 484 l 496 484 l 496 312 l 68 312 z "},"i":{"ha":332,"x_min":68,"x_max":264,"o":"m 68 883 q 118 967 68 939 q 167 981 141 981 q 252 930 224 981 q 264 883 264 907 q 214 798 264 826 q 167 785 191 785 q 80 837 109 785 q 68 883 68 859 m 77 0 l 77 732 l 259 732 l 259 0 l 77 0 z "},"í":{"ha":236,"x_min":35,"x_max":278,"o":"m 56 853 l 106 1059 l 278 1059 l 179 853 l 56 853 m 35 0 l 35 700 l 201 700 l 201 0 l 35 0 z "},"î":{"ha":236,"x_min":-30,"x_max":266,"o":"m -30 853 l 72 1059 l 161 1059 l 266 853 l 155 853 l 117 930 l 80 853 l -30 853 m 35 0 l 35 700 l 201 700 l 201 0 l 35 0 z "},"ï":{"ha":236,"x_min":-99,"x_max":335,"o":"m -99 955 q -46 1046 -99 1016 q 3 1058 -23 1058 q 92 1005 64 1058 q 104 955 104 981 q 50 865 104 892 q 3 853 27 853 q -87 907 -60 853 q -99 955 -99 930 m 132 955 q 184 1046 132 1016 q 233 1058 208 1058 q 323 1005 294 1058 q 335 955 335 981 q 281 865 335 892 q 233 853 258 853 q 144 907 171 853 q 132 955 132 930 m 35 0 l 35 700 l 201 700 l 201 0 l 35 0 z "},"ì":{"ha":236,"x_min":-43,"x_max":201,"o":"m -43 1059 l 129 1059 l 179 853 l 56 853 l -43 1059 m 35 0 l 35 700 l 201 700 l 201 0 l 35 0 z "},"ī":{"ha":236,"x_min":-96,"x_max":332,"o":"m -96 853 l -96 964 l 332 964 l 332 853 l -96 853 m 35 0 l 35 700 l 201 700 l 201 0 l 35 0 z "},"∞":{"ha":1082,"x_min":41,"x_max":1042,"o":"m 319 0 l 319 160 q 366 178 354 161 l 456 355 l 369 525 q 319 541 353 541 l 319 701 q 496 623 438 701 q 511 600 506 610 l 545 534 l 578 600 q 713 696 617 674 q 770 701 742 701 l 770 541 q 720 525 735 540 l 633 355 l 723 178 q 770 160 738 160 l 770 0 q 586 100 650 1 l 545 182 l 503 100 q 319 0 441 1 m 263 0 q 72 100 138 0 q 41 193 41 149 l 41 511 q 98 632 41 574 q 263 701 164 701 l 263 541 q 203 494 208 537 l 203 210 q 263 160 206 161 l 263 0 m 826 0 l 826 160 q 883 208 880 163 l 883 494 q 826 541 880 540 l 826 701 q 1010 602 945 701 q 1042 511 1042 555 l 1042 193 q 986 69 1042 129 q 826 0 922 1 z "},"∫":{"ha":463,"x_min":41,"x_max":422,"o":"m 41 -190 q 98 -164 61 -190 q 172 -4 171 -109 l 172 848 q 301 1076 172 1002 q 422 1111 363 1111 l 422 1023 q 351 993 388 1023 q 293 848 293 944 l 293 -4 q 167 -236 293 -157 q 41 -278 100 -278 l 41 -190 z "},"į":{"ha":332,"x_min":68,"x_max":334,"o":"m 334 -269 q 119 -137 165 -269 q 106 -53 106 -98 l 231 -53 q 334 -145 232 -144 l 334 -269 m 68 883 q 118 967 68 939 q 167 981 141 981 q 252 930 224 981 q 264 883 264 907 q 214 798 264 826 q 167 785 191 785 q 80 837 109 785 q 68 883 68 859 m 77 0 l 77 732 l 259 732 l 259 0 l 77 0 z "},"j":{"ha":328,"x_min":-57,"x_max":260,"o":"m 73 732 l 255 732 l 255 -57 q 199 -189 255 -123 q 28 -270 130 -269 l -57 -270 l -16 -96 l 23 -96 q 37 -94 31 -96 q 48 -90 43 -92 q 57 -84 53 -87 q 64 -77 61 -81 q 68 -70 66 -73 q 71 -64 71 -66 q 73 -60 72 -61 l 73 -57 l 73 732 m 64 883 q 114 967 64 939 q 163 981 137 981 q 248 930 220 981 q 260 883 260 907 q 210 798 260 826 q 163 785 187 785 q 76 837 104 785 q 64 883 64 859 z "},"k":{"ha":678,"x_min":57,"x_max":651,"o":"m 57 0 l 57 971 l 244 971 l 244 0 l 57 0 m 283 389 l 450 773 l 648 773 l 477 389 l 651 0 l 454 0 l 283 389 z "},"l":{"ha":309,"x_min":57,"x_max":252,"o":"m 57 0 l 57 971 l 252 971 l 252 0 l 57 0 z "},"ĺ":{"ha":309,"x_min":57,"x_max":313,"o":"m 91 1112 l 141 1318 l 313 1318 l 214 1112 l 91 1112 m 57 0 l 57 971 l 252 971 l 252 0 l 57 0 z "},"ľ":{"ha":552,"x_min":42,"x_max":510,"o":"m 288 823 l 338 1029 l 510 1029 l 460 823 l 288 823 m 42 0 l 42 971 l 237 971 l 237 0 l 42 0 z "},"<":{"ha":562,"x_min":41,"x_max":521,"o":"m 41 350 l 41 437 l 521 678 l 521 502 l 282 396 l 521 279 l 521 107 l 41 350 z "},"≤":{"ha":643,"x_min":41,"x_max":602,"o":"m 602 208 l 41 449 l 41 528 l 602 769 l 602 597 l 307 488 l 602 380 l 602 208 m 41 -1 l 41 144 l 602 144 l 602 -1 l 41 -1 z "},"¬":{"ha":732,"x_min":54,"x_max":665,"o":"m 54 444 l 54 600 l 665 600 l 665 282 l 505 282 l 505 444 l 54 444 z "},"◊":{"ha":562,"x_min":-4,"x_max":567,"o":"m -4 477 l 237 958 l 324 958 l 567 477 l 324 -3 l 237 -3 l -4 477 m 172 477 l 278 239 l 395 477 l 278 716 l 172 477 z "},"ł":{"ha":575,"x_min":54,"x_max":559,"o":"m 216 -12 l 411 -12 l 411 486 l 559 601 l 461 727 l 411 688 l 411 959 l 216 959 l 216 536 l 54 410 l 152 283 l 216 334 l 216 -12 z "},"m":{"ha":1034,"x_min":52,"x_max":982,"o":"m 52 0 l 52 563 q 111 694 52 631 q 297 774 187 773 l 297 594 q 236 540 243 586 l 236 0 l 52 0 m 359 594 l 359 774 q 517 724 452 773 q 673 774 579 774 l 673 594 q 609 540 610 593 l 609 0 l 425 0 l 425 540 q 359 594 422 593 m 734 594 l 734 774 q 941 670 865 774 q 982 563 982 613 l 982 0 l 798 0 l 798 540 q 734 594 795 593 z "},"¯":{"ha":692,"x_min":41,"x_max":651,"o":"m 41 1111 l 651 1111 l 651 966 l 41 966 l 41 1111 z "},"−":{"ha":564,"x_min":68,"x_max":496,"o":"m 68 312 l 68 484 l 496 484 l 496 312 l 68 312 z "},"×":{"ha":945,"x_min":136,"x_max":810,"o":"m 258 228 l 137 349 l 353 566 l 136 784 l 256 905 l 473 688 l 689 903 l 810 783 l 594 567 l 810 351 l 688 231 l 473 445 l 258 228 z "},"n":{"ha":661,"x_min":52,"x_max":609,"o":"m 52 0 l 52 563 q 113 696 52 631 q 298 774 187 773 l 298 594 q 236 541 241 587 l 236 0 l 52 0 m 361 594 l 361 774 q 568 670 492 774 q 609 563 609 613 l 609 0 l 425 0 l 425 541 q 374 593 425 586 q 361 594 368 594 z "},"ń":{"ha":661,"x_min":52,"x_max":609,"o":"m 269 857 l 319 1063 l 491 1063 l 392 857 l 269 857 m 52 0 l 52 563 q 113 696 52 631 q 298 774 187 773 l 298 594 q 236 541 241 587 l 236 0 l 52 0 m 361 594 l 361 774 q 568 670 492 774 q 609 563 609 613 l 609 0 l 425 0 l 425 541 q 374 593 425 586 q 361 594 368 594 z "},"ň":{"ha":661,"x_min":52,"x_max":609,"o":"m 182 1063 l 292 1063 l 328 986 l 366 1063 l 477 1063 l 373 857 l 283 857 l 182 1063 m 52 0 l 52 563 q 113 696 52 631 q 298 774 187 773 l 298 594 q 236 541 241 587 l 236 0 l 52 0 m 361 594 l 361 774 q 568 670 492 774 q 609 563 609 613 l 609 0 l 425 0 l 425 541 q 374 593 425 586 q 361 594 368 594 z "},"≠":{"ha":567,"x_min":68,"x_max":499,"o":"m 80 -106 l 252 -106 l 319 178 l 499 178 l 499 350 l 359 350 l 381 441 l 499 441 l 499 613 l 422 613 l 488 897 l 317 897 l 251 613 l 68 613 l 68 441 l 209 441 l 189 350 l 68 350 l 68 178 l 146 178 l 80 -106 z "},"ñ":{"ha":661,"x_min":52,"x_max":609,"o":"m 140 882 l 140 1020 q 235 1050 193 1050 q 331 1019 269 1050 q 412 994 378 994 q 521 1032 460 996 l 521 895 q 407 857 458 857 q 307 888 370 857 q 229 911 260 911 q 140 882 187 910 m 52 0 l 52 563 q 113 696 52 631 q 298 774 187 773 l 298 594 q 236 541 241 587 l 236 0 l 52 0 m 361 594 l 361 774 q 568 670 492 774 q 609 563 609 613 l 609 0 l 425 0 l 425 541 q 374 593 425 586 q 361 594 368 594 z "},"#":{"ha":1021,"x_min":38,"x_max":968,"o":"m 38 239 l 72 403 l 258 403 l 282 548 l 84 548 l 114 712 l 312 712 l 349 925 l 513 925 l 475 711 l 618 711 l 655 925 l 819 925 l 781 711 l 968 711 l 943 547 l 753 548 l 727 401 l 921 401 l 897 237 l 699 239 l 662 30 l 499 30 l 534 239 l 392 239 l 355 30 l 191 30 l 228 239 l 38 239 m 420 403 l 564 401 l 589 548 l 446 548 l 420 403 z "},"o":{"ha":646,"x_min":52,"x_max":594,"o":"m 52 210 l 52 564 q 110 694 52 631 q 296 773 183 772 l 296 597 q 231 545 235 591 l 231 229 q 296 175 233 176 l 296 -1 q 90 106 163 -1 q 52 210 52 161 m 358 -1 l 358 175 q 420 227 415 182 l 419 545 q 357 597 410 594 l 357 773 q 556 670 484 773 q 594 564 594 614 l 594 210 q 536 77 594 142 q 358 -1 465 0 z "},"ó":{"ha":646,"x_min":52,"x_max":594,"o":"m 264 853 l 315 1059 l 487 1059 l 388 853 l 264 853 m 52 210 l 52 564 q 110 694 52 631 q 296 773 183 772 l 296 597 q 231 545 235 591 l 231 229 q 296 175 233 176 l 296 -1 q 90 106 163 -1 q 52 210 52 161 m 358 -1 l 358 175 q 420 227 415 182 l 419 545 q 357 597 410 594 l 357 773 q 556 670 484 773 q 594 564 594 614 l 594 210 q 536 77 594 142 q 358 -1 465 0 z "},"ô":{"ha":646,"x_min":52,"x_max":594,"o":"m 179 853 l 281 1059 l 370 1059 l 475 853 l 363 853 l 326 930 l 289 853 l 179 853 m 52 210 l 52 564 q 110 694 52 631 q 296 773 183 772 l 296 597 q 231 545 235 591 l 231 229 q 296 175 233 176 l 296 -1 q 90 106 163 -1 q 52 210 52 161 m 358 -1 l 358 175 q 420 227 415 182 l 419 545 q 357 597 410 594 l 357 773 q 556 670 484 773 q 594 564 594 614 l 594 210 q 536 77 594 142 q 358 -1 465 0 z "},"ö":{"ha":646,"x_min":52,"x_max":594,"o":"m 110 955 q 163 1046 110 1016 q 212 1058 186 1058 q 301 1005 273 1058 q 313 955 313 981 q 259 865 313 892 q 212 853 236 853 q 122 907 149 853 q 110 955 110 930 m 340 955 q 393 1046 340 1016 q 442 1058 416 1058 q 532 1005 503 1058 q 544 955 544 981 q 490 865 544 892 q 442 853 467 853 q 353 907 380 853 q 340 955 340 929 m 52 210 l 52 564 q 110 694 52 631 q 296 773 183 772 l 296 597 q 231 545 235 591 l 231 229 q 296 175 233 176 l 296 -1 q 90 106 163 -1 q 52 210 52 161 m 358 -1 l 358 175 q 420 227 415 182 l 419 545 q 357 597 410 594 l 357 773 q 556 670 484 773 q 594 564 594 614 l 594 210 q 536 77 594 142 q 358 -1 465 0 z "},"œ":{"ha":910,"x_min":35,"x_max":872,"o":"m 453 46 q 313 -1 393 0 l 313 153 q 373 203 372 155 l 373 491 q 327 540 373 534 q 313 540 320 540 l 313 700 q 450 655 397 699 q 586 700 510 700 l 586 544 q 528 509 543 544 q 525 492 525 500 l 525 439 l 716 439 l 716 487 q 671 541 716 529 q 652 544 662 544 l 652 700 q 812 633 741 700 q 871 513 869 578 l 871 282 l 525 282 l 525 216 q 583 151 525 164 q 614 146 598 146 q 727 186 704 146 q 738 213 734 198 l 872 163 q 711 11 842 45 q 620 0 667 0 q 453 46 525 0 m 35 191 l 35 510 q 90 628 35 570 q 258 700 156 699 l 258 540 q 198 492 199 538 l 198 206 q 258 153 201 155 l 258 -1 q 66 102 133 -1 q 35 191 35 151 z "},"˛":{"ha":297,"x_min":-84,"x_max":144,"o":"m 144 -270 q -71 -138 -24 -270 q -84 -54 -84 -99 l 41 -54 q 144 -146 42 -145 l 144 -270 z "},"ò":{"ha":646,"x_min":52,"x_max":594,"o":"m 165 1059 l 338 1059 l 388 853 l 264 853 l 165 1059 m 52 210 l 52 564 q 110 694 52 631 q 296 773 183 772 l 296 597 q 231 545 235 591 l 231 229 q 296 175 233 176 l 296 -1 q 90 106 163 -1 q 52 210 52 161 m 358 -1 l 358 175 q 420 227 415 182 l 419 545 q 357 597 410 594 l 357 773 q 556 670 484 773 q 594 564 594 614 l 594 210 q 536 77 594 142 q 358 -1 465 0 z "},"ő":{"ha":646,"x_min":52,"x_max":612,"o":"m 389 853 l 439 1059 l 612 1059 l 513 853 l 389 853 m 172 853 l 222 1059 l 395 1059 l 296 853 l 172 853 m 52 210 l 52 564 q 110 694 52 631 q 296 773 183 772 l 296 597 q 231 545 235 591 l 231 229 q 296 175 233 176 l 296 -1 q 90 106 163 -1 q 52 210 52 161 m 358 -1 l 358 175 q 420 227 415 182 l 419 545 q 357 597 410 594 l 357 773 q 556 670 484 773 q 594 564 594 614 l 594 210 q 536 77 594 142 q 358 -1 465 0 z "},"ō":{"ha":646,"x_min":52,"x_max":594,"o":"m 113 853 l 113 964 l 541 964 l 541 853 l 113 853 m 52 210 l 52 564 q 110 694 52 631 q 296 773 183 772 l 296 597 q 231 545 235 591 l 231 229 q 296 175 233 176 l 296 -1 q 90 106 163 -1 q 52 210 52 161 m 358 -1 l 358 175 q 420 227 415 182 l 419 545 q 357 597 410 594 l 357 773 q 556 670 484 773 q 594 564 594 614 l 594 210 q 536 77 594 142 q 358 -1 465 0 z "},"½":{"ha":789,"x_min":0,"x_max":749,"o":"m 415 0 l 415 102 l 735 102 l 735 0 l 415 0 m 0 0 l 586 949 l 689 949 l 113 0 l 0 0 m 66 823 l 66 909 l 118 949 l 228 949 l 228 475 l 118 475 l 118 823 l 66 823 m 415 336 q 486 454 415 412 q 557 475 521 475 l 557 370 q 513 332 521 368 q 511 319 511 326 l 415 336 m 415 137 q 502 233 415 193 q 528 245 513 239 q 627 296 612 281 q 640 323 640 309 q 595 370 639 366 l 595 475 q 735 392 700 475 q 749 323 749 359 q 648 197 747 245 q 609 179 635 190 q 547 137 549 152 l 415 137 z "},"¼":{"ha":689,"x_min":0,"x_max":689,"o":"m 505 0 l 505 476 l 613 476 l 613 178 l 650 178 l 650 83 l 613 83 l 613 0 l 505 0 m 66 823 l 66 909 l 118 949 l 228 949 l 228 475 l 118 475 l 118 823 l 66 823 m 320 83 l 320 178 l 467 433 l 467 237 l 435 178 l 467 178 l 467 83 l 320 83 m 0 0 l 586 949 l 689 949 l 113 0 l 0 0 z "},"¹":{"ha":208,"x_min":15,"x_max":148,"o":"m 15 836 l 15 911 l 61 948 l 148 948 l 148 521 l 61 521 l 61 836 l 15 836 z "},"ª":{"ha":336,"x_min":19,"x_max":307,"o":"m 26 441 l 26 533 l 305 533 l 305 441 l 26 441 m 19 658 q 71 583 19 609 q 134 568 99 568 l 134 651 q 95 675 96 655 l 95 686 q 103 701 96 697 q 129 709 107 703 q 201 735 182 724 l 201 678 q 174 652 201 654 q 171 651 172 652 l 171 568 q 239 590 213 570 q 307 568 264 568 l 307 652 q 288 674 288 654 l 288 852 q 243 932 288 899 q 171 955 210 955 l 171 871 q 201 845 199 868 l 201 830 q 111 780 201 810 q 57 760 68 765 q 19 692 20 738 l 19 658 m 24 857 l 103 827 q 136 871 104 871 l 136 955 q 43 910 79 955 q 24 857 24 886 z "},"º":{"ha":312,"x_min":30,"x_max":277,"o":"m 35 490 l 35 586 l 277 586 l 277 490 l 35 490 m 30 707 l 30 865 q 69 936 30 906 q 140 960 100 959 l 140 880 q 111 857 111 879 l 111 715 q 140 690 114 692 l 140 612 q 39 673 71 612 q 30 707 30 692 m 168 612 l 168 690 q 195 713 195 692 l 195 857 q 167 880 193 879 l 167 960 q 264 901 233 960 q 274 865 274 882 l 274 707 q 236 635 274 666 q 168 612 206 612 z "},"ø":{"ha":675,"x_min":0,"x_max":675,"o":"m 0 111 l 72 30 l 133 85 q 313 -1 199 0 l 313 159 q 255 197 260 160 l 426 354 l 426 206 q 381 160 426 165 q 369 159 376 159 l 369 -1 q 553 99 490 -1 q 585 191 585 148 l 585 500 l 675 583 l 604 665 l 545 612 q 369 700 481 699 l 369 540 q 426 502 420 538 l 254 343 l 254 492 q 298 538 254 532 q 313 540 307 540 l 313 700 q 123 602 190 700 q 91 510 91 553 l 91 194 l 0 111 z "},"õ":{"ha":646,"x_min":52,"x_max":594,"o":"m 136 878 l 136 1016 q 231 1046 189 1046 q 327 1015 264 1046 q 408 990 374 990 q 517 1028 456 991 l 517 891 q 403 853 454 853 q 302 884 366 853 q 225 907 256 907 q 136 878 183 906 m 52 210 l 52 564 q 110 694 52 631 q 296 773 183 772 l 296 597 q 231 545 235 591 l 231 229 q 296 175 233 176 l 296 -1 q 90 106 163 -1 q 52 210 52 161 m 358 -1 l 358 175 q 420 227 415 182 l 419 545 q 357 597 410 594 l 357 773 q 556 670 484 773 q 594 564 594 614 l 594 210 q 536 77 594 142 q 358 -1 465 0 z "},"p":{"ha":652,"x_min":53,"x_max":591,"o":"m 312 0 l 312 176 l 358 176 q 412 213 403 179 l 412 560 q 391 590 412 578 q 358 597 376 597 l 312 597 l 312 773 l 358 773 q 556 665 486 773 q 591 563 591 609 l 591 210 q 537 83 591 148 q 358 0 465 1 l 312 0 m 53 -270 l 53 773 l 244 773 l 244 -270 l 53 -270 z "},"¶":{"ha":652,"x_min":47,"x_max":579,"o":"m 47 701 q 152 479 47 545 q 277 446 206 446 l 277 -7 l 389 -7 l 389 956 l 277 956 q 91 854 157 956 q 47 701 47 787 m 467 -7 l 579 -7 l 579 956 l 467 956 l 467 -7 z "},"(":{"ha":302,"x_min":54,"x_max":275,"o":"m 54 256 q 111 58 54 126 q 275 -50 164 -4 l 275 69 q 201 183 216 106 q 194 274 194 221 l 194 707 q 255 865 195 819 q 275 879 266 873 l 274 997 q 102 880 148 947 q 54 692 54 811 l 54 256 z "},")":{"ha":302,"x_min":27,"x_max":248,"o":"m 27 -50 l 27 69 q 102 183 87 106 q 109 274 109 221 l 109 707 q 47 865 107 819 q 27 879 37 873 l 28 997 q 201 880 155 947 q 248 692 248 811 l 248 256 q 191 58 248 126 q 27 -50 138 -4 z "},"∂":{"ha":570,"x_min":38,"x_max":532,"o":"m 38 191 l 38 510 q 95 631 38 572 q 260 700 161 700 l 260 540 q 201 479 205 533 l 201 209 q 260 159 203 160 l 260 -1 q 69 99 136 -1 q 38 191 38 148 m 95 878 l 95 968 q 498 783 415 968 q 532 600 532 707 l 532 191 q 476 68 532 127 q 316 -1 412 0 l 316 159 q 373 213 369 164 l 373 479 q 316 540 370 538 l 316 700 q 370 694 353 700 q 262 842 370 791 q 95 878 190 878 z "},"%":{"ha":853,"x_min":35,"x_max":818,"o":"m 35 780 q 100 902 35 859 q 182 926 138 926 q 304 861 260 926 q 328 780 328 823 q 263 658 328 701 q 182 633 225 633 q 60 699 103 633 q 35 780 35 736 m 217 -31 l 454 971 l 625 971 l 389 -31 l 217 -31 m 525 159 q 590 281 525 237 q 671 305 628 305 q 793 240 750 305 q 818 159 818 202 q 753 37 818 80 q 671 12 715 12 q 549 77 593 12 q 525 159 525 115 z "},".":{"ha":285,"x_min":41,"x_max":244,"o":"m 41 95 q 94 186 41 156 q 142 198 117 198 q 232 145 203 198 q 244 95 244 122 q 190 5 244 33 q 142 -7 167 -7 q 53 47 80 -7 q 41 95 41 71 z "},"·":{"ha":339,"x_min":75,"x_max":278,"o":"m 75 491 q 127 582 75 552 q 176 594 151 594 q 266 541 237 594 q 278 491 278 518 q 224 401 278 429 q 176 389 201 389 q 87 444 114 389 q 75 491 75 467 z "},"‰":{"ha":1217,"x_min":22,"x_max":1194,"o":"m 165 477 q 38 587 72 477 q 22 715 22 640 q 136 948 22 921 q 165 952 151 952 l 165 848 q 126 750 129 840 q 126 723 126 739 l 126 708 q 149 590 126 612 q 165 582 157 585 l 165 477 m 202 477 l 202 582 q 241 677 239 591 q 241 708 241 689 l 241 723 q 218 840 241 821 q 202 848 210 845 l 202 952 q 332 834 300 952 q 346 715 346 783 q 233 481 346 511 q 202 477 218 477 m 663 0 q 536 110 570 0 q 519 237 519 163 q 633 471 519 444 q 663 475 648 475 l 663 370 q 624 273 627 362 q 624 245 624 262 l 624 231 q 647 113 624 134 q 663 104 655 107 l 663 0 m 700 0 l 700 104 q 739 199 736 114 q 739 231 739 210 l 739 245 q 716 362 739 343 q 700 370 708 368 l 700 475 q 830 357 798 475 q 844 237 844 305 q 731 4 844 34 q 700 0 716 0 m 1013 0 q 886 110 920 0 q 869 237 869 163 q 983 471 869 444 q 1013 475 998 475 l 1013 370 q 974 273 977 362 q 974 245 974 262 l 974 231 q 997 113 974 134 q 1013 104 1005 107 l 1013 0 m 1050 0 l 1050 104 q 1089 199 1086 114 q 1089 231 1089 210 l 1089 245 q 1066 362 1089 343 q 1050 370 1058 368 l 1050 475 q 1180 357 1147 475 q 1194 237 1194 305 q 1081 4 1194 34 q 1050 0 1066 0 m 88 0 l 674 949 l 777 949 l 201 0 l 88 0 z "},"π":{"ha":723,"x_min":41,"x_max":682,"o":"m 41 528 l 41 704 l 682 704 l 682 528 l 605 528 l 605 193 q 648 148 605 153 q 663 146 656 146 l 663 -5 q 472 83 530 -5 q 444 180 444 127 l 444 528 l 283 528 l 283 0 l 118 0 l 118 528 l 41 528 z "},"+":{"ha":549,"x_min":20,"x_max":529,"o":"m 20 312 l 20 484 l 187 484 l 187 675 l 359 675 l 359 484 l 529 484 l 529 312 l 359 312 l 359 118 l 187 118 l 187 312 l 20 312 z "},"±":{"ha":579,"x_min":34,"x_max":545,"o":"m 35 54 l 35 227 l 545 227 l 545 54 l 35 54 m 34 530 l 34 703 l 201 703 l 201 894 l 373 894 l 373 703 l 543 703 l 543 530 l 373 530 l 373 336 l 201 336 l 201 530 l 34 530 z "},"∏":{"ha":724,"x_min":41,"x_max":684,"o":"m 41 766 l 41 949 l 684 949 l 684 766 l 625 766 l 625 -190 l 449 -190 l 449 766 l 275 766 l 275 -190 l 99 -190 l 99 766 l 41 766 z "},"q":{"ha":646,"x_min":54,"x_max":593,"o":"m 288 0 q 90 109 160 0 q 54 210 54 163 l 54 563 q 109 690 54 625 q 288 773 179 772 l 334 773 l 334 597 l 288 597 q 232 560 241 594 l 232 213 q 254 184 232 197 q 288 176 269 176 l 334 176 l 334 0 l 288 0 m 401 -270 l 401 773 l 593 773 l 593 -270 l 401 -270 z "},"?":{"ha":624,"x_min":41,"x_max":583,"o":"m 41 829 q 228 948 119 928 q 296 954 260 954 q 540 826 465 954 q 583 666 581 757 q 560 534 583 591 q 503 448 537 476 q 436 401 469 419 q 380 378 403 382 l 357 374 l 357 225 l 182 225 l 182 524 q 368 557 324 526 q 410 669 410 590 q 340 769 410 741 q 285 780 313 780 q 152 713 202 779 l 41 829 m 165 72 q 218 163 165 133 q 267 175 241 175 q 358 122 328 175 q 370 72 370 98 q 317 -18 370 11 q 267 -30 294 -30 q 178 24 205 -30 q 165 72 165 47 z "},"¿":{"ha":604,"x_min":34,"x_max":576,"o":"m 576 110 q 389 -9 498 11 q 321 -15 357 -15 q 77 113 152 -15 q 34 273 37 182 q 46 372 34 327 q 79 447 58 418 q 123 498 99 476 q 171 533 146 521 q 216 553 195 545 q 248 562 236 560 l 260 564 l 260 713 l 435 713 l 435 415 q 250 381 293 412 q 208 270 208 349 q 277 170 208 198 q 332 159 304 159 q 465 225 415 160 l 576 110 m 452 867 q 399 776 452 806 q 350 764 376 764 q 259 817 289 764 q 247 867 247 841 q 300 956 247 928 q 350 968 323 968 q 439 914 412 968 q 452 867 452 891 z "},"\"":{"ha":532,"x_min":58,"x_max":475,"o":"m 58 631 l 58 998 l 231 998 l 231 631 l 58 631 m 302 631 l 302 998 l 475 998 l 475 631 l 302 631 z "},"„":{"ha":487,"x_min":9,"x_max":477,"o":"m 255 -31 l 305 175 l 477 175 l 427 -31 l 255 -31 m 9 -31 l 60 175 l 232 175 l 182 -31 l 9 -31 z "},"“":{"ha":498,"x_min":41,"x_max":457,"o":"m 41 631 l 41 998 l 213 998 l 213 631 l 41 631 m 285 631 l 285 998 l 457 998 l 457 631 l 285 631 z "},"”":{"ha":498,"x_min":41,"x_max":457,"o":"m 41 631 l 41 998 l 213 998 l 213 631 l 41 631 m 285 631 l 285 998 l 457 998 l 457 631 l 285 631 z "},"‘":{"ha":254,"x_min":41,"x_max":213,"o":"m 41 631 l 41 998 l 213 998 l 213 631 l 41 631 z "},"’":{"ha":254,"x_min":41,"x_max":213,"o":"m 41 631 l 41 998 l 213 998 l 213 631 l 41 631 z "},"‚":{"ha":254,"x_min":41,"x_max":213,"o":"m 41 631 l 41 998 l 213 998 l 213 631 l 41 631 z "},"'":{"ha":288,"x_min":58,"x_max":231,"o":"m 58 631 l 58 998 l 231 998 l 231 631 l 58 631 z "},"r":{"ha":490,"x_min":57,"x_max":476,"o":"m 57 0 l 57 773 l 241 773 l 241 688 q 370 772 289 749 q 427 780 399 780 l 476 780 l 434 598 q 286 524 349 597 q 241 414 241 471 l 241 0 l 57 0 z "},"ŕ":{"ha":490,"x_min":57,"x_max":476,"o":"m 240 853 l 290 1059 l 463 1059 l 363 853 l 240 853 m 57 0 l 57 773 l 241 773 l 241 688 q 370 772 289 749 q 427 780 399 780 l 476 780 l 434 598 q 286 524 349 597 q 241 414 241 471 l 241 0 l 57 0 z "},"√":{"ha":867,"x_min":8,"x_max":853,"o":"m 8 696 l 288 802 l 484 317 l 662 1111 l 853 1111 l 608 0 l 415 0 l 172 597 l 57 555 l 8 696 z "},"ř":{"ha":490,"x_min":57,"x_max":476,"o":"m 118 1059 l 228 1059 l 264 982 l 302 1059 l 414 1059 l 309 853 l 220 853 l 118 1059 m 57 0 l 57 773 l 241 773 l 241 688 q 370 772 289 749 q 427 780 399 780 l 476 780 l 434 598 q 286 524 349 597 q 241 414 241 471 l 241 0 l 57 0 z "},"®":{"ha":548,"x_min":41,"x_max":507,"o":"m 269 693 l 269 742 l 274 742 q 307 770 305 743 q 274 802 302 799 l 269 802 l 269 852 q 354 792 342 852 q 355 773 355 783 q 330 719 354 735 q 355 667 353 697 l 359 585 l 312 585 l 308 652 q 269 693 296 690 m 260 480 q 99 562 167 481 q 41 712 41 629 q 153 920 41 852 q 264 954 209 954 l 264 898 q 136 833 189 898 q 95 713 95 781 q 168 570 96 624 q 259 537 210 540 l 260 480 m 286 480 l 286 537 q 420 613 369 541 q 453 715 453 661 q 374 868 453 814 q 286 898 332 898 l 286 954 q 435 887 368 952 q 507 716 507 817 q 411 525 507 595 q 286 480 353 483 m 194 583 l 194 850 l 247 850 l 247 583 l 194 583 z "},"˚":{"ha":331,"x_min":35,"x_max":296,"o":"m 35 713 q 96 823 35 785 q 165 844 127 844 q 275 783 237 844 q 296 713 296 750 q 235 604 296 642 q 165 583 202 583 q 56 644 94 583 q 35 713 35 677 m 122 713 q 152 671 122 681 q 165 670 160 670 q 208 700 198 670 q 209 713 209 708 q 179 755 209 746 q 165 757 171 757 q 123 727 133 757 q 122 713 122 719 z "},"s":{"ha":616,"x_min":27,"x_max":589,"o":"m 27 203 l 195 235 q 241 171 195 190 q 271 164 258 165 l 271 -7 q 53 104 114 -7 q 27 203 27 151 m 35 562 q 153 749 35 688 q 269 780 212 780 l 269 612 q 202 562 202 610 q 327 471 202 510 q 435 442 373 456 q 568 338 529 425 q 589 239 589 293 q 477 31 589 98 q 332 -7 414 -7 l 332 164 q 403 195 380 164 q 414 228 414 210 q 311 301 414 270 q 260 315 294 305 q 161 346 189 334 q 42 494 62 396 q 35 562 35 526 m 330 612 l 331 780 q 528 690 453 780 q 575 567 575 632 l 408 538 q 343 610 408 600 q 330 612 335 612 z "},"ś":{"ha":616,"x_min":27,"x_max":589,"o":"m 237 854 l 288 1061 l 460 1061 l 361 854 l 237 854 m 27 203 l 195 235 q 241 171 195 190 q 271 164 258 165 l 271 -7 q 53 104 114 -7 q 27 203 27 151 m 35 562 q 153 749 35 688 q 269 780 212 780 l 269 612 q 202 562 202 610 q 327 471 202 510 q 435 442 373 456 q 568 338 529 425 q 589 239 589 293 q 477 31 589 98 q 332 -7 414 -7 l 332 164 q 403 195 380 164 q 414 228 414 210 q 311 301 414 270 q 260 315 294 305 q 161 346 189 334 q 42 494 62 396 q 35 562 35 526 m 330 612 l 331 780 q 528 690 453 780 q 575 567 575 632 l 408 538 q 343 610 408 600 q 330 612 335 612 z "},"š":{"ha":616,"x_min":27,"x_max":589,"o":"m 152 1061 l 262 1061 l 298 983 l 336 1061 l 448 1061 l 343 854 l 254 854 l 152 1061 m 27 203 l 195 235 q 241 171 195 190 q 271 164 258 165 l 271 -7 q 53 104 114 -7 q 27 203 27 151 m 35 562 q 153 749 35 688 q 269 780 212 780 l 269 612 q 202 562 202 610 q 327 471 202 510 q 435 442 373 456 q 568 338 529 425 q 589 239 589 293 q 477 31 589 98 q 332 -7 414 -7 l 332 164 q 403 195 380 164 q 414 228 414 210 q 311 301 414 270 q 260 315 294 305 q 161 346 189 334 q 42 494 62 396 q 35 562 35 526 m 330 612 l 331 780 q 528 690 453 780 q 575 567 575 632 l 408 538 q 343 610 408 600 q 330 612 335 612 z "},"§":{"ha":818,"x_min":73,"x_max":745,"o":"m 73 476 q 171 677 75 601 q 157 774 157 716 q 282 1000 157 932 q 397 1029 339 1029 l 549 1029 l 549 850 l 408 850 q 338 803 351 850 q 335 781 335 792 q 372 715 336 745 l 372 505 q 324 524 331 521 q 307 533 317 526 q 288 543 293 540 q 264 484 264 522 q 372 369 266 415 l 372 170 q 247 225 266 214 q 100 358 137 290 q 73 476 73 411 m 269 -5 l 410 -5 q 480 42 467 -5 q 483 64 483 53 q 445 132 481 103 l 445 342 q 494 321 472 331 q 513 312 499 317 q 530 302 525 305 q 553 361 553 323 q 457 471 553 427 q 445 476 450 473 l 445 675 q 571 620 553 629 q 718 487 681 555 q 745 369 745 434 q 647 168 743 244 q 661 71 661 129 q 536 -155 661 -87 q 420 -184 479 -184 l 269 -184 l 269 -5 z "},";":{"ha":395,"x_min":68,"x_max":327,"o":"m 68 -31 l 118 175 l 290 175 l 240 -31 l 68 -31 m 123 488 q 176 579 123 549 q 225 591 199 591 q 315 538 286 591 q 327 488 327 515 q 273 399 327 426 q 225 387 250 387 q 136 441 163 387 q 123 488 123 464 z "},"අ":{"ha":738,"x_min":41,"x_max":697,"o":"m 423 -229 l 600 -229 l 600 0 l 670 0 l 670 190 l 600 190 l 600 491 q 625 559 600 538 q 697 589 650 576 l 656 785 q 518 719 568 755 q 323 784 438 784 q 121 703 193 784 q 79 623 91 667 l 239 570 q 330 620 267 614 q 418 574 396 620 q 425 549 423 562 l 425 545 l 347 545 q 76 415 149 545 q 41 269 41 353 q 193 30 41 95 q 349 0 262 0 l 349 184 q 235 269 236 187 q 324 355 235 350 q 347 357 335 357 l 423 357 l 423 -229 z "},"ආ":{"ha":1100,"x_min":41,"x_max":1059,"o":"m 423 -229 l 600 -229 l 600 0 l 670 0 l 670 190 l 600 190 l 600 491 q 625 559 600 538 q 697 589 650 576 l 656 785 q 518 719 568 755 q 323 784 438 784 q 121 703 193 784 q 79 623 91 667 l 239 570 q 330 620 267 614 q 418 574 396 620 q 425 549 423 562 l 425 545 l 347 545 q 76 415 149 545 q 41 269 41 353 q 193 30 41 95 q 349 0 262 0 l 349 184 q 235 269 236 187 q 324 355 235 350 q 347 357 335 357 l 423 357 l 423 -229 m 765 0 l 792 0 q 1042 159 987 0 q 1059 274 1059 212 l 1059 491 q 926 738 1059 675 q 792 765 868 765 l 765 765 l 765 574 l 792 574 q 868 477 868 572 l 868 274 q 792 191 864 193 l 765 191 l 765 0 z "},"ඈ":{"ha":1100,"x_min":41,"x_max":1059,"o":"m 423 -229 l 600 -229 l 600 0 l 670 0 l 670 190 l 600 190 l 600 491 q 625 559 600 538 q 697 589 650 576 l 656 785 q 518 719 568 755 q 323 784 438 784 q 121 703 193 784 q 79 623 91 667 l 239 570 q 330 620 267 614 q 418 574 396 620 q 425 549 423 562 l 425 545 l 347 545 q 76 415 149 545 q 41 269 41 353 q 193 30 41 95 q 349 0 262 0 l 349 184 q 235 269 236 187 q 324 355 235 350 q 347 357 335 357 l 423 357 l 423 -229 m 765 293 l 765 241 q 922 15 765 62 q 1029 0 971 0 l 1059 0 l 1059 194 l 1031 194 q 956 274 958 197 l 956 293 q 977 346 956 327 q 1059 410 982 350 l 1059 559 l 979 559 l 1059 629 l 1059 779 l 765 779 l 765 629 l 842 629 l 765 559 l 765 410 l 825 410 q 766 327 772 361 q 765 293 765 316 z "},"ඇ":{"ha":1099,"x_min":41,"x_max":1058,"o":"m 423 -229 l 600 -229 l 600 0 l 670 0 l 670 190 l 600 190 l 600 491 q 625 559 600 538 q 697 589 650 576 l 656 785 q 518 719 568 755 q 323 784 438 784 q 121 703 193 784 q 79 623 91 667 l 239 570 q 330 620 267 614 q 418 574 396 620 q 425 549 423 562 l 425 545 l 347 545 q 76 415 149 545 q 41 269 41 353 q 193 30 41 95 q 349 0 262 0 l 349 184 q 235 269 236 187 q 324 355 235 350 q 347 357 335 357 l 423 357 l 423 -229 m 1028 0 l 1058 0 l 1058 194 l 1029 194 q 955 274 956 197 l 955 336 q 978 450 955 403 q 1058 600 981 456 l 1058 779 l 764 779 l 764 591 l 845 591 q 770 435 780 476 q 764 353 764 404 l 764 282 q 924 16 764 71 q 1028 0 971 0 z "},"ඓ":{"ha":1426,"x_min":41,"x_max":1385,"o":"m 338 589 q 410 543 400 587 l 575 585 q 498 720 564 666 q 366 765 441 765 l 282 765 q 56 605 104 765 q 41 503 41 556 l 41 269 q 146 20 41 83 q 255 -7 193 -7 l 283 -7 l 283 170 q 225 243 229 170 q 224 269 224 255 l 224 503 q 270 583 224 564 q 297 589 283 589 l 338 589 m 316 304 l 336 304 q 392 286 384 304 q 396 267 396 278 l 396 222 q 349 170 393 171 l 349 -7 l 391 -7 q 549 90 496 -7 q 579 213 579 145 l 579 346 q 460 479 579 469 q 434 480 448 480 l 316 480 l 316 304 m 696 545 l 830 510 q 884 543 838 543 q 940 499 935 543 q 941 488 941 494 l 941 480 l 647 480 l 647 342 l 715 342 q 700 260 700 311 q 795 60 700 140 q 990 -7 878 -7 l 990 190 q 891 243 910 190 q 887 264 887 254 q 967 342 890 340 l 1081 342 l 1081 475 q 1042 616 1081 566 q 1036 623 1039 620 q 901 682 991 675 q 884 682 891 682 q 722 602 776 682 q 696 545 705 576 m 1146 616 l 1146 732 q 1069 807 1078 747 q 1066 836 1066 821 q 1184 768 1161 836 q 1195 675 1195 734 l 1195 339 q 1066 190 1194 191 l 1066 -7 q 1385 339 1383 -4 l 1385 701 q 1100 1023 1385 1008 q 1066 1024 1082 1024 l 958 1024 l 958 837 q 1086 633 958 688 q 1146 616 1115 623 z "},"ඖ":{"ha":1398,"x_min":41,"x_max":1385,"o":"m 273 -11 q 411 47 358 -9 q 549 -11 463 -11 q 745 85 682 -11 q 781 217 781 142 l 781 705 q 652 983 781 917 q 433 1024 572 1024 l 433 836 q 552 817 522 836 q 595 689 595 785 l 595 229 q 553 178 595 189 q 536 175 545 175 q 481 213 492 175 q 479 229 479 221 l 479 274 l 343 274 l 343 229 q 300 175 343 184 q 286 174 293 174 q 231 208 245 174 q 227 229 227 218 l 227 445 q 247 472 229 468 q 269 445 266 467 l 269 434 q 345 321 269 351 q 400 311 370 311 q 524 373 481 311 q 548 461 548 411 l 548 636 l 423 636 l 423 472 q 401 449 422 450 q 381 472 384 454 l 381 494 q 294 628 381 591 q 222 642 260 642 q 77 574 130 642 q 41 464 41 528 l 41 217 q 142 23 41 84 q 273 -11 199 -11 m 233 719 q 336 837 233 829 q 355 837 346 837 l 355 1024 q 130 941 224 1024 q 47 768 49 867 l 233 719 m 1133 -11 q 1328 71 1255 -11 q 1385 225 1385 134 l 1385 593 q 1294 754 1382 708 q 1215 774 1257 774 q 1081 709 1124 774 q 1058 627 1058 673 l 1058 601 q 1038 578 1057 579 q 1016 601 1017 581 l 1016 765 l 891 765 l 891 549 q 977 404 891 442 q 1040 391 1006 391 q 1153 446 1116 391 q 1171 509 1171 475 l 1171 574 q 1192 601 1172 600 q 1211 581 1208 601 q 1213 574 1213 576 l 1213 225 q 1162 153 1213 168 q 1141 151 1152 151 q 1070 191 1090 151 q 1063 225 1063 208 l 1063 274 l 891 274 l 891 225 q 1005 22 891 84 q 1133 -11 1063 -11 z "},"බ":{"ha":826,"x_min":41,"x_max":785,"o":"m 41 254 q 205 8 41 42 q 286 0 243 0 l 286 190 q 221 239 229 190 q 220 262 220 250 l 220 362 q 262 423 220 412 q 277 425 270 425 q 332 384 320 425 q 335 362 335 373 l 335 187 q 437 14 335 65 q 544 -11 487 -11 q 728 71 659 -11 q 785 236 785 138 l 785 678 q 602 1001 785 932 q 468 1024 541 1024 l 439 1024 l 439 836 l 468 836 q 590 720 572 836 q 595 648 595 689 l 595 236 q 556 187 589 193 q 519 221 526 187 q 518 236 518 229 l 518 369 q 403 586 518 524 q 288 613 351 613 q 99 536 172 613 q 41 384 41 472 l 41 254 m 56 768 l 241 719 q 345 837 241 829 q 363 837 354 837 l 363 1024 q 138 941 232 1024 q 56 768 57 867 z "},"භ":{"ha":1023,"x_min":41,"x_max":982,"o":"m 583 467 l 583 476 q 612 566 581 551 q 639 571 624 571 l 639 765 q 442 677 502 764 q 296 764 395 754 q 273 765 283 765 q 109 682 167 765 q 81 628 91 658 l 216 593 q 269 627 225 625 q 327 563 326 624 l 41 563 l 41 403 l 102 403 q 92 345 92 376 l 92 269 q 224 18 92 81 q 359 -11 282 -11 l 359 183 q 283 270 283 184 l 283 330 q 359 403 288 401 l 395 403 l 395 327 l 441 327 q 507 255 507 323 q 434 183 503 184 l 434 -11 q 674 191 658 -11 q 675 225 675 208 l 675 293 q 600 463 675 433 q 583 467 591 465 m 715 -11 q 964 149 909 -11 q 982 269 982 203 l 982 479 q 833 745 982 686 q 715 765 781 765 l 715 571 q 791 479 789 567 l 791 269 q 715 183 788 184 l 715 -11 z "},"ච":{"ha":819,"x_min":41,"x_max":779,"o":"m 384 -7 q 153 96 237 -7 q 94 260 94 170 q 109 342 94 311 l 41 342 l 41 480 l 335 480 l 335 488 q 278 543 326 536 q 224 510 233 540 l 90 545 q 248 681 125 663 q 278 682 264 682 q 422 631 369 682 q 430 623 427 627 q 475 495 472 574 q 475 475 475 484 l 475 342 l 361 342 q 288 293 305 342 q 282 266 282 279 q 335 191 282 212 q 384 183 358 183 l 384 -7 m 460 -7 l 460 183 q 587 309 576 183 q 589 339 589 324 l 589 675 q 541 818 589 787 q 460 836 511 836 l 460 1024 q 779 705 777 1021 l 779 339 q 460 -7 776 -5 m 275 719 l 90 768 q 194 959 90 880 q 384 1024 281 1024 l 384 837 q 279 755 296 837 q 275 719 275 738 z "},"ඡ":{"ha":888,"x_min":41,"x_max":888,"o":"m 392 -16 l 464 -16 q 803 225 774 -16 q 806 274 806 250 l 806 355 q 673 488 803 487 l 568 488 q 515 524 530 488 q 511 545 511 534 q 547 598 511 583 q 568 602 557 602 q 621 567 606 602 q 625 545 625 556 l 793 545 q 707 724 793 655 q 675 745 692 735 l 888 1024 l 692 1076 l 425 723 q 262 780 362 780 q 76 693 142 780 q 41 624 53 662 l 201 571 q 264 612 216 609 q 330 579 309 612 q 339 545 339 563 l 269 545 q 71 458 115 545 q 47 340 47 412 l 236 340 q 283 384 240 382 l 401 384 q 566 319 465 319 l 616 320 l 616 274 q 519 171 616 189 q 475 167 498 167 l 377 167 q 239 251 255 167 q 236 274 236 262 l 46 274 q 259 -4 46 42 q 392 -16 319 -16 z "},"ද":{"ha":749,"x_min":41,"x_max":749,"o":"m 500 -277 q 278 -172 342 -277 q 248 -61 248 -123 l 434 -61 q 471 -100 434 -88 q 500 -106 486 -106 q 564 -75 547 -106 q 568 -64 567 -69 l 749 -110 q 549 -274 701 -252 q 500 -277 525 -277 m 41 269 q 191 517 41 452 q 347 545 259 545 l 425 545 q 361 617 425 602 q 331 620 346 620 q 244 582 267 620 q 239 570 240 575 l 79 623 q 224 768 107 730 q 324 784 271 784 q 536 703 456 784 q 600 541 600 637 l 600 357 l 347 357 q 239 301 255 357 q 235 269 235 286 q 349 184 236 186 l 399 184 q 496 224 473 184 q 500 233 499 229 l 674 187 q 526 26 642 75 q 399 0 465 0 l 349 0 q 91 106 174 0 q 41 269 41 172 z "},"ඩ":{"ha":857,"x_min":41,"x_max":817,"o":"m 340 -11 q 460 47 416 -9 q 601 -11 514 -11 q 780 83 720 -11 q 817 217 817 140 l 817 705 q 650 1002 817 945 q 496 1024 587 1024 l 496 836 q 610 785 589 836 q 625 675 625 753 l 625 225 q 594 183 625 194 q 572 179 583 179 q 521 225 528 186 l 521 274 l 385 274 l 385 225 q 349 180 385 189 q 334 179 340 179 q 282 217 290 179 q 281 225 281 221 l 281 297 q 328 340 285 339 l 521 340 l 521 473 q 481 614 521 564 q 476 621 479 618 q 340 681 431 674 q 324 681 331 681 q 161 601 216 681 q 136 544 145 575 l 270 509 q 324 541 278 541 q 381 479 378 536 l 41 479 l 41 340 l 109 340 q 98 297 98 332 l 98 217 q 201 24 98 87 q 340 -11 262 -11 m 102 768 l 288 719 q 420 837 289 836 l 420 1024 q 193 944 290 1024 q 102 768 103 869 z "},"ඪ":{"ha":857,"x_min":41,"x_max":817,"o":"m 340 -11 q 460 47 416 -9 q 601 -11 514 -11 q 780 83 720 -11 q 817 217 817 140 l 817 701 q 532 1023 817 1008 q 498 1024 514 1024 l 389 1024 l 389 837 q 518 633 389 688 q 578 616 547 623 l 578 732 q 500 807 510 747 q 498 836 498 821 q 616 768 593 836 q 627 675 627 734 l 627 225 q 594 182 627 193 q 572 179 583 179 q 521 225 528 186 l 521 274 l 385 274 l 385 225 q 349 180 385 189 q 334 179 340 179 q 282 217 290 179 q 281 225 281 221 l 281 297 q 328 340 285 339 l 521 340 l 521 473 q 481 614 521 564 q 476 621 479 618 q 340 681 431 674 q 324 681 331 681 q 161 601 216 681 q 136 544 145 575 l 270 509 q 324 541 278 541 q 381 479 378 536 l 41 479 l 41 340 l 109 340 q 98 297 98 332 l 98 217 q 201 24 98 87 q 340 -11 262 -11 z "},"ධ":{"ha":804,"x_min":41,"x_max":764,"o":"m 288 -11 q 407 47 363 -9 q 548 -11 461 -11 q 727 83 667 -11 q 764 217 764 140 l 764 705 q 597 1002 764 945 q 444 1024 534 1024 l 444 836 q 557 785 536 836 q 572 675 572 753 l 572 225 q 541 183 572 194 q 519 179 530 179 q 468 225 475 186 l 468 274 l 332 274 l 332 225 q 296 180 332 189 q 281 179 288 179 q 229 217 237 179 q 228 225 228 221 l 228 355 q 327 456 236 452 l 357 456 l 357 643 l 327 643 q 42 407 62 643 q 41 355 41 384 l 41 217 q 146 24 41 87 q 288 -11 208 -11 m 49 768 l 235 719 q 368 837 236 836 l 368 1024 q 140 944 237 1024 q 49 768 50 869 z "},"එ":{"ha":819,"x_min":41,"x_max":779,"o":"m 90 545 l 224 510 q 278 543 232 543 q 334 499 328 543 q 335 488 335 494 l 335 480 l 41 480 l 41 342 l 109 342 q 94 260 94 311 q 189 60 94 140 q 384 -7 271 -7 l 384 190 q 285 243 304 190 q 281 264 281 254 q 361 342 283 340 l 475 342 l 475 475 q 435 616 475 566 q 430 623 433 620 q 294 682 385 675 q 278 682 285 682 q 115 602 170 682 q 90 545 99 576 m 540 616 l 540 732 q 463 807 472 747 q 460 836 460 821 q 578 768 555 836 q 589 675 589 734 l 589 339 q 460 190 587 191 l 460 -7 q 779 339 777 -4 l 779 701 q 494 1023 779 1008 q 460 1024 476 1024 l 351 1024 l 351 837 q 480 633 351 688 q 540 616 509 623 z "},"ඒ":{"ha":819,"x_min":41,"x_max":779,"o":"m 41 342 l 109 342 q 94 260 94 311 q 189 60 94 140 q 384 -7 271 -7 l 384 190 q 285 243 304 190 q 281 264 281 254 q 361 342 283 340 l 475 342 l 475 475 q 435 616 475 566 q 430 623 433 620 q 294 682 385 675 q 278 682 285 682 q 115 602 170 682 q 90 545 99 576 l 224 510 q 278 543 232 543 q 334 499 328 543 q 335 488 335 494 l 335 480 l 41 480 l 41 342 m 351 837 q 480 633 351 688 q 540 616 509 623 l 540 732 q 463 807 472 747 q 460 836 460 821 q 578 768 555 836 q 589 675 589 734 l 589 339 q 460 190 587 191 l 460 -7 q 779 339 777 -4 l 779 701 q 777 742 779 730 l 777 1111 l 593 1111 l 593 1006 q 460 1024 533 1024 l 351 1024 l 351 837 z "},"ෆ":{"ha":882,"x_min":41,"x_max":841,"o":"m 41 340 l 41 537 q 174 746 41 696 q 288 765 224 765 q 445 705 389 764 q 593 765 500 765 q 804 666 738 765 q 841 537 841 612 l 841 340 l 652 340 l 652 522 q 610 574 652 562 q 590 576 600 576 q 530 540 544 576 q 528 519 528 529 l 528 340 l 354 340 l 354 519 q 309 574 354 563 q 292 576 300 576 q 232 541 245 576 q 229 522 229 532 l 229 340 l 41 340 m 41 274 l 229 274 q 305 194 233 195 l 305 0 q 52 178 98 0 q 41 274 41 222 m 576 0 l 576 194 q 652 274 652 195 l 841 274 q 688 18 841 72 q 576 0 639 0 z "},"ග":{"ha":972,"x_min":41,"x_max":932,"o":"m 308 -11 l 308 183 q 232 269 232 184 l 232 472 q 308 571 235 570 l 308 765 q 58 605 114 765 q 41 486 41 551 l 41 269 q 172 18 41 81 q 308 -11 231 -11 m 665 -11 q 914 149 859 -11 q 932 269 932 203 l 932 486 q 800 736 932 673 q 665 765 742 765 l 665 571 q 741 472 741 570 l 741 269 q 665 183 738 184 l 665 -11 m 345 327 l 384 327 q 457 255 456 323 q 384 183 453 184 l 384 -11 q 624 191 608 -11 q 625 225 625 208 l 625 293 q 533 467 624 441 l 533 475 q 544 551 533 534 q 589 571 559 571 l 589 765 q 349 552 377 765 q 345 475 345 517 l 345 327 z "},"ඝ":{"ha":932,"x_min":41,"x_max":891,"o":"m 312 -15 q 457 92 450 -7 q 491 137 463 133 q 524 107 517 137 q 525 92 525 99 q 643 -14 525 -4 q 670 -15 656 -15 q 859 84 799 -15 q 891 213 891 140 l 891 270 l 703 270 l 703 225 q 671 183 703 194 q 650 179 661 179 q 598 225 605 186 q 563 275 598 269 q 552 277 557 277 l 430 277 q 384 225 389 269 q 347 180 384 189 q 332 179 339 179 q 281 217 289 179 q 279 225 279 221 l 279 270 l 91 270 l 91 213 q 190 18 91 79 q 312 -15 243 -15 m 106 624 l 266 571 q 330 612 281 609 q 397 572 378 612 q 404 545 403 559 l 41 545 l 41 384 l 96 384 q 92 370 95 380 q 91 349 92 363 q 91 340 91 342 l 279 340 q 321 382 279 377 q 334 384 328 384 l 652 384 q 703 340 700 381 l 891 340 l 891 378 q 701 545 891 540 q 682 545 692 545 l 578 545 q 639 610 583 601 q 652 612 647 612 q 716 571 704 610 l 876 624 q 732 768 842 734 q 655 780 694 780 q 491 727 564 779 q 327 780 416 780 q 141 693 208 780 q 106 624 118 662 z "},"හ":{"ha":971,"x_min":41,"x_max":930,"o":"m 532 467 l 532 479 q 564 567 529 553 q 587 571 575 571 l 587 765 q 397 688 457 764 q 235 765 336 761 q 71 682 129 765 q 43 628 53 658 l 178 593 q 231 627 187 625 q 289 575 288 624 q 54 416 100 567 q 41 323 41 373 l 41 269 q 172 18 41 81 q 308 -11 231 -11 l 308 183 q 232 269 232 184 l 232 309 q 308 381 239 378 l 343 381 l 343 327 l 389 327 q 456 255 456 323 q 382 183 452 184 l 382 -11 q 623 191 606 -11 q 624 225 624 208 l 624 293 q 548 463 624 433 q 532 467 540 465 m 663 -11 q 913 149 857 -11 q 930 269 930 203 l 930 486 q 799 736 930 673 q 663 765 741 765 l 663 571 q 739 472 739 570 l 739 269 q 663 183 736 184 l 663 -11 z "},"්":{"ha":266,"x_min":41,"x_max":225,"o":"m 41 840 l 41 1111 l 225 1111 l 225 840 l 41 840 z "},"ඉ":{"ha":772,"x_min":41,"x_max":731,"o":"m 266 0 l 389 0 q 636 98 537 0 q 731 338 731 191 l 731 528 q 620 731 731 655 q 445 784 540 784 l 423 784 l 423 593 q 543 507 526 593 q 545 468 545 490 l 545 377 q 354 176 545 197 q 305 174 330 174 l 266 174 l 266 0 m 88 -110 q 288 -274 136 -252 q 336 -277 312 -277 q 559 -172 495 -277 q 589 -61 589 -122 l 403 -61 q 366 -100 403 -88 q 336 -106 351 -106 q 273 -75 290 -106 q 269 -64 270 -69 l 88 -110 m 41 431 q 127 271 41 324 q 266 239 184 239 q 480 376 475 245 l 480 495 l 304 495 l 304 471 q 266 429 301 430 q 228 469 228 430 l 228 506 q 292 589 228 571 q 327 593 309 593 l 349 593 l 349 784 l 327 784 q 117 703 203 784 q 41 529 41 629 l 41 431 z "},"ඊ":{"ha":826,"x_min":41,"x_max":826,"o":"m 41 327 q 195 23 41 100 q 331 -8 256 -8 l 331 189 q 239 243 256 189 q 231 319 231 270 l 231 567 q 245 642 231 617 q 298 700 262 663 l 628 1027 l 434 1076 l 123 781 q 42 628 49 711 q 41 579 41 609 l 41 327 m 292 591 l 292 585 l 407 585 q 500 543 484 585 q 509 444 509 518 l 509 319 q 471 202 509 225 q 407 189 446 189 l 407 -7 q 697 282 682 -7 q 699 317 699 300 l 699 499 q 510 765 699 754 q 495 765 502 765 l 464 765 l 292 591 m 628 894 q 678 810 628 838 q 727 796 701 796 q 814 848 785 796 q 826 894 826 869 q 774 981 826 952 q 727 993 751 993 q 640 941 669 993 q 628 894 628 918 m 68 1043 q 118 959 68 987 q 167 945 141 945 q 254 997 225 945 q 266 1043 266 1019 q 214 1130 266 1101 q 167 1142 191 1142 q 80 1090 109 1142 q 68 1043 68 1067 z "},"ජ":{"ha":886,"x_min":41,"x_max":886,"o":"m 41 624 l 201 571 q 264 612 216 609 q 332 572 313 612 q 339 545 338 559 l 269 545 q 71 458 115 545 q 47 340 47 412 l 236 340 q 283 384 240 382 l 578 384 q 617 340 617 382 l 806 340 q 709 526 806 488 q 574 545 661 545 l 513 545 q 574 610 518 601 q 587 612 582 612 q 651 571 639 610 l 811 624 q 686 761 779 723 l 886 1024 l 689 1076 l 425 728 q 262 780 351 780 q 76 693 142 780 q 41 624 53 662 m 392 -16 l 464 -16 q 803 225 774 -16 q 806 274 806 250 l 616 274 q 519 171 616 189 q 475 167 498 167 l 377 167 q 239 251 255 167 q 236 274 236 262 l 46 274 q 259 -4 46 42 q 392 -16 319 -16 z "},"ඣ":{"ha":1544,"x_min":41,"x_max":1503,"o":"m 41 217 l 57 220 q 88 165 87 212 l 88 144 q 168 22 88 69 q 275 -9 218 -9 q 393 49 354 -8 q 522 -9 441 -9 q 673 60 613 -9 q 718 184 718 114 l 718 296 q 636 467 718 418 q 608 480 623 473 l 476 374 q 543 290 537 350 q 543 274 543 282 l 543 220 q 510 180 543 186 q 502 179 506 179 q 463 210 469 179 q 461 220 461 216 l 461 274 l 326 274 l 326 217 q 294 180 326 186 q 286 179 289 179 q 245 217 251 186 l 245 274 l 576 543 q 743 601 647 601 q 863 566 818 600 q 780 355 781 503 l 780 217 q 886 24 780 87 q 1027 -11 947 -11 q 1146 47 1103 -9 q 1287 -11 1200 -11 q 1466 83 1407 -11 q 1503 217 1503 140 l 1503 705 q 1305 1009 1503 959 q 1172 1024 1246 1024 l 1172 836 q 1297 780 1271 836 q 1312 675 1312 745 l 1312 225 q 1280 183 1312 194 q 1259 179 1270 179 q 1207 225 1214 186 l 1207 274 l 1072 274 l 1072 225 q 1035 180 1072 189 q 1020 179 1027 179 q 968 217 977 179 q 967 225 967 221 l 967 355 q 1066 456 975 452 l 1096 456 q 925 749 1096 670 q 747 784 846 784 q 454 690 579 783 l 452 689 q 320 765 414 747 q 269 769 294 769 q 94 704 160 769 q 41 595 50 659 l 199 545 q 237 600 199 585 q 269 605 252 605 q 321 581 302 604 l 41 351 l 41 217 m 811 864 l 996 798 q 1096 837 1027 837 l 1096 1024 q 861 933 954 1024 q 811 864 830 901 z "},"ඥ":{"ha":1469,"x_min":41,"x_max":1469,"o":"m 1072 -11 l 1122 -11 q 1340 79 1257 -11 q 1397 176 1381 122 l 1223 222 q 1122 174 1195 175 l 1072 174 q 979 224 1000 174 q 975 247 975 236 q 1027 311 975 294 q 1070 317 1047 317 l 1324 317 l 1324 500 q 1310 598 1324 555 q 1275 669 1295 642 q 1220 715 1255 696 q 1158 745 1185 735 q 1088 759 1130 754 q 1024 764 1046 764 q 966 765 1002 765 l 964 765 l 964 570 q 974 570 966 570 q 1130 500 1128 579 l 1062 500 q 852 415 926 499 q 796 464 827 450 l 796 475 q 807 551 796 534 q 852 571 822 571 l 890 571 l 890 765 l 852 765 q 612 552 640 765 q 608 475 608 517 l 608 327 l 647 327 q 720 255 719 323 q 647 183 716 184 l 647 -11 q 853 79 798 -9 q 1072 -11 935 -11 m 41 267 q 127 -24 41 102 q 151 -56 138 -41 l 327 -1 q 232 176 245 96 q 225 267 225 213 l 225 389 q 258 555 225 524 q 304 571 275 571 l 312 571 q 304 486 304 530 l 304 269 q 435 18 304 81 q 571 -11 494 -11 l 571 183 q 495 269 495 184 l 495 472 q 571 571 498 570 l 571 765 l 359 765 q 79 629 142 765 q 41 389 41 549 l 41 267 m 1221 -288 q 1462 -140 1401 -288 q 1469 -121 1466 -130 l 1289 -75 q 1233 -115 1280 -109 q 1221 -117 1226 -117 q 1157 -85 1173 -117 q 1154 -72 1154 -77 l 968 -72 q 1072 -252 968 -194 q 1221 -288 1134 -288 z "},"ක":{"ha":1085,"x_min":41,"x_max":1044,"o":"m 41 595 l 199 545 q 237 600 199 585 q 269 605 252 605 q 321 581 304 604 l 41 351 l 41 217 l 57 220 q 88 165 87 212 l 88 144 q 168 22 88 69 q 275 -9 218 -9 q 393 49 354 -8 q 522 -9 441 -9 q 673 60 613 -9 q 718 184 718 114 l 718 296 q 636 467 718 418 q 608 480 623 473 l 476 374 q 543 290 537 350 q 543 274 543 282 l 543 220 q 510 180 543 186 q 502 179 506 179 q 463 210 469 179 q 461 220 461 216 l 461 274 l 326 274 l 326 217 q 294 180 326 186 q 286 179 289 179 q 245 217 251 186 l 245 274 l 576 543 q 690 589 628 589 q 822 519 773 589 q 854 416 854 473 l 854 278 q 779 193 852 194 l 779 -1 q 1028 163 975 -1 q 1044 278 1044 216 l 1044 435 q 899 727 1044 636 q 712 779 818 779 q 452 690 566 777 q 309 766 408 753 q 269 769 289 769 q 94 704 160 769 q 41 595 50 659 z "},"ඛ":{"ha":848,"x_min":41,"x_max":807,"o":"m 597 -9 q 774 102 720 -9 q 807 270 807 171 l 807 678 q 574 1017 807 978 q 488 1024 534 1024 l 446 1024 l 446 836 l 488 836 q 606 770 583 836 q 617 678 617 738 l 617 239 q 585 198 617 203 q 576 197 579 197 q 537 228 543 197 q 536 239 536 235 l 536 407 q 429 582 536 525 q 296 613 368 613 q 96 530 170 613 q 41 370 41 465 l 41 256 q 222 5 41 37 q 290 0 254 0 l 290 190 q 227 237 235 190 q 224 274 224 252 l 224 354 q 269 422 224 407 q 289 425 279 425 q 349 381 335 425 q 353 354 353 368 l 353 -88 l 536 -88 l 536 -1 q 597 -9 567 -9 m 248 719 q 345 834 248 825 q 370 836 357 836 l 370 1024 q 145 941 239 1024 q 62 768 64 867 l 248 719 z "},"ල":{"ha":849,"x_min":41,"x_max":808,"o":"m 336 292 q 566 73 339 75 q 787 206 732 73 q 808 326 808 259 l 808 449 q 576 769 808 716 q 467 780 525 780 l 467 590 q 620 476 604 590 q 621 449 621 463 l 621 326 q 566 263 618 264 q 510 319 511 264 l 510 340 l 567 340 l 567 495 l 279 495 l 279 340 l 336 340 l 336 292 m 384 -232 l 384 -42 q 231 77 244 -42 q 229 100 229 90 l 229 449 q 354 589 229 574 q 384 590 369 590 l 384 780 q 66 602 138 780 q 41 449 41 536 l 41 100 q 240 -209 41 -141 q 384 -232 307 -232 m 467 -45 l 467 -235 q 780 -62 708 -235 q 799 -1 792 -34 l 616 50 q 467 -45 589 -43 z "},"ළ":{"ha":826,"x_min":41,"x_max":799,"o":"m 156 571 l 313 590 q 351 631 316 629 q 388 593 385 629 l 503 593 q 538 629 511 624 q 575 593 572 624 l 732 593 q 642 758 732 711 q 544 780 600 780 q 448 743 481 779 q 345 780 406 780 q 175 689 220 780 q 156 605 156 651 l 156 571 m 41 104 q 217 -201 41 -125 q 384 -231 290 -231 l 384 -41 q 229 102 231 -38 l 229 191 q 407 92 290 106 q 441 91 425 91 l 486 91 q 720 229 650 91 q 735 262 728 245 l 582 301 q 498 252 562 259 q 480 251 488 251 l 453 251 q 340 313 377 251 q 327 347 332 330 l 336 347 l 734 347 l 734 526 l 293 525 q 115 450 190 525 q 41 263 41 376 l 41 104 m 467 -41 l 467 -231 q 780 -58 708 -231 q 799 3 792 -30 l 616 54 q 467 -41 589 -39 z "},"ම":{"ha":814,"x_min":41,"x_max":773,"o":"m 41 342 l 41 406 q 138 612 41 551 q 228 639 180 639 q 350 572 312 639 q 369 494 369 537 l 369 472 q 389 449 370 450 q 411 472 410 452 l 411 636 l 536 636 l 536 461 q 452 321 536 357 q 393 311 423 311 q 277 366 316 311 q 256 434 256 397 l 256 445 q 235 472 255 471 q 216 452 218 472 q 214 445 214 448 l 214 342 q 298 189 214 212 q 354 183 321 183 l 354 -7 q 49 244 92 -7 q 41 342 41 290 m 430 -7 l 430 183 q 555 222 524 183 q 583 342 583 260 l 583 675 q 513 825 583 799 q 430 834 483 834 l 430 1023 q 773 675 772 1021 l 773 342 q 430 -7 770 -5 m 46 766 q 159 963 46 887 q 354 1023 247 1023 l 354 836 q 233 742 244 836 q 232 718 232 730 l 46 766 z "},"ා":{"ha":376,"x_min":41,"x_max":335,"o":"m 41 0 l 41 194 l 68 194 q 144 279 144 195 l 144 486 q 68 585 141 583 l 41 585 l 41 779 l 68 779 q 317 618 262 779 q 335 499 335 564 l 335 279 q 203 28 335 92 q 68 0 145 0 l 41 0 z "},"ෑ":{"ha":376,"x_min":41,"x_max":335,"o":"m 41 293 l 41 241 q 198 15 41 62 q 305 0 247 0 l 335 0 l 335 194 l 307 194 q 232 274 233 197 l 232 293 q 252 346 232 327 q 335 410 258 350 l 335 559 l 255 559 l 335 629 l 335 779 l 41 779 l 41 629 l 118 629 l 41 559 l 41 410 l 100 410 q 42 327 47 361 q 41 293 41 316 z "},"ැ":{"ha":376,"x_min":41,"x_max":335,"o":"m 305 0 l 335 0 l 335 194 l 307 194 q 232 274 233 197 l 232 336 q 255 450 232 403 q 335 600 258 456 l 335 779 l 41 779 l 41 591 l 122 591 q 47 435 57 476 q 41 353 41 404 l 41 282 q 201 16 41 71 q 305 0 248 0 z "},"ෛ":{"ha":1204,"x_min":41,"x_max":1164,"o":"m 338 589 q 410 543 400 587 l 575 585 q 498 720 564 666 q 366 765 441 765 l 282 765 q 56 605 104 765 q 41 503 41 556 l 41 269 q 146 20 41 83 q 255 -7 193 -7 l 283 -7 l 283 170 q 225 243 229 170 q 224 269 224 255 l 224 503 q 270 583 224 564 q 297 589 283 589 l 338 589 m 316 304 l 336 304 q 392 286 384 304 q 396 267 396 278 l 396 222 q 349 170 393 171 l 349 -7 l 391 -7 q 549 90 496 -7 q 579 213 579 145 l 579 346 q 460 479 579 469 q 434 480 448 480 l 316 480 l 316 304 m 922 593 q 994 547 985 591 l 1160 589 q 1082 724 1149 670 q 951 769 1025 769 l 867 769 q 640 609 689 769 q 625 507 625 560 l 625 273 q 731 24 625 87 q 840 -3 777 -3 l 868 -3 l 868 174 q 810 247 814 174 q 808 273 808 259 l 808 507 q 854 587 808 568 q 882 593 868 593 l 922 593 m 901 308 l 921 308 q 977 290 968 308 q 981 271 981 282 l 981 227 q 933 174 978 175 l 933 -3 l 975 -3 q 1134 94 1081 -3 q 1164 217 1164 149 l 1164 350 q 1044 483 1164 473 q 1019 484 1032 484 l 901 484 l 901 308 z "},"ෞ":{"ha":1389,"x_min":41,"x_max":1375,"o":"m 338 589 q 410 543 400 587 l 575 585 q 498 720 564 666 q 366 765 441 765 l 282 765 q 56 605 104 765 q 41 503 41 556 l 41 269 q 146 20 41 83 q 255 -7 193 -7 l 283 -7 l 283 170 q 225 243 229 170 q 224 269 224 255 l 224 503 q 270 583 224 564 q 297 589 283 589 l 338 589 m 316 304 l 336 304 q 392 286 384 304 q 396 267 396 278 l 396 222 q 349 170 393 171 l 349 -7 l 391 -7 q 549 90 496 -7 q 579 213 579 145 l 579 346 q 460 479 579 469 q 434 480 448 480 l 316 480 l 316 304 m 1123 -11 q 1318 71 1245 -11 q 1375 225 1375 134 l 1375 593 q 1284 754 1373 708 q 1206 774 1248 774 q 1072 709 1115 774 q 1048 627 1048 673 l 1048 601 q 1028 578 1047 579 q 1006 601 1008 581 l 1006 765 l 882 765 l 882 549 q 967 404 882 442 q 1031 391 997 391 q 1143 446 1107 391 q 1161 509 1161 475 l 1161 574 q 1183 601 1162 600 q 1202 581 1199 601 q 1203 574 1203 576 l 1203 225 q 1153 153 1203 168 q 1131 151 1142 151 q 1061 191 1081 151 q 1054 225 1054 208 l 1054 274 l 882 274 l 882 225 q 996 22 882 84 q 1123 -11 1054 -11 z "},"ෙ":{"ha":620,"x_min":41,"x_max":579,"o":"m 338 589 q 410 543 400 587 l 575 585 q 498 720 564 666 q 366 765 441 765 l 282 765 q 56 605 104 765 q 41 503 41 556 l 41 269 q 146 20 41 83 q 255 -7 193 -7 l 283 -7 l 283 170 q 225 243 229 170 q 224 269 224 255 l 224 503 q 270 583 224 564 q 297 589 283 589 l 338 589 m 316 304 l 336 304 q 392 286 384 304 q 396 267 396 278 l 396 222 q 349 170 393 171 l 349 -7 l 391 -7 q 549 90 496 -7 q 579 213 579 145 l 579 346 q 460 479 579 469 q 434 480 448 480 l 316 480 l 316 304 z "},"ේ":{"ha":1080,"x_min":41,"x_max":1039,"o":"m 338 589 q 410 543 400 587 l 575 585 q 498 720 564 666 q 366 765 441 765 l 282 765 q 56 605 104 765 q 41 503 41 556 l 41 269 q 146 20 41 83 q 255 -7 193 -7 l 283 -7 l 283 170 q 225 243 229 170 q 224 269 224 255 l 224 503 q 270 583 224 564 q 297 589 283 589 l 338 589 m 316 304 l 336 304 q 392 286 384 304 q 396 267 396 278 l 396 222 q 349 170 393 171 l 349 -7 l 391 -7 q 549 90 496 -7 q 579 213 579 145 l 579 346 q 460 479 579 469 q 434 480 448 480 l 316 480 l 316 304 m 854 840 l 1039 840 l 1039 1111 l 854 1111 l 854 840 z "},"ි":{"ha":0,"x_min":-777,"x_max":-68,"o":"m -777 817 l -777 854 q -681 1029 -777 968 q -538 1070 -618 1070 l -307 1070 q -113 985 -182 1070 q -68 854 -68 928 l -68 817 l -244 817 q -309 892 -244 886 q -328 894 -319 894 l -517 894 q -597 848 -583 891 q -601 817 -601 834 l -777 817 z "},"ී":{"ha":0,"x_min":-826,"x_max":-66,"o":"m -203 750 q -81 829 -115 750 q -66 903 -66 864 q -141 1046 -66 994 q -255 1080 -191 1080 l -587 1080 q -781 994 -712 1080 q -826 864 -826 937 l -826 817 l -650 817 q -566 903 -639 897 l -328 903 q -336 865 -336 879 q -275 766 -336 799 q -203 750 -243 750 z "},"ෳ":{"ha":575,"x_min":45,"x_max":538,"o":"m 286 -11 q 96 72 165 -11 q 45 225 45 134 l 45 274 l 217 274 l 217 225 q 267 155 217 172 q 294 151 281 151 q 362 195 346 151 q 366 225 366 209 l 366 574 q 346 601 363 597 q 324 574 327 595 l 324 509 q 254 403 324 433 q 194 391 225 391 q 69 456 111 391 q 45 549 45 496 l 45 765 l 170 765 l 170 601 q 191 578 171 579 q 212 601 209 583 l 212 627 q 297 761 212 723 q 369 774 331 774 q 506 703 457 774 q 538 593 537 656 l 538 225 q 426 26 538 91 q 286 -11 362 -11 z "},"ෟ":{"ha":575,"x_min":41,"x_max":534,"o":"m 282 -11 q 92 72 161 -11 q 41 225 41 134 l 41 274 l 213 274 l 213 225 q 263 155 213 172 q 290 151 277 151 q 358 195 342 151 q 362 225 362 209 l 362 574 q 342 601 359 597 q 320 574 323 595 l 320 509 q 250 403 320 433 q 190 391 221 391 q 65 456 107 391 q 41 549 41 496 l 41 765 l 165 765 l 165 601 q 187 578 167 579 q 208 601 205 583 l 208 627 q 293 761 208 723 q 365 774 327 774 q 502 703 453 774 q 534 593 533 656 l 534 225 q 422 26 534 91 q 282 -11 358 -11 z "},"ො":{"ha":1086,"x_min":41,"x_max":1046,"o":"m 338 589 q 410 543 400 587 l 575 585 q 498 720 564 666 q 366 765 441 765 l 282 765 q 56 605 104 765 q 41 503 41 556 l 41 269 q 146 20 41 83 q 255 -7 193 -7 l 283 -7 l 283 170 q 225 243 229 170 q 224 269 224 255 l 224 503 q 270 583 224 564 q 297 589 283 589 l 338 589 m 316 304 l 336 304 q 392 286 384 304 q 396 267 396 278 l 396 222 q 349 170 393 171 l 349 -7 l 391 -7 q 549 90 496 -7 q 579 213 579 145 l 579 346 q 460 479 579 469 q 434 480 448 480 l 316 480 l 316 304 m 751 0 l 779 0 q 1028 160 972 0 q 1046 279 1046 214 l 1046 499 q 914 750 1046 686 q 779 779 856 779 l 751 779 l 751 585 l 779 585 q 854 486 854 583 l 854 279 q 779 194 852 195 l 751 194 l 751 0 z "},"ෝ":{"ha":1086,"x_min":41,"x_max":1046,"o":"m 338 589 q 410 543 400 587 l 575 585 q 498 720 564 666 q 366 765 441 765 l 282 765 q 56 605 104 765 q 41 503 41 556 l 41 269 q 146 20 41 83 q 255 -7 193 -7 l 283 -7 l 283 170 q 225 243 229 170 q 224 269 224 255 l 224 503 q 270 583 224 564 q 297 589 283 589 l 338 589 m 316 304 l 336 304 q 392 286 384 304 q 396 267 396 278 l 396 222 q 349 170 393 171 l 349 -7 l 391 -7 q 549 90 496 -7 q 579 213 579 145 l 579 346 q 460 479 579 469 q 434 480 448 480 l 316 480 l 316 304 m 751 0 l 779 0 q 1028 160 972 0 q 1046 279 1046 214 l 1046 499 q 914 750 1046 686 q 779 779 856 779 l 751 779 l 751 585 l 779 585 q 854 486 854 583 l 854 279 q 779 194 852 195 l 751 194 l 751 0 m 750 840 l 935 840 l 935 1111 l 750 1111 l 750 840 z "},"ෘ":{"ha":509,"x_min":41,"x_max":468,"o":"m 255 0 q 425 76 363 0 q 468 213 468 133 l 468 540 q 382 732 468 663 q 252 779 324 779 l 106 779 l 106 602 l 228 602 q 304 537 297 602 q 305 518 305 528 l 305 213 q 269 161 305 172 q 255 160 262 160 q 202 195 216 160 q 199 213 199 205 q 255 266 206 262 l 255 420 q 56 298 100 420 q 41 213 41 259 q 141 30 41 87 q 255 0 194 0 z "},"ෲ":{"ha":977,"x_min":41,"x_max":936,"o":"m 255 0 q 425 76 363 0 q 468 213 468 133 l 468 540 q 382 732 468 663 q 252 779 324 779 l 106 779 l 106 602 l 228 602 q 304 537 297 602 q 305 518 305 528 l 305 213 q 269 161 305 172 q 255 160 262 160 q 202 195 216 160 q 199 213 199 205 q 255 266 206 262 l 255 420 q 56 298 100 420 q 41 213 41 259 q 141 30 41 87 q 255 0 194 0 m 723 0 q 892 76 831 0 q 936 213 936 133 l 936 540 q 850 732 936 663 q 720 779 792 779 l 574 779 l 574 602 l 696 602 q 772 537 765 602 q 773 518 773 528 l 773 213 q 736 161 773 172 q 723 160 730 160 q 670 195 684 160 q 667 213 667 205 q 723 266 674 262 l 723 420 q 524 298 568 420 q 509 213 509 259 q 609 30 509 87 q 723 0 662 0 z "},"ු":{"ha":0,"x_min":-648,"x_max":-41,"o":"m -231 167 l -231 -88 l -326 -88 l -326 -278 l -41 -278 l -41 167 l -231 167 m -648 -88 l -648 -278 l -401 -278 l -401 -88 l -648 -88 z "},"ූ":{"ha":0,"x_min":-659,"x_max":-43,"o":"m -659 -53 l -659 -243 q -563 -278 -610 -278 q -463 -256 -537 -278 q -404 -247 -427 -247 l -404 -57 q -500 -77 -426 -57 q -563 -88 -537 -88 q -659 -53 -612 -87 m -233 -278 l -43 -278 l -43 167 l -233 167 l -233 -83 q -328 -57 -273 -57 l -328 -247 q -233 -278 -278 -248 z "},"ඹ":{"ha":823,"x_min":41,"x_max":783,"o":"m 258 -15 q 73 84 132 -15 q 41 213 41 140 l 41 460 q 132 618 41 570 q 222 642 175 642 q 357 576 313 642 q 380 494 380 540 l 380 472 q 400 449 381 450 q 422 472 420 452 l 422 636 l 547 636 l 547 461 q 463 321 547 357 q 404 311 434 311 q 288 366 327 311 q 267 434 267 397 l 267 445 q 245 472 266 471 q 227 452 229 472 q 225 445 225 448 l 225 225 q 264 183 231 187 q 301 214 296 183 q 302 225 302 221 q 338 275 302 269 q 349 277 343 277 l 469 277 q 515 225 510 269 q 547 184 515 190 q 553 183 551 183 q 593 227 589 191 l 593 678 q 502 831 593 812 q 448 836 480 836 l 448 1024 q 776 783 736 1024 q 783 694 783 741 l 783 213 q 684 18 783 79 q 562 -15 631 -15 q 472 15 502 -14 q 444 91 444 43 q 410 136 438 129 q 377 103 382 136 q 376 91 376 96 q 347 15 374 42 q 258 -15 316 -15 m 248 719 l 62 768 q 175 964 62 888 q 370 1024 263 1024 l 370 837 q 250 743 260 837 q 248 719 248 731 z "},"න":{"ha":1028,"x_min":41,"x_max":987,"o":"m 722 -11 q 971 153 918 -11 q 987 269 987 206 l 987 457 q 850 719 987 628 q 646 779 760 779 q 435 707 521 777 q 309 766 389 753 q 271 769 289 769 q 96 704 163 769 q 43 595 53 659 l 202 545 q 240 600 202 585 q 271 605 255 605 q 331 570 315 604 l 290 509 q 203 412 225 414 l 201 412 l 201 467 l 41 467 l 41 347 q 187 41 41 133 q 382 -11 270 -11 q 632 110 548 -11 q 681 269 681 182 q 589 461 681 393 q 559 480 574 472 l 456 340 q 491 275 490 317 q 441 189 491 220 q 377 172 411 172 q 236 228 277 174 q 374 347 293 243 q 400 381 387 362 l 506 521 q 639 591 559 590 q 766 528 720 591 q 798 430 798 484 l 798 269 q 722 183 795 184 l 722 -11 z "},"ඳ":{"ha":1006,"x_min":41,"x_max":1006,"o":"m 609 0 l 659 0 q 878 90 795 0 q 935 187 918 133 l 761 233 q 659 184 732 186 l 609 184 q 495 269 496 187 q 585 355 495 350 q 608 357 595 357 l 860 357 l 861 522 q 712 758 861 701 q 587 780 656 780 q 453 757 513 780 q 363 769 408 769 q 121 656 212 769 q 41 399 41 556 l 41 283 q 100 18 41 121 q 140 -39 118 -11 l 316 15 q 229 189 240 106 q 225 283 225 221 l 225 399 q 346 583 225 553 q 396 589 370 589 q 494 570 445 589 q 587 616 510 616 q 673 579 647 616 q 685 540 685 562 l 608 540 q 331 406 403 540 q 301 269 301 346 q 453 30 301 95 q 609 0 522 0 m 758 -277 q 1000 -129 939 -277 q 1006 -110 1004 -119 l 826 -64 q 770 -104 818 -98 q 758 -106 764 -106 q 694 -75 711 -106 q 692 -61 692 -66 l 506 -61 q 609 -241 506 -183 q 758 -277 671 -277 z "},"ඦ":{"ha":1123,"x_min":41,"x_max":1123,"o":"m 629 -16 l 701 -16 q 1040 225 1012 -16 q 1043 274 1043 250 l 853 274 q 757 171 853 189 q 712 167 735 167 l 614 167 q 476 251 492 167 q 473 274 473 262 l 283 274 q 496 -4 283 42 q 629 -16 556 -16 m 144 -56 l 320 -1 q 225 176 239 96 q 218 267 218 213 l 218 416 q 345 593 221 590 q 395 585 372 593 l 438 571 q 502 612 453 609 q 570 572 551 612 q 576 545 575 559 l 506 545 q 308 458 353 545 q 285 340 285 412 l 473 340 q 521 384 477 382 l 815 384 q 854 340 854 382 l 1043 340 q 947 526 1043 488 q 811 545 898 545 l 750 545 q 811 610 755 601 q 825 612 819 612 q 888 571 876 610 l 1048 624 q 924 761 1016 723 l 1123 1024 l 926 1076 l 662 728 q 499 780 589 780 q 425 769 463 780 q 332 776 392 776 q 113 666 198 776 q 41 450 41 575 l 41 260 q 104 3 41 107 q 144 -56 122 -27 z "},"ඞ":{"ha":804,"x_min":41,"x_max":764,"o":"m 288 -11 q 407 47 363 -9 q 548 -11 461 -11 q 727 83 667 -11 q 764 217 764 140 l 764 703 q 597 1000 764 943 q 444 1021 534 1021 l 444 833 q 557 783 536 833 q 572 673 572 750 l 572 225 q 541 183 572 194 q 519 179 530 179 q 468 225 475 186 l 468 274 l 332 274 l 332 225 q 296 180 332 189 q 281 179 288 179 q 229 217 237 179 q 228 225 228 221 l 228 294 q 273 340 231 339 l 323 340 q 468 429 427 340 q 486 507 486 465 q 420 644 486 597 q 323 674 378 674 l 235 674 q 90 586 130 674 q 72 507 72 549 l 205 507 q 236 538 210 534 l 311 538 q 342 507 340 536 q 319 477 342 481 q 311 476 313 476 l 228 476 q 53 387 83 476 q 41 267 41 349 l 41 217 q 146 24 41 87 q 288 -11 208 -11 m 49 765 l 235 716 q 368 834 236 833 l 368 1021 q 140 941 237 1021 q 49 765 50 867 z "},"ණ":{"ha":1379,"x_min":0,"x_max":1339,"o":"m 0 35 l 182 -11 q 194 9 182 -11 q 259 37 220 35 q 391 11 285 37 q 464 0 438 0 q 685 197 640 0 q 699 330 699 256 l 699 465 q 639 722 697 642 l 869 1024 l 673 1076 l 475 815 q 384 822 429 822 q 159 732 245 822 q 83 540 83 655 q 189 317 83 391 q 327 274 250 274 l 431 274 l 431 456 l 355 456 q 274 511 293 456 q 269 541 269 526 q 326 631 269 604 q 384 643 351 643 q 518 528 502 643 q 521 465 521 503 l 521 330 q 467 195 521 214 q 425 190 450 190 q 307 208 408 190 q 225 216 258 216 q 28 94 106 216 q 0 35 11 64 m 868 340 l 1051 340 l 1051 505 q 1101 570 1054 568 q 1150 521 1146 570 q 1150 505 1150 513 l 1150 340 l 1339 340 l 1339 549 q 1194 754 1337 718 q 1115 764 1157 764 q 967 708 1023 762 q 840 764 916 762 q 720 726 758 764 q 718 722 719 723 l 772 552 q 798 570 784 567 q 817 571 807 571 q 869 475 868 568 l 868 340 m 746 222 q 860 33 746 94 q 1042 -8 935 -8 q 1284 88 1202 -8 q 1339 245 1339 153 l 1339 274 l 1150 274 l 1150 251 q 1040 171 1149 172 q 944 218 968 171 q 936 254 936 235 l 936 274 l 746 274 l 746 222 z "},"ඬ":{"ha":1070,"x_min":41,"x_max":1029,"o":"m 553 -11 q 673 47 629 -9 q 814 -11 727 -11 q 993 83 933 -11 q 1029 217 1029 140 l 1029 705 q 863 1002 1029 945 q 709 1024 800 1024 l 709 836 q 823 785 802 836 q 838 675 838 753 l 838 225 q 807 183 838 194 q 785 179 796 179 q 734 225 741 186 l 734 274 l 598 274 l 598 225 q 562 180 598 189 q 547 179 553 179 q 495 217 503 179 q 494 225 494 221 l 494 270 q 541 313 498 312 l 734 313 l 734 446 q 642 644 734 582 q 505 681 586 681 q 425 669 464 681 q 327 685 376 685 q 114 586 198 685 q 41 376 41 499 l 41 285 q 100 19 41 122 q 140 -38 118 -9 l 316 16 q 221 194 235 114 q 214 285 214 231 l 214 335 q 336 514 225 506 q 418 494 370 513 l 429 490 q 505 522 450 522 q 567 484 548 522 q 574 452 574 469 l 281 452 l 281 313 l 321 313 q 311 270 311 305 l 311 217 q 414 24 311 87 q 553 -11 475 -11 m 315 768 l 500 719 q 633 837 502 836 l 633 1024 q 406 944 503 1024 q 315 768 316 869 z "},"ඟ":{"ha":1236,"x_min":41,"x_max":1195,"o":"m 41 283 q 100 18 41 121 q 140 -39 118 -11 l 316 15 q 229 189 240 106 q 225 283 225 221 l 225 389 q 258 555 225 524 q 304 571 275 571 l 312 571 q 304 486 304 530 l 304 269 q 435 18 304 81 q 571 -11 494 -11 l 571 183 q 495 269 495 184 l 495 472 q 571 571 498 570 l 571 765 l 359 765 q 79 629 142 765 q 41 389 41 549 l 41 283 m 928 -11 q 1177 149 1122 -11 q 1195 269 1195 203 l 1195 486 q 1063 736 1195 673 q 928 765 1005 765 l 928 571 q 1004 472 1004 570 l 1004 269 q 928 183 1001 184 l 928 -11 m 608 327 l 647 327 q 720 255 719 323 q 647 183 716 184 l 647 -11 q 887 191 871 -11 q 888 225 888 208 l 888 293 q 796 467 887 441 l 796 475 q 807 551 796 534 q 852 571 822 571 l 852 765 q 612 552 640 765 q 608 475 608 517 l 608 327 z "},"ඤ":{"ha":1584,"x_min":41,"x_max":1584,"o":"m 283 217 l 300 220 q 331 165 330 212 l 331 144 q 411 22 331 69 q 518 -9 461 -9 q 636 49 597 -8 q 765 -9 684 -9 q 916 60 856 -9 q 939 94 929 76 q 1187 -1 1023 -1 l 1237 -1 q 1455 88 1373 -1 q 1512 186 1496 132 l 1339 232 q 1237 183 1310 184 l 1187 183 q 1073 267 1074 186 q 1162 354 1073 349 q 1185 355 1173 355 l 1439 355 l 1439 538 q 1080 803 1436 802 l 1080 627 q 1237 576 1210 627 q 1245 538 1245 559 l 1185 538 q 924 427 1001 537 q 850 480 899 460 l 719 374 q 785 290 780 350 q 785 274 785 282 l 785 220 q 753 180 785 186 q 745 179 749 179 q 705 210 712 179 q 704 220 704 216 l 704 274 l 568 274 l 568 217 q 537 180 568 186 q 529 179 532 179 q 488 217 494 186 l 488 274 l 819 543 q 944 618 895 604 q 1005 627 972 627 l 1005 804 q 751 730 861 804 q 696 688 726 712 q 566 764 656 747 q 511 769 538 769 q 393 743 446 769 q 330 751 366 751 q 122 650 205 751 q 41 389 41 549 l 41 267 q 127 -24 41 102 q 151 -56 138 -41 l 327 -1 q 232 176 245 96 q 225 267 225 213 l 225 389 q 339 570 228 567 q 442 545 362 568 q 480 600 442 585 q 511 605 495 605 q 564 581 547 604 l 283 351 l 283 217 m 1336 -278 q 1577 -130 1516 -278 q 1584 -111 1581 -121 l 1404 -65 q 1348 -106 1396 -99 q 1336 -107 1341 -107 q 1272 -76 1289 -107 q 1270 -62 1270 -68 l 1084 -62 q 1187 -243 1084 -184 q 1336 -278 1249 -278 z "},"ඕ":{"ha":822,"x_min":41,"x_max":781,"o":"m 273 -11 q 411 47 358 -9 q 549 -11 463 -11 q 745 85 682 -11 q 781 217 781 142 l 781 643 q 549 880 781 853 q 472 884 513 884 l 324 884 q 277 917 279 887 q 324 954 279 952 l 385 954 l 385 1111 l 262 1111 q 132 1046 183 1111 q 100 964 100 1006 q 140 884 102 917 l 92 884 l 92 708 l 472 708 q 586 663 564 708 q 595 617 595 644 l 595 229 q 553 178 595 189 q 536 175 545 175 q 481 213 492 175 q 479 229 479 221 l 479 274 l 343 274 l 343 229 q 300 175 343 184 q 286 174 293 174 q 231 208 245 174 q 227 229 227 218 l 227 445 q 247 472 229 468 q 269 445 266 467 l 269 434 q 340 324 269 358 q 406 311 372 311 q 528 377 490 311 q 548 461 548 414 l 548 636 l 423 636 l 423 472 q 401 449 422 450 q 381 472 384 454 l 381 494 q 294 628 381 591 q 222 642 260 642 q 77 574 130 642 q 41 464 41 528 l 41 217 q 142 23 41 84 q 273 -11 199 -11 m 585 913 l 768 913 q 697 1077 768 1034 q 533 1111 640 1111 l 463 1111 l 463 954 l 490 954 q 581 932 567 954 q 585 913 585 924 z "},"ඔ":{"ha":822,"x_min":41,"x_max":781,"o":"m 273 -11 q 411 47 358 -9 q 549 -11 463 -11 q 745 85 682 -11 q 781 217 781 142 l 781 705 q 652 983 781 917 q 433 1024 572 1024 l 433 836 q 552 817 522 836 q 595 689 595 785 l 595 229 q 553 178 595 189 q 536 175 545 175 q 481 213 492 175 q 479 229 479 221 l 479 274 l 343 274 l 343 229 q 300 175 343 184 q 286 174 293 174 q 231 208 245 174 q 227 229 227 218 l 227 445 q 247 472 229 468 q 269 445 266 467 l 269 434 q 345 321 269 351 q 400 311 370 311 q 524 373 481 311 q 548 461 548 411 l 548 636 l 423 636 l 423 472 q 401 449 422 450 q 381 472 384 454 l 381 494 q 294 628 381 591 q 222 642 260 642 q 77 574 130 642 q 41 464 41 528 l 41 217 q 142 23 41 84 q 273 -11 199 -11 m 233 719 q 336 837 233 829 q 355 837 346 837 l 355 1024 q 130 941 224 1024 q 47 768 49 867 l 233 719 z "},"ප":{"ha":852,"x_min":41,"x_max":811,"o":"m 41 624 l 201 571 q 264 612 216 609 q 332 572 313 612 q 339 545 338 559 l 269 545 q 71 458 115 545 q 47 340 47 412 l 236 340 q 283 384 240 382 l 578 384 q 617 340 617 382 l 806 340 q 709 526 806 488 q 574 545 661 545 l 513 545 q 574 610 518 601 q 587 612 582 612 q 651 571 639 610 l 811 624 q 667 768 777 734 q 590 780 629 780 q 426 727 499 779 q 262 780 351 780 q 76 693 142 780 q 41 624 53 662 m 392 -16 l 464 -16 q 803 225 774 -16 q 806 274 806 250 l 616 274 q 519 171 616 189 q 475 167 498 167 l 377 167 q 239 251 255 167 q 236 274 236 262 l 46 274 q 259 -4 46 42 q 392 -16 319 -16 z "},"ඵ":{"ha":770,"x_min":41,"x_max":730,"o":"m 335 -7 l 335 190 q 236 243 255 190 q 232 264 232 254 q 312 342 235 340 l 426 342 l 426 500 q 336 655 426 606 q 231 681 289 681 q 43 551 88 681 q 41 544 42 547 l 175 509 q 231 541 183 540 q 286 500 281 536 q 123 452 190 499 q 46 300 50 397 q 45 260 45 285 q 140 60 45 140 q 335 -7 222 -7 m 302 837 q 431 633 302 688 q 491 616 460 623 l 491 732 q 414 807 423 747 q 411 836 411 821 q 529 768 506 836 q 540 675 540 734 l 540 339 q 411 190 538 191 l 411 -7 q 730 339 728 -4 l 730 701 q 445 1023 730 1008 q 411 1024 427 1024 l 302 1024 l 302 837 z "},"ර":{"ha":739,"x_min":41,"x_max":699,"o":"m 41 327 q 195 23 41 100 q 331 -8 256 -8 l 331 189 q 239 243 256 189 q 231 319 231 270 l 231 567 q 245 642 231 617 q 298 700 262 663 l 628 1027 l 434 1076 l 123 781 q 42 628 49 711 q 41 579 41 609 l 41 327 m 292 591 l 292 585 l 407 585 q 500 543 484 585 q 509 444 509 518 l 509 319 q 471 202 509 225 q 407 189 446 189 l 407 -7 q 697 282 682 -7 q 699 317 699 300 l 699 499 q 510 765 699 754 q 495 765 502 765 l 464 765 l 292 591 z "},"ස":{"ha":932,"x_min":41,"x_max":891,"o":"m 91 217 q 197 24 91 85 q 339 -11 258 -11 q 487 49 433 -9 q 644 -11 544 -11 q 868 107 812 -11 q 891 217 891 155 l 891 274 l 703 274 l 703 232 q 661 180 703 193 q 640 178 650 178 q 581 214 594 178 q 578 235 578 225 l 578 274 l 404 274 l 404 235 q 359 180 404 191 q 342 178 350 178 q 282 213 296 178 q 279 232 279 222 l 279 274 l 91 274 l 91 217 m 106 624 l 266 571 q 330 612 281 609 q 397 572 378 612 q 404 545 403 559 l 41 545 l 41 384 l 96 384 q 92 363 95 381 q 91 340 91 353 l 279 340 q 290 369 281 357 q 334 384 307 384 l 652 384 q 692 370 678 382 q 703 340 703 358 l 891 340 l 891 378 q 701 545 891 540 q 682 545 692 545 l 578 545 q 639 610 583 601 q 652 612 647 612 q 716 571 704 610 l 876 624 q 732 768 842 734 q 655 780 694 780 q 491 727 564 779 q 327 780 416 780 q 141 693 208 780 q 106 624 118 662 z "},"ශ":{"ha":972,"x_min":41,"x_max":932,"o":"m 665 -11 q 914 149 859 -11 q 932 269 932 203 l 932 486 q 800 736 932 673 q 665 765 742 765 l 665 571 q 741 472 741 570 l 741 458 q 578 423 628 457 q 533 449 559 441 l 533 475 q 568 568 530 556 q 589 571 578 571 l 589 765 q 349 552 377 765 q 345 475 345 517 l 345 327 l 391 327 q 457 255 456 324 q 384 183 453 184 l 384 -11 q 624 199 606 -11 q 625 229 625 214 q 741 319 628 317 l 741 269 q 665 183 738 184 l 665 -11 m 308 -11 l 308 183 q 232 269 232 184 l 232 472 q 308 571 235 570 l 308 765 q 58 605 114 765 q 41 486 41 551 l 41 269 q 172 18 41 81 q 308 -11 231 -11 z "},"ෂ":{"ha":895,"x_min":41,"x_max":854,"o":"m 65 624 l 225 571 q 289 612 240 609 q 355 574 338 612 q 362 552 361 563 l 263 552 q 66 464 111 552 q 42 340 42 416 l 231 340 q 278 391 235 389 l 387 391 q 331 228 331 316 l 513 231 q 590 391 514 312 l 627 391 q 666 340 666 388 l 854 340 q 758 533 854 492 q 623 552 709 552 l 538 552 q 612 612 555 605 q 675 571 663 610 l 836 624 q 692 768 802 734 q 614 780 654 780 q 450 727 524 779 q 286 780 376 780 q 100 693 167 780 q 65 624 77 662 m 387 -16 l 513 -16 q 852 225 823 -16 q 854 274 854 250 l 665 274 q 568 171 665 189 q 524 167 547 167 l 372 167 q 233 251 250 167 q 231 274 231 262 l 41 274 q 254 -4 41 42 q 387 -16 313 -16 z "},"ත":{"ha":1046,"x_min":41,"x_max":1004,"o":"m 41 209 q 64 212 57 212 q 133 163 100 212 q 141 152 136 159 q 151 137 148 141 q 372 -9 239 8 q 401 -11 387 -11 q 636 99 556 -11 q 684 251 684 167 q 571 458 682 408 l 439 353 q 506 263 505 323 q 446 182 506 206 q 396 172 423 172 q 290 236 338 172 q 274 259 285 243 q 252 288 259 278 l 576 544 q 673 576 620 576 q 791 509 751 576 q 814 416 814 468 l 814 278 q 738 193 811 194 l 738 -1 q 989 170 939 -1 q 1004 278 1004 218 l 1004 435 q 868 715 1004 624 q 681 770 785 770 q 471 699 570 770 q 463 693 467 696 q 366 753 438 728 q 278 769 321 769 q 103 704 170 769 q 50 595 60 659 l 209 545 q 247 600 209 585 q 278 605 262 605 q 327 585 308 604 l 41 351 l 41 209 z "},"ථ":{"ha":761,"x_min":41,"x_max":720,"o":"m 293 837 q 422 633 293 688 q 481 616 450 623 l 481 732 q 404 807 414 747 q 401 836 401 821 q 519 768 496 836 q 530 675 530 734 l 530 339 q 401 190 529 191 l 401 -7 q 720 339 719 -4 l 720 701 q 435 1023 720 1008 q 401 1024 418 1024 l 293 1024 l 293 837 m 41 355 l 41 282 q 117 84 41 170 q 327 -7 198 -7 l 327 190 q 235 260 256 190 q 228 301 228 281 l 228 355 q 327 456 236 452 l 327 643 q 42 407 62 643 q 41 355 41 384 z "},"ට":{"ha":757,"x_min":41,"x_max":716,"o":"m 41 355 q 153 605 41 541 q 327 643 221 643 l 327 456 q 228 355 232 446 l 228 301 q 277 198 228 229 q 327 183 298 183 l 327 -7 q 88 122 170 -7 q 41 282 41 198 l 41 355 m 403 -7 l 403 183 q 510 239 484 183 q 526 336 526 275 l 526 689 q 450 830 526 812 q 403 836 430 836 l 403 1024 q 707 812 662 1024 q 716 705 716 764 l 716 321 q 559 23 716 95 q 403 -7 492 -7 m 41 768 q 142 959 41 880 q 327 1024 227 1024 l 327 837 q 228 747 241 837 q 227 719 227 734 l 41 768 z "},"ඨ":{"ha":804,"x_min":41,"x_max":764,"o":"m 288 -11 q 407 47 363 -9 q 548 -11 461 -11 q 727 83 667 -11 q 764 217 764 140 l 764 701 q 479 1023 764 1008 q 445 1024 461 1024 l 336 1024 l 336 837 q 465 633 336 688 q 525 616 494 623 l 525 732 q 448 807 457 747 q 445 836 445 821 q 563 768 540 836 q 574 675 574 734 l 574 225 q 541 182 574 193 q 519 179 530 179 q 468 225 475 186 l 468 274 l 332 274 l 332 225 q 296 180 332 189 q 281 179 288 179 q 229 217 237 179 q 228 225 228 221 l 228 355 q 327 456 236 452 l 357 456 l 357 643 l 327 643 q 42 407 62 643 q 41 355 41 384 l 41 217 q 146 24 41 87 q 288 -11 208 -11 z "},"උ":{"ha":772,"x_min":41,"x_max":772,"o":"m 439 -38 q 589 57 563 -37 l 772 5 q 492 -225 728 -202 q 439 -228 467 -228 l 439 -38 m 174 629 q 319 764 199 727 q 423 780 369 780 q 659 667 591 780 q 696 522 696 606 l 696 349 l 363 349 q 239 258 260 349 q 232 180 232 227 l 232 115 q 346 -35 232 -15 q 363 -38 354 -37 l 363 -229 q 151 -144 245 -229 q 41 115 41 -43 l 41 180 q 358 540 43 538 l 521 538 q 445 613 521 601 q 423 616 434 616 q 330 570 346 614 l 174 629 z "},"ඌ":{"ha":1313,"x_min":41,"x_max":1299,"o":"m 439 -38 q 589 57 563 -37 l 772 5 q 492 -225 728 -202 q 439 -228 467 -228 l 439 -38 m 174 629 q 319 764 199 727 q 423 780 369 780 q 659 667 591 780 q 696 522 696 606 l 696 349 l 363 349 q 239 258 260 349 q 232 180 232 227 l 232 115 q 346 -35 232 -15 q 363 -38 354 -37 l 363 -229 q 151 -144 245 -229 q 41 115 41 -43 l 41 180 q 358 540 43 538 l 521 538 q 445 613 521 601 q 423 616 434 616 q 330 570 346 614 l 174 629 m 1047 -11 q 857 72 926 -11 q 806 225 806 134 l 806 274 l 978 274 l 978 225 q 1028 155 978 172 q 1055 151 1042 151 q 1123 195 1107 151 q 1127 225 1127 210 l 1127 574 q 1107 601 1124 597 q 1085 574 1088 595 l 1085 509 q 1015 403 1085 433 q 955 391 986 391 q 830 456 872 391 q 806 549 806 496 l 806 765 l 930 765 l 930 601 q 952 578 932 579 q 972 601 970 583 l 972 627 q 1058 761 972 723 q 1130 774 1092 774 q 1267 703 1218 774 q 1299 593 1298 656 l 1299 225 q 1187 26 1299 91 q 1047 -11 1123 -11 z "},"ව":{"ha":770,"x_min":41,"x_max":730,"o":"m 335 -7 q 104 96 189 -7 q 45 260 45 170 q 73 400 45 354 q 123 452 92 429 q 286 500 191 500 q 231 541 275 536 q 175 509 183 540 l 41 544 q 231 681 88 678 q 397 601 343 681 q 426 500 426 556 l 426 342 l 312 342 q 232 264 233 339 q 285 191 232 213 q 335 183 308 183 l 335 -7 m 411 -7 l 411 183 q 538 309 528 183 q 540 339 540 324 l 540 675 q 492 818 540 787 q 411 836 463 836 l 411 1024 q 730 705 728 1021 l 730 339 q 411 -7 727 -5 m 41 768 q 145 959 41 880 q 335 1024 232 1024 l 335 837 q 231 755 247 837 q 227 719 227 738 l 41 768 z "},"ය":{"ha":888,"x_min":41,"x_max":848,"o":"m 41 217 l 41 274 l 229 274 l 229 232 q 271 180 229 193 q 292 178 282 178 q 351 214 338 178 q 354 235 354 225 l 354 274 l 528 274 l 528 235 q 572 180 528 191 q 590 178 582 178 q 650 213 636 178 q 652 232 652 222 l 652 274 l 841 274 l 841 217 q 708 8 841 58 q 594 -11 658 -11 q 437 49 492 -9 q 289 -11 381 -11 q 77 88 144 -11 q 41 217 41 144 m 397 384 l 397 496 q 633 768 400 766 q 848 621 785 765 l 699 571 q 633 605 678 605 q 574 545 579 597 l 650 545 q 840 395 823 545 q 841 365 841 380 l 841 340 l 651 340 l 651 345 q 621 381 651 374 q 593 384 609 384 l 397 384 m 41 340 l 41 461 q 180 726 41 650 q 336 764 250 764 l 359 764 l 359 587 l 332 587 q 229 430 231 585 l 229 340 l 41 340 z "},"෴":{"ha":2260,"x_min":203,"x_max":2056,"o":"m 749 663 l 882 589 q 671 191 713 259 q 515 27 593 65 q 366 0 457 0 l 203 0 l 203 152 l 366 152 q 509 218 452 152 q 671 503 560 278 q 704 571 681 525 q 749 663 732 631 m 1005 709 l 1138 633 l 826 -1 l 692 75 l 1005 709 m 1158 537 l 1291 463 l 1062 -1 l 928 75 l 1158 537 m 1299 -1 l 1164 75 l 1316 382 q 1754 168 1615 202 q 1888 153 1815 153 l 2056 153 l 2056 0 l 1888 0 q 1472 115 1693 0 q 1379 165 1428 137 l 1299 -1 z "},"ඏ":{"ha":1326,"x_min":41,"x_max":1286,"o":"m 629 -16 l 701 -16 q 1010 125 936 -15 l 1010 119 q 1070 11 1010 49 q 1138 -8 1103 -8 q 1248 54 1211 -8 q 1256 72 1252 64 q 1286 274 1286 145 l 1108 274 q 1107 243 1108 252 q 1035 195 1063 232 q 1043 274 1043 233 l 853 274 q 757 171 853 189 q 712 167 735 167 l 614 167 q 476 251 492 167 q 473 274 473 262 l 283 274 q 290 197 283 235 q 220 243 262 232 q 218 274 218 254 l 41 274 q 71 72 41 142 q 72 68 72 69 l 72 68 q 167 -7 100 5 q 189 -8 179 -8 q 297 52 259 -8 q 316 119 316 84 q 629 -16 389 -16 m 285 340 l 473 340 q 521 384 477 382 l 815 384 q 854 340 854 382 l 1043 340 q 947 526 1043 488 q 811 545 898 545 l 750 545 q 811 610 755 601 q 825 612 819 612 q 888 571 876 610 l 941 589 q 982 593 960 593 q 1108 416 1103 579 l 1108 340 l 1286 340 l 1286 450 q 1185 701 1286 606 q 1002 776 1107 776 q 918 764 960 776 q 827 780 875 780 q 663 727 736 779 q 499 780 589 780 q 408 764 450 780 q 324 776 365 776 q 109 665 191 776 q 41 450 41 574 l 41 340 l 218 340 l 218 416 q 345 593 221 590 q 385 589 366 593 l 438 571 q 502 612 453 609 q 570 572 551 612 q 576 545 575 559 l 506 545 q 308 458 353 545 q 285 340 285 412 z "},"ඐ":{"ha":1895,"x_min":41,"x_max":1881,"o":"m 1010 119 q 1070 11 1010 49 q 1138 -8 1103 -8 q 1248 54 1211 -8 q 1256 72 1252 64 q 1286 274 1286 145 l 1108 274 q 1107 243 1108 252 q 1035 195 1063 232 q 1043 274 1043 233 l 853 274 q 757 171 853 189 q 712 167 735 167 l 614 167 q 476 251 492 167 q 473 274 473 262 l 283 274 q 290 197 283 235 q 220 243 262 232 q 218 274 218 254 l 41 274 q 71 72 41 142 q 72 68 72 69 l 72 68 q 167 -7 100 5 q 189 -8 179 -8 q 297 52 259 -8 q 316 119 316 84 q 629 -16 389 -16 l 701 -16 q 1010 125 936 -15 l 1010 119 m 285 340 l 473 340 q 521 384 477 382 l 815 384 q 854 340 854 382 l 1043 340 q 947 526 1043 488 q 811 545 898 545 l 750 545 q 811 610 755 601 q 825 612 819 612 q 888 571 876 610 l 941 589 q 982 593 960 593 q 1108 416 1103 579 l 1108 340 l 1286 340 l 1286 450 q 1185 701 1286 606 q 1002 776 1107 776 q 918 764 960 776 q 827 780 875 780 q 663 727 736 779 q 499 780 589 780 q 408 764 450 780 q 324 776 365 776 q 109 665 191 776 q 41 450 41 574 l 41 340 l 218 340 l 218 416 q 345 593 221 590 q 385 589 366 593 l 438 571 q 502 612 453 609 q 570 572 551 612 q 576 545 575 559 l 506 545 q 308 458 353 545 q 285 340 285 412 m 1629 -11 q 1824 71 1751 -11 q 1881 225 1881 134 l 1881 593 q 1790 754 1879 708 q 1712 774 1754 774 q 1577 709 1621 774 q 1554 627 1554 673 l 1554 601 q 1534 578 1553 579 q 1512 601 1514 581 l 1512 765 l 1388 765 l 1388 549 q 1473 404 1388 442 q 1537 391 1503 391 q 1649 446 1613 391 q 1667 509 1667 475 l 1667 574 q 1689 601 1668 600 q 1708 581 1705 601 q 1709 574 1709 576 l 1709 225 q 1659 153 1709 168 q 1637 151 1648 151 q 1567 191 1587 151 q 1560 225 1560 208 l 1560 274 l 1388 274 l 1388 225 q 1501 22 1388 84 q 1629 -11 1560 -11 z "},"ඍ":{"ha":1390,"x_min":41,"x_max":1377,"o":"m 1164 0 q 1333 76 1272 0 q 1377 213 1377 133 l 1377 540 q 1291 732 1377 663 q 1161 779 1233 779 l 1015 779 l 1015 602 l 1137 602 q 1213 537 1206 602 q 1214 518 1214 528 l 1214 213 q 1177 161 1214 172 q 1164 160 1171 160 q 1111 195 1124 160 q 1108 213 1108 205 q 1164 266 1115 262 l 1164 420 q 964 298 1009 420 q 949 213 949 259 q 1050 30 949 87 q 1164 0 1103 0 m 41 217 q 146 24 41 85 q 289 -11 208 -11 q 437 49 382 -9 q 594 -11 494 -11 q 818 107 762 -11 q 841 217 841 155 l 841 274 l 652 274 l 652 232 q 610 180 652 193 q 590 178 600 178 q 530 214 544 178 q 528 235 528 225 l 528 274 l 354 274 l 354 235 q 309 180 354 191 q 292 178 300 178 q 232 213 245 178 q 229 232 229 222 l 229 274 l 41 274 l 41 217 m 56 624 l 216 571 q 279 612 231 609 q 347 572 328 612 q 354 545 353 559 l 250 545 q 47 435 79 545 q 41 378 41 410 l 41 340 l 229 340 q 231 350 229 347 q 279 384 239 382 l 602 384 q 651 350 644 382 q 652 340 652 346 l 841 340 l 841 378 q 651 545 841 540 q 632 545 642 545 l 528 545 q 589 610 533 601 q 602 612 597 612 q 666 571 654 610 l 826 624 q 682 768 792 734 q 605 780 644 780 q 441 727 514 779 q 277 780 366 780 q 91 693 157 780 q 56 624 68 662 z "},"ඎ":{"ha":1900,"x_min":41,"x_max":1887,"o":"m 41 217 q 146 24 41 85 q 289 -11 208 -11 q 437 49 382 -9 q 594 -11 494 -11 q 818 107 762 -11 q 841 217 841 155 l 841 274 l 652 274 l 652 232 q 610 180 652 193 q 590 178 600 178 q 530 214 544 178 q 528 235 528 225 l 528 274 l 354 274 l 354 235 q 309 180 354 191 q 292 178 300 178 q 232 213 245 178 q 229 232 229 222 l 229 274 l 41 274 l 41 217 m 56 624 l 216 571 q 279 612 231 609 q 347 572 328 612 q 354 545 353 559 l 250 545 q 47 435 79 545 q 41 378 41 410 l 41 340 l 229 340 q 231 350 229 347 q 279 384 239 382 l 602 384 q 651 350 644 382 q 652 340 652 346 l 841 340 l 841 378 q 651 545 841 540 q 632 545 642 545 l 528 545 q 589 610 533 601 q 602 612 597 612 q 666 571 654 610 l 826 624 q 682 768 792 734 q 605 780 644 780 q 441 727 514 779 q 277 780 366 780 q 91 693 157 780 q 56 624 68 662 m 1164 0 q 1333 76 1272 0 q 1377 213 1377 133 l 1377 540 q 1291 732 1377 663 q 1161 779 1233 779 l 1015 779 l 1015 602 l 1137 602 q 1213 537 1206 602 q 1214 518 1214 528 l 1214 213 q 1177 161 1214 172 q 1164 160 1171 160 q 1111 195 1124 160 q 1108 213 1108 205 q 1164 266 1115 262 l 1164 420 q 964 298 1009 420 q 949 213 949 259 q 1050 30 949 87 q 1164 0 1103 0 m 1674 0 q 1843 76 1782 0 q 1887 213 1887 133 l 1887 540 q 1801 732 1887 663 q 1671 779 1743 779 l 1525 779 l 1525 602 l 1647 602 q 1723 537 1716 602 q 1724 518 1724 528 l 1724 213 q 1687 161 1724 172 q 1674 160 1681 160 q 1621 195 1634 160 q 1618 213 1618 205 q 1674 266 1625 262 l 1674 420 q 1474 298 1519 420 q 1459 213 1459 259 q 1560 30 1459 87 q 1674 0 1613 0 z "},"/":{"ha":544,"x_min":68,"x_max":476,"o":"m 68 -31 l 305 971 l 476 971 l 240 -31 l 68 -31 z "}," ":{"ha":312,"x_min":0,"x_max":0,"o":""},"£":{"ha":624,"x_min":27,"x_max":597,"o":"m 27 391 l 103 391 l 103 0 l 586 0 l 586 146 l 282 146 l 282 392 l 472 392 l 472 537 l 283 537 l 283 701 q 362 792 285 791 q 463 705 434 791 l 597 773 q 487 922 574 871 q 456 937 471 930 q 357 956 411 956 l 354 956 q 125 818 183 956 q 103 697 103 764 l 103 536 l 27 536 l 27 391 z "},"∑":{"ha":917,"x_min":41,"x_max":716,"o":"m 423 760 l 292 937 l 292 949 l 716 949 l 716 760 l 423 760 m 41 -190 l 41 12 l 339 422 l 41 825 l 41 949 l 190 949 l 582 416 l 281 14 l 716 14 l 716 -190 l 41 -190 z "},"t":{"ha":439,"x_min":19,"x_max":426,"o":"m 19 598 l 19 773 l 114 773 l 114 971 l 296 971 l 296 773 l 385 773 l 385 597 l 296 597 l 296 237 q 346 187 298 189 l 385 187 l 426 0 l 345 0 q 127 134 167 0 q 114 251 114 183 l 114 598 l 19 598 z "},"ť":{"ha":735,"x_min":19,"x_max":572,"o":"m 350 826 l 400 1032 l 572 1032 l 522 826 l 350 826 m 19 598 l 19 773 l 114 773 l 114 971 l 296 971 l 296 773 l 385 773 l 385 597 l 296 597 l 296 237 q 346 187 298 189 l 385 187 l 426 0 l 345 0 q 127 134 167 0 q 114 251 114 183 l 114 598 l 19 598 z "},"þ":{"ha":572,"x_min":41,"x_max":537,"o":"m 41 -247 l 41 949 l 210 949 l 210 -247 l 41 -247 m 266 544 l 266 704 l 309 704 q 500 612 431 704 q 537 513 537 560 l 537 189 q 476 61 537 118 q 315 0 412 0 l 275 0 l 275 160 l 317 160 q 374 194 373 163 l 374 509 q 336 541 374 532 q 309 544 323 544 l 266 544 z "},"¾":{"ha":780,"x_min":42,"x_max":780,"o":"m 222 476 l 222 581 q 258 610 251 581 q 259 620 259 616 q 222 663 259 656 q 209 665 216 665 l 184 665 l 184 761 l 209 761 q 258 795 250 761 q 259 806 259 802 q 232 844 259 837 q 222 845 227 845 l 222 949 q 327 902 283 949 q 361 815 361 864 q 315 713 359 743 q 361 612 359 682 q 285 492 361 530 q 222 476 252 476 m 595 0 l 595 476 l 704 476 l 704 178 l 741 178 l 741 83 l 704 83 l 704 0 l 595 0 m 411 83 l 411 178 l 557 433 l 557 237 l 526 178 l 557 178 l 557 83 l 411 83 m 42 613 l 138 631 q 178 581 138 590 q 184 579 182 579 l 184 475 q 73 529 118 475 q 42 613 42 567 m 42 811 q 113 929 42 887 q 184 949 148 949 l 184 845 q 140 807 148 842 q 138 793 138 800 l 42 811 m 91 0 l 677 949 l 780 949 l 203 0 l 91 0 z "},"³":{"ha":315,"x_min":20,"x_max":290,"o":"m 165 525 l 165 604 q 210 647 209 612 q 161 697 210 689 q 132 699 148 699 l 132 777 q 210 830 206 787 q 165 872 209 868 l 165 952 q 267 905 231 952 q 290 830 290 873 q 248 738 289 768 q 290 646 289 711 q 212 533 290 562 q 165 525 187 525 m 20 633 l 94 648 q 126 605 94 612 q 132 604 129 604 l 132 525 q 38 578 72 525 q 20 633 20 605 m 20 842 q 72 933 20 898 q 132 952 100 952 l 132 872 q 94 829 98 861 l 20 842 z "},"˜":{"ha":452,"x_min":35,"x_max":416,"o":"m 35 141 l 35 279 q 130 309 88 309 q 227 278 164 309 q 308 254 274 254 q 416 292 355 255 l 416 155 q 302 117 354 117 q 202 148 266 117 q 125 171 156 171 q 35 141 83 170 z "},"™":{"ha":547,"x_min":35,"x_max":511,"o":"m 35 886 l 35 949 l 224 949 l 224 886 l 163 886 l 163 656 l 98 656 l 98 886 l 35 886 m 255 656 l 255 850 l 259 850 l 320 704 l 320 656 l 255 656 m 255 907 l 255 949 l 305 949 l 381 765 l 425 863 l 430 863 l 430 718 l 404 656 l 359 656 l 255 907 m 448 656 l 448 949 l 511 949 l 511 656 l 448 656 z "},"²":{"ha":302,"x_min":11,"x_max":277,"o":"m 11 846 q 62 937 11 902 q 122 956 91 956 l 122 876 q 88 854 100 876 q 84 833 84 844 l 11 846 m 23 529 l 23 613 l 270 613 l 270 529 l 23 529 m 23 644 q 91 736 23 688 q 123 760 121 758 q 183 807 178 800 q 197 836 197 822 q 156 876 191 872 l 156 956 q 270 879 245 956 q 277 836 277 857 q 227 738 277 780 q 202 719 214 728 q 174 700 193 712 q 122 651 126 669 q 121 644 121 647 l 23 644 z "},"u":{"ha":661,"x_min":52,"x_max":609,"o":"m 52 205 l 52 773 l 236 773 l 236 227 q 298 174 239 175 l 298 -7 q 91 98 165 -7 q 52 205 52 153 m 361 -7 l 361 174 q 425 227 419 180 l 425 773 l 609 773 l 609 205 q 549 76 609 141 q 361 -7 473 -5 z "},"ú":{"ha":661,"x_min":52,"x_max":609,"o":"m 357 853 l 407 1059 l 579 1059 l 480 853 l 357 853 m 52 205 l 52 773 l 236 773 l 236 227 q 298 174 239 175 l 298 -7 q 91 98 165 -7 q 52 205 52 153 m 361 -7 l 361 174 q 425 227 419 180 l 425 773 l 609 773 l 609 205 q 549 76 609 141 q 361 -7 473 -5 z "},"û":{"ha":661,"x_min":52,"x_max":609,"o":"m 182 853 l 283 1059 l 373 1059 l 477 853 l 366 853 l 328 930 l 292 853 l 182 853 m 52 205 l 52 773 l 236 773 l 236 227 q 298 174 239 175 l 298 -7 q 91 98 165 -7 q 52 205 52 153 m 361 -7 l 361 174 q 425 227 419 180 l 425 773 l 609 773 l 609 205 q 549 76 609 141 q 361 -7 473 -5 z "},"ü":{"ha":661,"x_min":52,"x_max":609,"o":"m 113 955 q 165 1046 113 1016 q 214 1058 189 1058 q 304 1005 275 1058 q 316 955 316 981 q 262 865 316 892 q 214 853 239 853 q 125 907 152 853 q 113 955 113 930 m 343 955 q 396 1046 343 1016 q 445 1058 419 1058 q 534 1005 506 1058 q 547 955 547 981 q 492 865 547 892 q 445 853 469 853 q 355 907 382 853 q 343 955 343 929 m 52 205 l 52 773 l 236 773 l 236 227 q 298 174 239 175 l 298 -7 q 91 98 165 -7 q 52 205 52 153 m 361 -7 l 361 174 q 425 227 419 180 l 425 773 l 609 773 l 609 205 q 549 76 609 141 q 361 -7 473 -5 z "},"ù":{"ha":661,"x_min":52,"x_max":609,"o":"m 170 1059 l 342 1059 l 392 853 l 269 853 l 170 1059 m 52 205 l 52 773 l 236 773 l 236 227 q 298 174 239 175 l 298 -7 q 91 98 165 -7 q 52 205 52 153 m 361 -7 l 361 174 q 425 227 419 180 l 425 773 l 609 773 l 609 205 q 549 76 609 141 q 361 -7 473 -5 z "},"ű":{"ha":661,"x_min":52,"x_max":614,"o":"m 392 853 l 442 1059 l 614 1059 l 515 853 l 392 853 m 175 853 l 225 1059 l 397 1059 l 298 853 l 175 853 m 52 205 l 52 773 l 236 773 l 236 227 q 298 174 239 175 l 298 -7 q 91 98 165 -7 q 52 205 52 153 m 361 -7 l 361 174 q 425 227 419 180 l 425 773 l 609 773 l 609 205 q 549 76 609 141 q 361 -7 473 -5 z "},"ū":{"ha":661,"x_min":52,"x_max":609,"o":"m 115 853 l 115 964 l 544 964 l 544 853 l 115 853 m 52 205 l 52 773 l 236 773 l 236 227 q 298 174 239 175 l 298 -7 q 91 98 165 -7 q 52 205 52 153 m 361 -7 l 361 174 q 425 227 419 180 l 425 773 l 609 773 l 609 205 q 549 76 609 141 q 361 -7 473 -5 z "},"_":{"ha":692,"x_min":41,"x_max":651,"o":"m 41 -133 l 651 -133 l 651 -278 l 41 -278 l 41 -133 z "},"­":{"ha":510,"x_min":41,"x_max":469,"o":"m 41 312 l 41 484 l 469 484 l 469 312 l 41 312 z "},"µ":{"ha":682,"x_min":65,"x_max":629,"o":"m 65 0 l 233 0 l 233 248 q 290 243 259 243 l 290 407 q 233 442 235 408 l 233 947 l 65 947 l 65 0 m 347 243 q 490 289 429 244 q 629 245 549 245 l 629 410 q 572 445 574 411 l 572 949 l 404 949 l 404 442 q 347 407 401 408 l 347 243 z "},"Ģ":{"ha":688,"x_min":52,"x_max":642,"o":"m 243 -296 l 293 -90 l 465 -90 l 415 -296 l 243 -296 m 52 260 l 52 711 q 134 880 64 807 q 317 956 209 956 l 317 765 q 245 709 259 764 q 243 689 243 697 l 243 260 q 305 187 244 205 q 317 184 313 184 l 317 -7 q 160 49 239 -7 q 52 260 53 127 m 391 -7 l 391 184 q 429 209 406 184 q 449 258 449 232 l 449 302 l 391 302 l 391 479 l 642 479 l 642 239 q 555 73 642 155 q 391 -7 472 -5 m 391 765 l 391 956 q 570 869 491 956 q 642 700 642 792 l 454 631 l 454 684 q 406 762 454 747 q 391 765 397 765 z "},"ģ":{"ha":618,"x_min":27,"x_max":568,"o":"m 327 865 l 377 1072 l 549 1072 l 450 865 l 327 865 m 27 -258 l 69 -91 l 338 -91 q 393 -52 381 -90 q 395 -47 395 -49 l 395 16 q 334 11 366 11 l 334 179 q 395 224 392 182 l 395 570 q 370 604 395 589 q 334 613 354 613 l 334 783 q 395 774 366 783 l 395 783 l 568 783 l 568 -47 q 515 -171 568 -107 q 340 -258 445 -256 l 27 -258 m 41 220 l 41 576 q 99 704 42 642 q 275 783 170 781 l 275 613 q 213 578 227 613 q 212 572 212 574 l 212 221 q 251 182 212 190 q 275 179 262 179 l 275 11 q 77 118 148 11 q 41 220 41 172 z "},"Ķ":{"ha":662,"x_min":57,"x_max":642,"o":"m 239 -289 l 289 -83 l 461 -83 l 411 -289 l 239 -289 m 57 0 l 57 949 l 248 949 l 248 0 l 57 0 m 302 463 l 448 949 l 636 949 l 492 463 l 642 0 l 454 0 l 302 463 z "},"ķ":{"ha":678,"x_min":57,"x_max":651,"o":"m 243 -289 l 293 -83 l 465 -83 l 415 -289 l 243 -289 m 57 0 l 57 971 l 244 971 l 244 0 l 57 0 m 283 389 l 450 773 l 648 773 l 477 389 l 651 0 l 454 0 l 283 389 z "},"Ļ":{"ha":587,"x_min":57,"x_max":567,"o":"m 201 -289 l 251 -83 l 423 -83 l 373 -289 l 201 -289 m 57 0 l 57 949 l 248 949 l 248 190 l 567 190 l 567 0 l 57 0 z "},"ļ":{"ha":309,"x_min":42,"x_max":273,"o":"m 42 -301 l 92 -95 l 264 -95 l 214 -301 l 42 -301 m 77 0 l 77 971 l 273 971 l 273 0 l 77 0 z "},"Ņ":{"ha":718,"x_min":57,"x_max":661,"o":"m 248 -289 l 298 -83 l 471 -83 l 420 -289 l 248 -289 m 57 0 l 57 667 l 68 667 l 248 377 l 248 0 l 57 0 m 57 825 l 57 949 l 213 949 l 661 228 l 661 0 l 570 0 l 57 825 m 469 675 l 469 949 l 661 949 l 661 385 l 650 385 l 469 675 z "},"ņ":{"ha":661,"x_min":52,"x_max":609,"o":"m 218 -289 l 269 -83 l 441 -83 l 391 -289 l 218 -289 m 52 0 l 52 563 q 113 696 52 631 q 298 774 187 773 l 298 594 q 236 541 241 587 l 236 0 l 52 0 m 361 594 l 361 774 q 568 670 492 774 q 609 563 609 613 l 609 0 l 425 0 l 425 541 q 374 593 425 586 q 361 594 368 594 z "},"Ŗ":{"ha":685,"x_min":57,"x_max":655,"o":"m 243 -289 l 293 -83 l 465 -83 l 415 -289 l 243 -289 m 57 0 l 57 949 l 248 949 l 248 0 l 57 0 m 321 388 l 321 557 l 339 557 q 450 628 426 557 q 456 665 456 646 q 388 761 456 736 q 339 769 366 769 l 321 769 l 321 949 l 351 949 q 601 823 529 947 q 635 692 635 765 q 543 477 633 552 q 629 320 610 434 q 632 294 631 307 l 655 0 l 479 0 l 458 241 q 396 376 448 350 q 336 388 372 387 l 321 388 z "},"ŗ":{"ha":490,"x_min":14,"x_max":476,"o":"m 14 -289 l 64 -83 l 236 -83 l 186 -289 l 14 -289 m 57 0 l 57 773 l 241 773 l 241 688 q 370 772 289 749 q 427 780 399 780 l 476 780 l 434 598 q 286 524 349 597 q 241 414 241 471 l 241 0 l 57 0 z "},"Ş":{"ha":652,"x_min":27,"x_max":625,"o":"m 153 -270 l 153 -146 q 256 -54 255 -144 l 381 -54 q 285 -239 381 -183 q 153 -270 231 -270 m 27 214 l 199 275 q 218 216 199 241 q 256 182 237 190 l 275 172 l 275 -4 q 79 96 160 -4 q 27 214 28 160 m 38 689 q 165 913 38 838 q 275 949 224 948 l 275 770 q 225 722 241 761 q 220 696 220 709 q 302 601 220 640 q 359 576 320 593 q 452 534 425 551 q 598 401 562 469 q 625 283 625 349 q 532 72 625 160 q 350 -4 452 -4 l 350 172 q 425 228 403 179 q 434 275 434 250 q 331 389 434 345 q 271 412 312 397 q 205 438 224 429 q 56 582 88 494 q 38 689 38 629 m 350 770 l 350 949 q 541 853 464 949 q 587 750 586 796 l 411 692 q 355 769 411 749 q 350 770 350 770 z "},"ş":{"ha":616,"x_min":27,"x_max":589,"o":"m 138 -270 l 138 -146 q 241 -54 240 -144 l 366 -54 q 270 -239 366 -183 q 138 -270 216 -270 m 27 203 l 195 235 q 241 171 195 190 q 271 164 258 165 l 271 -7 q 53 104 114 -7 q 27 203 27 151 m 35 562 q 153 749 35 688 q 269 780 212 780 l 269 612 q 202 562 202 610 q 327 471 202 510 q 435 442 373 456 q 568 338 529 425 q 589 239 589 293 q 477 31 589 98 q 332 -7 414 -7 l 332 164 q 403 195 380 164 q 414 228 414 210 q 311 301 414 270 q 260 315 294 305 q 161 346 189 334 q 42 494 62 396 q 35 562 35 526 m 330 612 l 331 780 q 528 690 453 780 q 575 567 575 632 l 408 538 q 343 610 408 600 q 330 612 335 612 z "},"Ţ":{"ha":628,"x_min":20,"x_max":608,"o":"m 149 -270 l 149 -146 q 252 -54 251 -144 l 377 -54 q 281 -239 377 -183 q 149 -270 227 -270 m 20 762 l 20 949 l 608 949 l 608 762 l 410 762 l 410 0 l 218 0 l 218 762 l 20 762 z "},"ţ":{"ha":439,"x_min":19,"x_max":427,"o":"m 199 -270 l 199 -146 q 302 -54 301 -144 l 427 -54 q 331 -239 427 -183 q 199 -270 277 -270 m 19 598 l 19 773 l 114 773 l 114 971 l 296 971 l 296 773 l 385 773 l 385 597 l 296 597 l 296 237 q 346 187 298 189 l 385 187 l 426 0 l 345 0 q 127 134 167 0 q 114 251 114 183 l 114 598 l 19 598 z "},"Ș":{"ha":652,"x_min":27,"x_max":625,"o":"m 202 -293 l 252 -87 l 425 -87 l 374 -293 l 202 -293 m 27 214 l 199 275 q 218 216 199 241 q 256 182 237 190 l 275 172 l 275 -4 q 79 96 160 -4 q 27 214 28 160 m 38 689 q 165 913 38 838 q 275 949 224 948 l 275 770 q 225 722 241 761 q 220 696 220 709 q 302 601 220 640 q 359 576 320 593 q 452 534 425 551 q 598 401 562 469 q 625 283 625 349 q 532 72 625 160 q 350 -4 452 -4 l 350 172 q 425 228 403 179 q 434 275 434 250 q 331 389 434 345 q 271 412 312 397 q 205 438 224 429 q 56 582 88 494 q 38 689 38 629 m 350 770 l 350 949 q 541 853 464 949 q 587 750 586 796 l 411 692 q 355 769 411 749 q 350 770 350 770 z "},"ș":{"ha":616,"x_min":27,"x_max":589,"o":"m 191 -296 l 241 -90 l 414 -90 l 363 -296 l 191 -296 m 27 203 l 195 235 q 241 171 195 190 q 271 164 258 165 l 271 -7 q 53 104 114 -7 q 27 203 27 151 m 35 562 q 153 749 35 688 q 269 780 212 780 l 269 612 q 202 562 202 610 q 327 471 202 510 q 435 442 373 456 q 568 338 529 425 q 589 239 589 293 q 477 31 589 98 q 332 -7 414 -7 l 332 164 q 403 195 380 164 q 414 228 414 210 q 311 301 414 270 q 260 315 294 305 q 161 346 189 334 q 42 494 62 396 q 35 562 35 526 m 330 612 l 331 780 q 528 690 453 780 q 575 567 575 632 l 408 538 q 343 610 408 600 q 330 612 335 612 z "},"Ț":{"ha":628,"x_min":20,"x_max":608,"o":"m 182 -289 l 232 -83 l 404 -83 l 354 -289 l 182 -289 m 20 762 l 20 949 l 608 949 l 608 762 l 410 762 l 410 0 l 218 0 l 218 762 l 20 762 z "},"ț":{"ha":439,"x_min":19,"x_max":481,"o":"m 259 -289 l 309 -83 l 481 -83 l 431 -289 l 259 -289 m 19 598 l 19 773 l 114 773 l 114 971 l 296 971 l 296 773 l 385 773 l 385 597 l 296 597 l 296 237 q 346 187 298 189 l 385 187 l 426 0 l 345 0 q 127 134 167 0 q 114 251 114 183 l 114 598 l 19 598 z "},"ˉ":{"ha":564,"x_min":68,"x_max":496,"o":"m 68 697 l 68 808 l 496 808 l 496 697 l 68 697 z "},"ℓ":{"ha":266,"x_min":53,"x_max":307,"o":"m 53 259 l 53 947 l 231 947 l 231 259 q 293 186 232 203 q 307 183 302 183 l 307 -9 q 155 47 229 -9 q 53 259 54 126 z "},"Ω":{"ha":642,"x_min":41,"x_max":601,"o":"m 41 0 l 41 88 l 104 88 q 61 195 61 144 l 61 514 q 118 637 61 579 q 283 704 183 704 l 283 544 q 224 496 225 543 l 224 213 q 269 164 224 168 q 283 163 277 163 l 283 0 l 41 0 m 358 0 l 358 163 q 418 213 414 171 l 418 496 q 358 544 415 543 l 358 704 q 551 605 486 704 q 581 514 581 557 l 581 195 q 537 88 579 142 l 601 88 l 601 0 l 358 0 z "},"∆":{"ha":876,"x_min":109,"x_max":768,"o":"m 109 0 l 312 781 l 326 781 l 400 502 l 316 170 l 560 170 l 357 949 l 522 949 l 768 0 l 109 0 z "},"∕":{"ha":760,"x_min":35,"x_max":724,"o":"m 35 -3 l 621 952 l 724 952 l 148 -3 l 35 -3 z "},"∙":{"ha":339,"x_min":41,"x_max":244,"o":"m 41 595 q 94 686 41 656 q 142 699 117 699 q 232 646 203 699 q 244 595 244 623 q 190 506 244 533 q 142 494 167 494 q 53 548 80 494 q 41 595 41 571 z "},"圓":{"ha":1143,"x_min":68,"x_max":1062,"o":"m 68 662 l 68 947 l 125 947 l 125 833 l 137 833 l 137 777 l 125 777 l 125 662 l 68 662 m 159 777 l 159 833 l 171 833 l 171 947 l 229 947 l 229 662 l 171 662 l 171 777 l 159 777 m 269 662 l 269 947 l 327 947 l 327 662 l 269 662 m 349 829 l 384 947 l 441 947 l 406 829 l 442 662 l 385 662 l 349 829 m 464 214 l 636 275 q 656 216 637 241 q 694 182 675 190 l 712 172 l 712 -64 l 616 -64 l 616 18 q 484 146 528 58 q 464 214 465 184 m 475 689 q 610 918 475 842 q 616 921 613 920 l 616 1017 l 712 1017 l 712 770 q 662 722 678 761 q 656 696 656 708 q 712 616 658 650 l 712 410 q 642 438 667 426 q 492 582 525 494 q 475 689 475 629 m 787 -64 l 787 172 q 861 228 840 179 q 871 275 871 250 q 787 380 869 339 l 787 581 q 888 534 850 556 q 1035 401 998 469 q 1062 283 1062 349 q 966 71 1062 159 q 883 16 928 35 l 883 -64 l 787 -64 m 787 770 l 787 1017 l 883 1017 l 883 925 q 1010 788 966 882 q 1024 750 1021 765 l 848 692 q 791 769 841 750 q 787 770 787 770 z "},"ų":{"ha":661,"x_min":52,"x_max":609,"o":"m 498 -270 q 283 -138 330 -270 q 270 -54 270 -99 l 395 -54 q 498 -146 396 -145 l 498 -270 m 52 205 l 52 773 l 236 773 l 236 227 q 298 174 239 175 l 298 -7 q 91 98 165 -7 q 52 205 52 153 m 361 -7 l 361 174 q 425 227 419 180 l 425 773 l 609 773 l 609 205 q 549 76 609 141 q 361 -7 473 -5 z "},"ů":{"ha":661,"x_min":52,"x_max":609,"o":"m 199 983 q 260 1093 199 1055 q 330 1114 292 1114 q 439 1053 401 1114 q 460 983 460 1020 q 399 873 460 911 q 330 853 368 853 q 220 914 258 853 q 199 983 199 947 m 286 983 q 316 941 286 951 q 330 940 324 940 q 372 970 362 940 q 373 983 373 978 q 343 1025 373 1016 q 330 1027 335 1027 q 288 997 297 1027 q 286 983 286 989 m 52 205 l 52 773 l 236 773 l 236 227 q 298 174 239 175 l 298 -7 q 91 98 165 -7 q 52 205 52 153 m 361 -7 l 361 174 q 425 227 419 180 l 425 773 l 609 773 l 609 205 q 549 76 609 141 q 361 -7 473 -5 z "},"v":{"ha":601,"x_min":9,"x_max":591,"o":"m 9 773 l 212 773 l 410 187 l 349 0 l 245 0 l 9 773 m 332 587 l 389 773 l 591 773 l 446 311 l 429 311 l 332 587 z "},"ඃ":{"ha":526,"x_min":41,"x_max":486,"o":"m 297 -9 l 297 136 q 338 170 332 136 q 339 178 339 174 q 309 218 339 210 q 297 220 302 220 l 297 357 l 316 357 q 467 263 425 357 q 486 176 486 222 q 418 24 486 77 q 316 -9 374 -9 l 297 -9 m 210 -9 q 62 83 107 -9 q 41 176 41 126 q 111 327 41 277 q 210 357 153 357 l 229 357 l 229 220 q 189 189 195 220 q 187 178 187 182 q 217 137 187 145 q 229 136 224 136 l 229 -9 l 210 -9 m 297 404 l 297 549 q 338 583 332 549 q 339 591 339 587 q 309 632 339 624 q 297 633 304 633 l 297 770 l 316 770 q 467 677 425 770 q 486 590 486 636 q 418 438 486 491 q 316 404 374 404 l 297 404 m 210 404 q 62 496 107 404 q 41 590 41 540 q 111 741 41 690 q 210 770 153 770 l 229 770 l 229 633 q 189 602 195 633 q 187 591 187 595 q 217 551 187 559 q 229 549 222 549 l 229 404 l 210 404 z "},"w":{"ha":981,"x_min":9,"x_max":971,"o":"m 9 773 l 245 0 l 349 0 l 410 187 l 212 773 l 9 773 m 332 587 l 429 311 l 446 311 l 488 446 l 625 0 l 728 0 l 789 187 l 591 773 l 389 773 l 332 587 m 712 587 l 808 311 l 826 311 l 971 773 l 769 773 l 712 587 z "},"x":{"ha":564,"x_min":11,"x_max":553,"o":"m 11 0 l 180 391 l 14 773 l 201 773 l 282 595 l 361 773 l 549 773 l 385 391 l 553 0 l 368 0 l 282 189 l 197 0 l 11 0 z "},"y":{"ha":582,"x_min":9,"x_max":579,"o":"m 9 773 l 205 773 l 385 171 l 237 -271 l 50 -271 l 186 174 l 9 773 m 327 591 l 384 773 l 579 773 l 426 315 l 408 315 l 327 591 z "},"ý":{"ha":582,"x_min":9,"x_max":579,"o":"m 317 864 l 368 1070 l 540 1070 l 441 864 l 317 864 m 9 773 l 205 773 l 385 171 l 237 -271 l 50 -271 l 186 174 l 9 773 m 327 591 l 384 773 l 579 773 l 426 315 l 408 315 l 327 591 z "},"ÿ":{"ha":582,"x_min":9,"x_max":579,"o":"m 75 966 q 127 1057 75 1027 q 176 1069 151 1069 q 266 1016 237 1069 q 278 966 278 993 q 224 876 278 903 q 176 864 201 864 q 87 918 114 864 q 75 966 75 941 m 305 966 q 358 1057 305 1027 q 407 1069 381 1069 q 496 1016 468 1069 q 509 966 509 993 q 454 876 509 903 q 407 864 431 864 q 317 918 345 864 q 305 966 305 941 m 9 773 l 205 773 l 385 171 l 237 -271 l 50 -271 l 186 174 l 9 773 m 327 591 l 384 773 l 579 773 l 426 315 l 408 315 l 327 591 z "},"¥":{"ha":609,"x_min":22,"x_max":598,"o":"m 224 0 l 410 0 l 410 320 l 411 324 l 598 324 l 598 406 l 434 406 l 453 473 l 598 473 l 598 555 l 476 555 l 586 947 l 400 947 l 319 658 l 233 947 l 47 947 l 159 555 l 22 555 l 22 473 l 182 473 l 201 406 l 22 406 l 22 324 l 224 324 l 224 323 l 224 0 z "},"z":{"ha":524,"x_min":41,"x_max":483,"o":"m 41 0 l 41 178 l 275 597 l 41 597 l 41 773 l 483 773 l 483 597 l 255 178 l 483 178 l 483 0 l 41 0 z "},"ź":{"ha":524,"x_min":41,"x_max":483,"o":"m 201 853 l 251 1059 l 423 1059 l 324 853 l 201 853 m 41 0 l 41 178 l 275 597 l 41 597 l 41 773 l 483 773 l 483 597 l 255 178 l 483 178 l 483 0 l 41 0 z "},"ž":{"ha":524,"x_min":41,"x_max":483,"o":"m 114 1059 l 224 1059 l 260 982 l 298 1059 l 410 1059 l 305 853 l 216 853 l 114 1059 m 41 0 l 41 178 l 275 597 l 41 597 l 41 773 l 483 773 l 483 597 l 255 178 l 483 178 l 483 0 l 41 0 z "},"ż":{"ha":524,"x_min":41,"x_max":483,"o":"m 160 955 q 213 1046 160 1016 q 262 1058 236 1058 q 351 1005 323 1058 q 363 955 363 981 q 309 865 363 892 q 262 853 286 853 q 172 907 199 853 q 160 955 160 930 m 41 0 l 41 178 l 275 597 l 41 597 l 41 773 l 483 773 l 483 597 l 255 178 l 483 178 l 483 0 l 41 0 z "},"‍":{"ha":0,"x_min":-256,"x_max":250,"o":"m -81 1 l 81 1 l 81 732 l 176 663 l 250 764 l 104 869 l 237 968 l 161 1063 l -1 947 l -163 1063 l -245 968 l -109 869 l -256 764 l -170 663 l -81 730 l -81 1 z "},"‌":{"ha":0,"x_min":-85,"x_max":80,"o":"m -85 -1 l -85 994 l 80 994 l 80 -1 l -85 -1 z "}}}
